M48
INCH,TZ
T1C0.0689
T2C0.1181
T3C0.1200
T4C0.1260
T5C0.1570
%
G90
G05
T1
X16750Y-15000
X20750Y-15000
X101125Y-15000
X105125Y-15000
X88000Y0
X92000Y0
X43000Y-7500
X47000Y-7500
X18625Y-22500
X22625Y-22500
X88000Y-37500
X92000Y-37500
X52375Y-37500
X56375Y-37500
X59875Y-37500
X63875Y-37500
X-2000Y0
X2000Y0
X65500Y-7500
X69500Y-7500
X54250Y-15000
X58250Y-15000
X50500Y0
X54500Y0
X9250Y-15000
X13250Y-15000
X73000Y-7500
X77000Y-7500
X68312Y-37500
X72312Y-37500
X2687Y-37500
X6687Y-37500
X2717Y-30000
X6717Y-30000
X24250Y-15000
X28250Y-15000
X31750Y-15000
X35750Y-15000
X82375Y-30000
X86375Y-30000
X44875Y-30000
X48875Y-30000
X29875Y-30000
X33875Y-30000
X48625Y-22500
X52625Y-22500
X33625Y-22500
X37625Y-22500
X20500Y-7500
X24500Y-7500
X56125Y-22500
X60125Y-22500
X5500Y0
X9500Y0
X80500Y-7500
X84500Y-7500
X58000Y0
X62000Y0
X44875Y-37500
X48875Y-37500
X95500Y-37500
X99500Y-37500
X63625Y-22500
X67625Y-22500
X14875Y-30000
X18875Y-30000
X20500Y0
X24500Y0
X21437Y-37500
X25437Y-37500
X73000Y0
X77000Y0
X35500Y-7500
X39500Y-7500
X12062Y-37500
X16062Y-37500
X26125Y-22500
X30125Y-22500
X98342Y-22500
X102342Y-22500
X80500Y0
X84500Y0
X50500Y-7500
X54500Y-7500
X91750Y-15000
X95750Y-15000
X74875Y-30000
X78875Y-30000
X95500Y-30000
X99500Y-30000
X11125Y-22500
X15125Y-22500
X78625Y-22500
X82625Y-22500
X22375Y-30000
X26375Y-30000
X58000Y-7500
X62000Y-7500
X103000Y-30000
X107000Y-30000
X65500Y0
X69500Y0
X41125Y-22500
X45125Y-22500
X13000Y0
X17000Y0
X13000Y-7500
X17000Y-7500
X77687Y-37500
X81687Y-37500
X35500Y0
X39500Y0
X67375Y-30000
X71375Y-30000
X29875Y-37500
X33875Y-37500
X59875Y-30000
X63875Y-30000
X39250Y-15000
X43250Y-15000
X76750Y-15000
X80750Y-15000
X86125Y-22500
X90125Y-22500
X-125Y-15000
X3875Y-15000
X61750Y-15000
X65750Y-15000
X43000Y0
X47000Y0
X84250Y-15000
X88250Y-15000
X28000Y-7500
X32000Y-7500
X103000Y-37500
X107000Y-37500
X37375Y-37500
X41375Y-37500
X5500Y-7500
X9500Y-7500
X88000Y-7500
X92000Y-7500
X69250Y-15000
X73250Y-15000
X99250Y-7500
X103250Y-7500
X46750Y-15000
X50750Y-15000
X-2000Y-7500
X2000Y-7500
X813Y-22500
X4813Y-22500
X52375Y-30000
X56375Y-30000
X37375Y-30000
X41375Y-30000
X71125Y-22500
X75125Y-22500
X28000Y0
X32000Y0
T2
X98842Y-21500
X101342Y-20500
X81000Y1000
X83500Y2000
X51000Y-6500
X53500Y-5500
X92250Y-14000
X94750Y-13000
X75375Y-29000
X77875Y-28000
X96000Y-29000
X98500Y-28000
X11625Y-21500
X14125Y-20500
X79125Y-21500
X81625Y-20500
X22875Y-29000
X25375Y-28000
X58500Y-6500
X61000Y-5500
X103500Y-29000
X106000Y-28000
X66000Y1000
X68500Y2000
X41625Y-21500
X44125Y-20500
X13500Y1000
X16000Y2000
X13500Y-6500
X16000Y-5500
X78187Y-36500
X80687Y-35500
X36000Y1000
X38500Y2000
X67875Y-29000
X70375Y-28000
X30375Y-36500
X32875Y-35500
X60375Y-29000
X62875Y-28000
X39750Y-14000
X42250Y-13000
X77250Y-14000
X79750Y-13000
X86625Y-21500
X89125Y-20500
X375Y-14000
X2875Y-13000
X62250Y-14000
X64750Y-13000
X43500Y1000
X46000Y2000
X84750Y-14000
X87250Y-13000
X28500Y-6500
X31000Y-5500
X103500Y-36500
X106000Y-35500
X37875Y-36500
X40375Y-35500
X6000Y-6500
X8500Y-5500
X88500Y-6500
X91000Y-5500
X69750Y-14000
X72250Y-13000
X99750Y-6500
X102250Y-5500
X47250Y-14000
X49750Y-13000
X-1500Y-6500
X1000Y-5500
X1313Y-21500
X3813Y-20500
X52875Y-29000
X55375Y-28000
X37875Y-29000
X40375Y-28000
X71625Y-21500
X74125Y-20500
X28500Y1000
X31000Y2000
X17250Y-14000
X19750Y-13000
X101625Y-14000
X104125Y-13000
X88500Y1000
X91000Y2000
X43500Y-6500
X46000Y-5500
X19125Y-21500
X21625Y-20500
X88500Y-36500
X91000Y-35500
X52875Y-36500
X55375Y-35500
X60375Y-36500
X62875Y-35500
X-1500Y1000
X1000Y2000
X66000Y-6500
X68500Y-5500
X54750Y-14000
X57250Y-13000
X51000Y1000
X53500Y2000
X9750Y-14000
X12250Y-13000
X73500Y-6500
X76000Y-5500
X68812Y-36500
X71312Y-35500
X3187Y-36500
X5687Y-35500
X3217Y-29000
X5717Y-28000
X24750Y-14000
X27250Y-13000
X32250Y-14000
X34750Y-13000
X82875Y-29000
X85375Y-28000
X45375Y-29000
X47875Y-28000
X30375Y-29000
X32875Y-28000
X49125Y-21500
X51625Y-20500
X34125Y-21500
X36625Y-20500
X21000Y-6500
X23500Y-5500
X56625Y-21500
X59125Y-20500
X6000Y1000
X8500Y2000
X81000Y-6500
X83500Y-5500
X58500Y1000
X61000Y2000
X45375Y-36500
X47875Y-35500
X96000Y-36500
X98500Y-35500
X64125Y-21500
X66625Y-20500
X15375Y-29000
X17875Y-28000
X21000Y1000
X23500Y2000
X21937Y-36500
X24437Y-35500
X73500Y1000
X76000Y2000
X36000Y-6500
X38500Y-5500
X12562Y-36500
X15062Y-35500
X26625Y-21500
X29125Y-20500
T3
X95642Y-19750
X105042Y-19750
X96550Y-4750
X105950Y-4750
X17Y-27250
X9417Y-27250
T4
X110500Y-40000
X-5000Y5000
X-5000Y-40000
X110500Y5000
T5
X20625Y-22500
X90000Y-37500
X54375Y-37500
X61875Y-37500
X0Y0
X67500Y-7500
X56250Y-15000
X52500Y0
X11250Y-15000
X75000Y-7500
X70312Y-37500
X4687Y-37500
X17Y-33250
X4717Y-30000
X9417Y-33250
X26250Y-15000
X33750Y-15000
X84375Y-30000
X46875Y-30000
X31875Y-30000
X50625Y-22500
X35625Y-22500
X22500Y-7500
X58125Y-22500
X7500Y0
X82500Y-7500
X60000Y0
X46875Y-37500
X97500Y-37500
X65625Y-22500
X16875Y-30000
X22500Y0
X23437Y-37500
X75000Y0
X37500Y-7500
X14062Y-37500
X28125Y-22500
X95642Y-25750
X100342Y-22500
X105042Y-25750
X82500Y0
X52500Y-7500
X93750Y-15000
X76875Y-30000
X97500Y-30000
X13125Y-22500
X80625Y-22500
X24375Y-30000
X60000Y-7500
X105000Y-30000
X67500Y0
X43125Y-22500
X15000Y0
X15000Y-7500
X79687Y-37500
X37500Y0
X69375Y-30000
X31875Y-37500
X61875Y-30000
X41250Y-15000
X78750Y-15000
X88125Y-22500
X1875Y-15000
X63750Y-15000
X45000Y0
X86250Y-15000
X30000Y-7500
X105000Y-37500
X39375Y-37500
X7500Y-7500
X90000Y-7500
X71250Y-15000
X96550Y-10750
X101250Y-7500
X105950Y-10750
X48750Y-15000
X0Y-7500
X2813Y-22500
X54375Y-30000
X39375Y-30000
X73125Y-22500
X30000Y0
X18750Y-15000
X103125Y-15000
X90000Y0
X45000Y-7500
T0
M30
