M48
INCH,TZ
T1C0.0157
T2C0.0430
%
G90
G05
T1
X-3000Y1000
X500Y-3000
X500Y-10500
X2500Y-18000
X3500Y-25500
X5500Y-4500
X5500Y-33000
X5500Y-40500
X8000Y-3000
X8000Y-10500
X12000Y-18000
X13000Y-3500
X13500Y-25500
X14500Y-40500
X15500Y-3000
X15500Y-10500
X17500Y-33000
X19500Y-18000
X20500Y-4000
X21000Y-25500
X23000Y-3000
X23000Y-10500
X24000Y-40500
X25000Y-33000
X27000Y1000
X27000Y-18000
X28500Y-25500
X30500Y-3000
X30500Y-10500
X32500Y-33000
X32500Y-40500
X34500Y1000
X34500Y-18000
X36000Y-25500
X38000Y-3000
X38000Y-10500
X40000Y-33000
X40000Y-40500
X42000Y-18000
X43000Y-1500
X43500Y-25500
X45500Y-3000
X45500Y-10500
X47500Y-33000
X47500Y-40500
X49500Y1000
X49500Y-18000
X51000Y-25500
X53000Y-3000
X53000Y-10500
X55000Y-33000
X55000Y-40500
X57000Y-18000
X58500Y-25500
X60500Y-3000
X60500Y-10500
X62500Y-33000
X62500Y-40500
X64500Y1000
X64500Y-18000
X66000Y-25500
X68000Y-3000
X68000Y-10500
X70000Y-33000
X71000Y-40500
X72000Y-18000
X73500Y-25500
X75500Y-3000
X75500Y-10500
X77500Y-33000
X79500Y-18000
X80500Y-40500
X81000Y-25500
X83000Y-3000
X83000Y-10500
X85000Y-33000
X87000Y-18000
X87500Y-1000
X88500Y-25500
X90500Y-3000
X90500Y-10500
X90500Y-40500
X94500Y-18000
X98000Y-33000
X98000Y-40500
X100500Y1000
X101000Y-25500
X101500Y5000
X102000Y-10500
X103000Y0
X103500Y-18000
X104000Y-4000
X104500Y-9500
X105500Y-33000
X105500Y-40500
X106000Y-8000
X108000Y-500
X109500Y1000
T2
X99500Y2910
X99500Y2000
X99500Y1000
X99500Y0
X99500Y-1000
X99500Y-2000
X99500Y-3000
X100500Y3000
X100500Y-3000
X101500Y3000
X101500Y-3000
X102500Y3000
X102500Y-3000
X103500Y3000
X103500Y-3000
X104500Y3000
X104500Y-3000
X105500Y3000
X105500Y-3000
X106500Y3000
X106500Y-3000
X107500Y3000
X107500Y-3000
X108500Y3000
X108500Y-3000
X109500Y3000
X109500Y-3000
X110500Y3000
X110500Y-3000
T0
M30
