G04 #@! TF.GenerationSoftware,KiCad,Pcbnew,(5.1.6)-1*
G04 #@! TF.CreationDate,2020-08-27T21:51:50+09:00*
G04 #@! TF.ProjectId,keyboard-layouter-playground,6b657962-6f61-4726-942d-6c61796f7574,rev?*
G04 #@! TF.SameCoordinates,Original*
G04 #@! TF.FileFunction,Paste,Bot*
G04 #@! TF.FilePolarity,Positive*
%FSLAX46Y46*%
G04 Gerber Fmt 4.6, Leading zero omitted, Abs format (unit mm)*
G04 Created by KiCad (PCBNEW (5.1.6)-1) date 2020-08-27 21:51:50*
%MOMM*%
%LPD*%
G01*
G04 APERTURE LIST*
%ADD10R,1.050000X0.650000*%
%ADD11R,2.550000X2.500000*%
G04 APERTURE END LIST*
D10*
G04 #@! TO.C,SW_RST1*
X276395000Y-16705000D03*
X272245000Y-16705000D03*
X276395000Y-18855000D03*
X272245000Y-18855000D03*
G04 #@! TD*
D11*
G04 #@! TO.C,SW69*
X259615000Y-73660000D03*
X272542000Y-71120000D03*
G04 #@! TD*
G04 #@! TO.C,D69*
G36*
G01*
X264500000Y-84825000D02*
X264500000Y-83575000D01*
G75*
G02*
X264750000Y-83325000I250000J0D01*
G01*
X265675000Y-83325000D01*
G75*
G02*
X265925000Y-83575000I0J-250000D01*
G01*
X265925000Y-84825000D01*
G75*
G02*
X265675000Y-85075000I-250000J0D01*
G01*
X264750000Y-85075000D01*
G75*
G02*
X264500000Y-84825000I0J250000D01*
G01*
G37*
G36*
G01*
X267475000Y-84825000D02*
X267475000Y-83575000D01*
G75*
G02*
X267725000Y-83325000I250000J0D01*
G01*
X268650000Y-83325000D01*
G75*
G02*
X268900000Y-83575000I0J-250000D01*
G01*
X268900000Y-84825000D01*
G75*
G02*
X268650000Y-85075000I-250000J0D01*
G01*
X267725000Y-85075000D01*
G75*
G02*
X267475000Y-84825000I0J250000D01*
G01*
G37*
G04 #@! TD*
G04 #@! TO.C,SW8*
X139192000Y5080000D03*
X126265000Y2540000D03*
G04 #@! TD*
G04 #@! TO.C,SW45*
X140552500Y-54610000D03*
X153479500Y-52070000D03*
G04 #@! TD*
G04 #@! TO.C,SW43*
X102452500Y-54610000D03*
X115379500Y-52070000D03*
G04 #@! TD*
G04 #@! TO.C,SW104*
X184435500Y-90170000D03*
X171508500Y-92710000D03*
G04 #@! TD*
G04 #@! TO.C,SW202*
X267780000Y-33020000D03*
X254853000Y-35560000D03*
G04 #@! TD*
G04 #@! TO.C,SW101*
X17748000Y-90170000D03*
X4821000Y-92710000D03*
G04 #@! TD*
G04 #@! TO.C,SW102*
X41560500Y-90170000D03*
X28633500Y-92710000D03*
G04 #@! TD*
G04 #@! TO.C,SW602*
X17822600Y-71120000D03*
X4895600Y-73660000D03*
G04 #@! TD*
G04 #@! TO.C,SW105*
X195321000Y-92710000D03*
X208248000Y-90170000D03*
G04 #@! TD*
G04 #@! TO.C,SW201*
X-2322000Y-35560000D03*
X10605000Y-33020000D03*
G04 #@! TD*
G04 #@! TO.C,SW401*
X263017000Y-13970000D03*
X250090000Y-16510000D03*
G04 #@! TD*
G04 #@! TO.C,SW601*
X247783100Y-54610000D03*
X260710100Y-52070000D03*
G04 #@! TD*
G04 #@! TO.C,SW103*
X52446000Y-92710000D03*
X65373000Y-90170000D03*
G04 #@! TD*
G04 #@! TO.C,D38*
G36*
G01*
X235925000Y-46725000D02*
X235925000Y-45475000D01*
G75*
G02*
X236175000Y-45225000I250000J0D01*
G01*
X237100000Y-45225000D01*
G75*
G02*
X237350000Y-45475000I0J-250000D01*
G01*
X237350000Y-46725000D01*
G75*
G02*
X237100000Y-46975000I-250000J0D01*
G01*
X236175000Y-46975000D01*
G75*
G02*
X235925000Y-46725000I0J250000D01*
G01*
G37*
G36*
G01*
X238900000Y-46725000D02*
X238900000Y-45475000D01*
G75*
G02*
X239150000Y-45225000I250000J0D01*
G01*
X240075000Y-45225000D01*
G75*
G02*
X240325000Y-45475000I0J-250000D01*
G01*
X240325000Y-46725000D01*
G75*
G02*
X240075000Y-46975000I-250000J0D01*
G01*
X239150000Y-46975000D01*
G75*
G02*
X238900000Y-46725000I0J250000D01*
G01*
G37*
G04 #@! TD*
G04 #@! TO.C,D40*
G36*
G01*
X53162500Y-65775000D02*
X53162500Y-64525000D01*
G75*
G02*
X53412500Y-64275000I250000J0D01*
G01*
X54337500Y-64275000D01*
G75*
G02*
X54587500Y-64525000I0J-250000D01*
G01*
X54587500Y-65775000D01*
G75*
G02*
X54337500Y-66025000I-250000J0D01*
G01*
X53412500Y-66025000D01*
G75*
G02*
X53162500Y-65775000I0J250000D01*
G01*
G37*
G36*
G01*
X50187500Y-65775000D02*
X50187500Y-64525000D01*
G75*
G02*
X50437500Y-64275000I250000J0D01*
G01*
X51362500Y-64275000D01*
G75*
G02*
X51612500Y-64525000I0J-250000D01*
G01*
X51612500Y-65775000D01*
G75*
G02*
X51362500Y-66025000I-250000J0D01*
G01*
X50437500Y-66025000D01*
G75*
G02*
X50187500Y-65775000I0J250000D01*
G01*
G37*
G04 #@! TD*
G04 #@! TO.C,D19*
G36*
G01*
X96025000Y-27675000D02*
X96025000Y-26425000D01*
G75*
G02*
X96275000Y-26175000I250000J0D01*
G01*
X97200000Y-26175000D01*
G75*
G02*
X97450000Y-26425000I0J-250000D01*
G01*
X97450000Y-27675000D01*
G75*
G02*
X97200000Y-27925000I-250000J0D01*
G01*
X96275000Y-27925000D01*
G75*
G02*
X96025000Y-27675000I0J250000D01*
G01*
G37*
G36*
G01*
X93050000Y-27675000D02*
X93050000Y-26425000D01*
G75*
G02*
X93300000Y-26175000I250000J0D01*
G01*
X94225000Y-26175000D01*
G75*
G02*
X94475000Y-26425000I0J-250000D01*
G01*
X94475000Y-27675000D01*
G75*
G02*
X94225000Y-27925000I-250000J0D01*
G01*
X93300000Y-27925000D01*
G75*
G02*
X93050000Y-27675000I0J250000D01*
G01*
G37*
G04 #@! TD*
G04 #@! TO.C,D26*
G36*
G01*
X226400000Y-27675000D02*
X226400000Y-26425000D01*
G75*
G02*
X226650000Y-26175000I250000J0D01*
G01*
X227575000Y-26175000D01*
G75*
G02*
X227825000Y-26425000I0J-250000D01*
G01*
X227825000Y-27675000D01*
G75*
G02*
X227575000Y-27925000I-250000J0D01*
G01*
X226650000Y-27925000D01*
G75*
G02*
X226400000Y-27675000I0J250000D01*
G01*
G37*
G36*
G01*
X229375000Y-27675000D02*
X229375000Y-26425000D01*
G75*
G02*
X229625000Y-26175000I250000J0D01*
G01*
X230550000Y-26175000D01*
G75*
G02*
X230800000Y-26425000I0J-250000D01*
G01*
X230800000Y-27675000D01*
G75*
G02*
X230550000Y-27925000I-250000J0D01*
G01*
X229625000Y-27925000D01*
G75*
G02*
X229375000Y-27675000I0J250000D01*
G01*
G37*
G04 #@! TD*
G04 #@! TO.C,D31*
G36*
G01*
X105550000Y-46725000D02*
X105550000Y-45475000D01*
G75*
G02*
X105800000Y-45225000I250000J0D01*
G01*
X106725000Y-45225000D01*
G75*
G02*
X106975000Y-45475000I0J-250000D01*
G01*
X106975000Y-46725000D01*
G75*
G02*
X106725000Y-46975000I-250000J0D01*
G01*
X105800000Y-46975000D01*
G75*
G02*
X105550000Y-46725000I0J250000D01*
G01*
G37*
G36*
G01*
X102575000Y-46725000D02*
X102575000Y-45475000D01*
G75*
G02*
X102825000Y-45225000I250000J0D01*
G01*
X103750000Y-45225000D01*
G75*
G02*
X104000000Y-45475000I0J-250000D01*
G01*
X104000000Y-46725000D01*
G75*
G02*
X103750000Y-46975000I-250000J0D01*
G01*
X102825000Y-46975000D01*
G75*
G02*
X102575000Y-46725000I0J250000D01*
G01*
G37*
G04 #@! TD*
G04 #@! TO.C,D32*
G36*
G01*
X124600000Y-46725000D02*
X124600000Y-45475000D01*
G75*
G02*
X124850000Y-45225000I250000J0D01*
G01*
X125775000Y-45225000D01*
G75*
G02*
X126025000Y-45475000I0J-250000D01*
G01*
X126025000Y-46725000D01*
G75*
G02*
X125775000Y-46975000I-250000J0D01*
G01*
X124850000Y-46975000D01*
G75*
G02*
X124600000Y-46725000I0J250000D01*
G01*
G37*
G36*
G01*
X121625000Y-46725000D02*
X121625000Y-45475000D01*
G75*
G02*
X121875000Y-45225000I250000J0D01*
G01*
X122800000Y-45225000D01*
G75*
G02*
X123050000Y-45475000I0J-250000D01*
G01*
X123050000Y-46725000D01*
G75*
G02*
X122800000Y-46975000I-250000J0D01*
G01*
X121875000Y-46975000D01*
G75*
G02*
X121625000Y-46725000I0J250000D01*
G01*
G37*
G04 #@! TD*
G04 #@! TO.C,D15*
G36*
G01*
X16850000Y-27675000D02*
X16850000Y-26425000D01*
G75*
G02*
X17100000Y-26175000I250000J0D01*
G01*
X18025000Y-26175000D01*
G75*
G02*
X18275000Y-26425000I0J-250000D01*
G01*
X18275000Y-27675000D01*
G75*
G02*
X18025000Y-27925000I-250000J0D01*
G01*
X17100000Y-27925000D01*
G75*
G02*
X16850000Y-27675000I0J250000D01*
G01*
G37*
G36*
G01*
X19825000Y-27675000D02*
X19825000Y-26425000D01*
G75*
G02*
X20075000Y-26175000I250000J0D01*
G01*
X21000000Y-26175000D01*
G75*
G02*
X21250000Y-26425000I0J-250000D01*
G01*
X21250000Y-27675000D01*
G75*
G02*
X21000000Y-27925000I-250000J0D01*
G01*
X20075000Y-27925000D01*
G75*
G02*
X19825000Y-27675000I0J250000D01*
G01*
G37*
G04 #@! TD*
G04 #@! TO.C,D16*
G36*
G01*
X35900000Y-27675000D02*
X35900000Y-26425000D01*
G75*
G02*
X36150000Y-26175000I250000J0D01*
G01*
X37075000Y-26175000D01*
G75*
G02*
X37325000Y-26425000I0J-250000D01*
G01*
X37325000Y-27675000D01*
G75*
G02*
X37075000Y-27925000I-250000J0D01*
G01*
X36150000Y-27925000D01*
G75*
G02*
X35900000Y-27675000I0J250000D01*
G01*
G37*
G36*
G01*
X38875000Y-27675000D02*
X38875000Y-26425000D01*
G75*
G02*
X39125000Y-26175000I250000J0D01*
G01*
X40050000Y-26175000D01*
G75*
G02*
X40300000Y-26425000I0J-250000D01*
G01*
X40300000Y-27675000D01*
G75*
G02*
X40050000Y-27925000I-250000J0D01*
G01*
X39125000Y-27925000D01*
G75*
G02*
X38875000Y-27675000I0J250000D01*
G01*
G37*
G04 #@! TD*
G04 #@! TO.C,D35*
G36*
G01*
X178775000Y-46725000D02*
X178775000Y-45475000D01*
G75*
G02*
X179025000Y-45225000I250000J0D01*
G01*
X179950000Y-45225000D01*
G75*
G02*
X180200000Y-45475000I0J-250000D01*
G01*
X180200000Y-46725000D01*
G75*
G02*
X179950000Y-46975000I-250000J0D01*
G01*
X179025000Y-46975000D01*
G75*
G02*
X178775000Y-46725000I0J250000D01*
G01*
G37*
G36*
G01*
X181750000Y-46725000D02*
X181750000Y-45475000D01*
G75*
G02*
X182000000Y-45225000I250000J0D01*
G01*
X182925000Y-45225000D01*
G75*
G02*
X183175000Y-45475000I0J-250000D01*
G01*
X183175000Y-46725000D01*
G75*
G02*
X182925000Y-46975000I-250000J0D01*
G01*
X182000000Y-46975000D01*
G75*
G02*
X181750000Y-46725000I0J250000D01*
G01*
G37*
G04 #@! TD*
G04 #@! TO.C,D30*
G36*
G01*
X86500000Y-46725000D02*
X86500000Y-45475000D01*
G75*
G02*
X86750000Y-45225000I250000J0D01*
G01*
X87675000Y-45225000D01*
G75*
G02*
X87925000Y-45475000I0J-250000D01*
G01*
X87925000Y-46725000D01*
G75*
G02*
X87675000Y-46975000I-250000J0D01*
G01*
X86750000Y-46975000D01*
G75*
G02*
X86500000Y-46725000I0J250000D01*
G01*
G37*
G36*
G01*
X83525000Y-46725000D02*
X83525000Y-45475000D01*
G75*
G02*
X83775000Y-45225000I250000J0D01*
G01*
X84700000Y-45225000D01*
G75*
G02*
X84950000Y-45475000I0J-250000D01*
G01*
X84950000Y-46725000D01*
G75*
G02*
X84700000Y-46975000I-250000J0D01*
G01*
X83775000Y-46975000D01*
G75*
G02*
X83525000Y-46725000I0J250000D01*
G01*
G37*
G04 #@! TD*
G04 #@! TO.C,D36*
G36*
G01*
X197825000Y-46725000D02*
X197825000Y-45475000D01*
G75*
G02*
X198075000Y-45225000I250000J0D01*
G01*
X199000000Y-45225000D01*
G75*
G02*
X199250000Y-45475000I0J-250000D01*
G01*
X199250000Y-46725000D01*
G75*
G02*
X199000000Y-46975000I-250000J0D01*
G01*
X198075000Y-46975000D01*
G75*
G02*
X197825000Y-46725000I0J250000D01*
G01*
G37*
G36*
G01*
X200800000Y-46725000D02*
X200800000Y-45475000D01*
G75*
G02*
X201050000Y-45225000I250000J0D01*
G01*
X201975000Y-45225000D01*
G75*
G02*
X202225000Y-45475000I0J-250000D01*
G01*
X202225000Y-46725000D01*
G75*
G02*
X201975000Y-46975000I-250000J0D01*
G01*
X201050000Y-46975000D01*
G75*
G02*
X200800000Y-46725000I0J250000D01*
G01*
G37*
G04 #@! TD*
G04 #@! TO.C,D12*
G36*
G01*
X210325000Y-8625000D02*
X210325000Y-7375000D01*
G75*
G02*
X210575000Y-7125000I250000J0D01*
G01*
X211500000Y-7125000D01*
G75*
G02*
X211750000Y-7375000I0J-250000D01*
G01*
X211750000Y-8625000D01*
G75*
G02*
X211500000Y-8875000I-250000J0D01*
G01*
X210575000Y-8875000D01*
G75*
G02*
X210325000Y-8625000I0J250000D01*
G01*
G37*
G36*
G01*
X207350000Y-8625000D02*
X207350000Y-7375000D01*
G75*
G02*
X207600000Y-7125000I250000J0D01*
G01*
X208525000Y-7125000D01*
G75*
G02*
X208775000Y-7375000I0J-250000D01*
G01*
X208775000Y-8625000D01*
G75*
G02*
X208525000Y-8875000I-250000J0D01*
G01*
X207600000Y-8875000D01*
G75*
G02*
X207350000Y-8625000I0J250000D01*
G01*
G37*
G04 #@! TD*
G04 #@! TO.C,D14*
G36*
G01*
X775000Y-27675000D02*
X775000Y-26425000D01*
G75*
G02*
X1025000Y-26175000I250000J0D01*
G01*
X1950000Y-26175000D01*
G75*
G02*
X2200000Y-26425000I0J-250000D01*
G01*
X2200000Y-27675000D01*
G75*
G02*
X1950000Y-27925000I-250000J0D01*
G01*
X1025000Y-27925000D01*
G75*
G02*
X775000Y-27675000I0J250000D01*
G01*
G37*
G36*
G01*
X-2200000Y-27675000D02*
X-2200000Y-26425000D01*
G75*
G02*
X-1950000Y-26175000I250000J0D01*
G01*
X-1025000Y-26175000D01*
G75*
G02*
X-775000Y-26425000I0J-250000D01*
G01*
X-775000Y-27675000D01*
G75*
G02*
X-1025000Y-27925000I-250000J0D01*
G01*
X-1950000Y-27925000D01*
G75*
G02*
X-2200000Y-27675000I0J250000D01*
G01*
G37*
G04 #@! TD*
G04 #@! TO.C,D17*
G36*
G01*
X54950000Y-27675000D02*
X54950000Y-26425000D01*
G75*
G02*
X55200000Y-26175000I250000J0D01*
G01*
X56125000Y-26175000D01*
G75*
G02*
X56375000Y-26425000I0J-250000D01*
G01*
X56375000Y-27675000D01*
G75*
G02*
X56125000Y-27925000I-250000J0D01*
G01*
X55200000Y-27925000D01*
G75*
G02*
X54950000Y-27675000I0J250000D01*
G01*
G37*
G36*
G01*
X57925000Y-27675000D02*
X57925000Y-26425000D01*
G75*
G02*
X58175000Y-26175000I250000J0D01*
G01*
X59100000Y-26175000D01*
G75*
G02*
X59350000Y-26425000I0J-250000D01*
G01*
X59350000Y-27675000D01*
G75*
G02*
X59100000Y-27925000I-250000J0D01*
G01*
X58175000Y-27925000D01*
G75*
G02*
X57925000Y-27675000I0J250000D01*
G01*
G37*
G04 #@! TD*
G04 #@! TO.C,D13*
G36*
G01*
X226400000Y-8625000D02*
X226400000Y-7375000D01*
G75*
G02*
X226650000Y-7125000I250000J0D01*
G01*
X227575000Y-7125000D01*
G75*
G02*
X227825000Y-7375000I0J-250000D01*
G01*
X227825000Y-8625000D01*
G75*
G02*
X227575000Y-8875000I-250000J0D01*
G01*
X226650000Y-8875000D01*
G75*
G02*
X226400000Y-8625000I0J250000D01*
G01*
G37*
G36*
G01*
X229375000Y-8625000D02*
X229375000Y-7375000D01*
G75*
G02*
X229625000Y-7125000I250000J0D01*
G01*
X230550000Y-7125000D01*
G75*
G02*
X230800000Y-7375000I0J-250000D01*
G01*
X230800000Y-8625000D01*
G75*
G02*
X230550000Y-8875000I-250000J0D01*
G01*
X229625000Y-8875000D01*
G75*
G02*
X229375000Y-8625000I0J250000D01*
G01*
G37*
G04 #@! TD*
G04 #@! TO.C,D18*
G36*
G01*
X74000000Y-27675000D02*
X74000000Y-26425000D01*
G75*
G02*
X74250000Y-26175000I250000J0D01*
G01*
X75175000Y-26175000D01*
G75*
G02*
X75425000Y-26425000I0J-250000D01*
G01*
X75425000Y-27675000D01*
G75*
G02*
X75175000Y-27925000I-250000J0D01*
G01*
X74250000Y-27925000D01*
G75*
G02*
X74000000Y-27675000I0J250000D01*
G01*
G37*
G36*
G01*
X76975000Y-27675000D02*
X76975000Y-26425000D01*
G75*
G02*
X77225000Y-26175000I250000J0D01*
G01*
X78150000Y-26175000D01*
G75*
G02*
X78400000Y-26425000I0J-250000D01*
G01*
X78400000Y-27675000D01*
G75*
G02*
X78150000Y-27925000I-250000J0D01*
G01*
X77225000Y-27925000D01*
G75*
G02*
X76975000Y-27675000I0J250000D01*
G01*
G37*
G04 #@! TD*
G04 #@! TO.C,D21*
G36*
G01*
X131150000Y-27675000D02*
X131150000Y-26425000D01*
G75*
G02*
X131400000Y-26175000I250000J0D01*
G01*
X132325000Y-26175000D01*
G75*
G02*
X132575000Y-26425000I0J-250000D01*
G01*
X132575000Y-27675000D01*
G75*
G02*
X132325000Y-27925000I-250000J0D01*
G01*
X131400000Y-27925000D01*
G75*
G02*
X131150000Y-27675000I0J250000D01*
G01*
G37*
G36*
G01*
X134125000Y-27675000D02*
X134125000Y-26425000D01*
G75*
G02*
X134375000Y-26175000I250000J0D01*
G01*
X135300000Y-26175000D01*
G75*
G02*
X135550000Y-26425000I0J-250000D01*
G01*
X135550000Y-27675000D01*
G75*
G02*
X135300000Y-27925000I-250000J0D01*
G01*
X134375000Y-27925000D01*
G75*
G02*
X134125000Y-27675000I0J250000D01*
G01*
G37*
G04 #@! TD*
G04 #@! TO.C,D23*
G36*
G01*
X169250000Y-27675000D02*
X169250000Y-26425000D01*
G75*
G02*
X169500000Y-26175000I250000J0D01*
G01*
X170425000Y-26175000D01*
G75*
G02*
X170675000Y-26425000I0J-250000D01*
G01*
X170675000Y-27675000D01*
G75*
G02*
X170425000Y-27925000I-250000J0D01*
G01*
X169500000Y-27925000D01*
G75*
G02*
X169250000Y-27675000I0J250000D01*
G01*
G37*
G36*
G01*
X172225000Y-27675000D02*
X172225000Y-26425000D01*
G75*
G02*
X172475000Y-26175000I250000J0D01*
G01*
X173400000Y-26175000D01*
G75*
G02*
X173650000Y-26425000I0J-250000D01*
G01*
X173650000Y-27675000D01*
G75*
G02*
X173400000Y-27925000I-250000J0D01*
G01*
X172475000Y-27925000D01*
G75*
G02*
X172225000Y-27675000I0J250000D01*
G01*
G37*
G04 #@! TD*
G04 #@! TO.C,D27*
G36*
G01*
X29350000Y-46725000D02*
X29350000Y-45475000D01*
G75*
G02*
X29600000Y-45225000I250000J0D01*
G01*
X30525000Y-45225000D01*
G75*
G02*
X30775000Y-45475000I0J-250000D01*
G01*
X30775000Y-46725000D01*
G75*
G02*
X30525000Y-46975000I-250000J0D01*
G01*
X29600000Y-46975000D01*
G75*
G02*
X29350000Y-46725000I0J250000D01*
G01*
G37*
G36*
G01*
X26375000Y-46725000D02*
X26375000Y-45475000D01*
G75*
G02*
X26625000Y-45225000I250000J0D01*
G01*
X27550000Y-45225000D01*
G75*
G02*
X27800000Y-45475000I0J-250000D01*
G01*
X27800000Y-46725000D01*
G75*
G02*
X27550000Y-46975000I-250000J0D01*
G01*
X26625000Y-46975000D01*
G75*
G02*
X26375000Y-46725000I0J250000D01*
G01*
G37*
G04 #@! TD*
G04 #@! TO.C,D28*
G36*
G01*
X48400000Y-46725000D02*
X48400000Y-45475000D01*
G75*
G02*
X48650000Y-45225000I250000J0D01*
G01*
X49575000Y-45225000D01*
G75*
G02*
X49825000Y-45475000I0J-250000D01*
G01*
X49825000Y-46725000D01*
G75*
G02*
X49575000Y-46975000I-250000J0D01*
G01*
X48650000Y-46975000D01*
G75*
G02*
X48400000Y-46725000I0J250000D01*
G01*
G37*
G36*
G01*
X45425000Y-46725000D02*
X45425000Y-45475000D01*
G75*
G02*
X45675000Y-45225000I250000J0D01*
G01*
X46600000Y-45225000D01*
G75*
G02*
X46850000Y-45475000I0J-250000D01*
G01*
X46850000Y-46725000D01*
G75*
G02*
X46600000Y-46975000I-250000J0D01*
G01*
X45675000Y-46975000D01*
G75*
G02*
X45425000Y-46725000I0J250000D01*
G01*
G37*
G04 #@! TD*
G04 #@! TO.C,D22*
G36*
G01*
X150200000Y-27675000D02*
X150200000Y-26425000D01*
G75*
G02*
X150450000Y-26175000I250000J0D01*
G01*
X151375000Y-26175000D01*
G75*
G02*
X151625000Y-26425000I0J-250000D01*
G01*
X151625000Y-27675000D01*
G75*
G02*
X151375000Y-27925000I-250000J0D01*
G01*
X150450000Y-27925000D01*
G75*
G02*
X150200000Y-27675000I0J250000D01*
G01*
G37*
G36*
G01*
X153175000Y-27675000D02*
X153175000Y-26425000D01*
G75*
G02*
X153425000Y-26175000I250000J0D01*
G01*
X154350000Y-26175000D01*
G75*
G02*
X154600000Y-26425000I0J-250000D01*
G01*
X154600000Y-27675000D01*
G75*
G02*
X154350000Y-27925000I-250000J0D01*
G01*
X153425000Y-27925000D01*
G75*
G02*
X153175000Y-27675000I0J250000D01*
G01*
G37*
G04 #@! TD*
G04 #@! TO.C,D29*
G36*
G01*
X67450000Y-46725000D02*
X67450000Y-45475000D01*
G75*
G02*
X67700000Y-45225000I250000J0D01*
G01*
X68625000Y-45225000D01*
G75*
G02*
X68875000Y-45475000I0J-250000D01*
G01*
X68875000Y-46725000D01*
G75*
G02*
X68625000Y-46975000I-250000J0D01*
G01*
X67700000Y-46975000D01*
G75*
G02*
X67450000Y-46725000I0J250000D01*
G01*
G37*
G36*
G01*
X64475000Y-46725000D02*
X64475000Y-45475000D01*
G75*
G02*
X64725000Y-45225000I250000J0D01*
G01*
X65650000Y-45225000D01*
G75*
G02*
X65900000Y-45475000I0J-250000D01*
G01*
X65900000Y-46725000D01*
G75*
G02*
X65650000Y-46975000I-250000J0D01*
G01*
X64725000Y-46975000D01*
G75*
G02*
X64475000Y-46725000I0J250000D01*
G01*
G37*
G04 #@! TD*
G04 #@! TO.C,D25*
G36*
G01*
X207350000Y-27675000D02*
X207350000Y-26425000D01*
G75*
G02*
X207600000Y-26175000I250000J0D01*
G01*
X208525000Y-26175000D01*
G75*
G02*
X208775000Y-26425000I0J-250000D01*
G01*
X208775000Y-27675000D01*
G75*
G02*
X208525000Y-27925000I-250000J0D01*
G01*
X207600000Y-27925000D01*
G75*
G02*
X207350000Y-27675000I0J250000D01*
G01*
G37*
G36*
G01*
X210325000Y-27675000D02*
X210325000Y-26425000D01*
G75*
G02*
X210575000Y-26175000I250000J0D01*
G01*
X211500000Y-26175000D01*
G75*
G02*
X211750000Y-26425000I0J-250000D01*
G01*
X211750000Y-27675000D01*
G75*
G02*
X211500000Y-27925000I-250000J0D01*
G01*
X210575000Y-27925000D01*
G75*
G02*
X210325000Y-27675000I0J250000D01*
G01*
G37*
G04 #@! TD*
G04 #@! TO.C,D33*
G36*
G01*
X140675000Y-46725000D02*
X140675000Y-45475000D01*
G75*
G02*
X140925000Y-45225000I250000J0D01*
G01*
X141850000Y-45225000D01*
G75*
G02*
X142100000Y-45475000I0J-250000D01*
G01*
X142100000Y-46725000D01*
G75*
G02*
X141850000Y-46975000I-250000J0D01*
G01*
X140925000Y-46975000D01*
G75*
G02*
X140675000Y-46725000I0J250000D01*
G01*
G37*
G36*
G01*
X143650000Y-46725000D02*
X143650000Y-45475000D01*
G75*
G02*
X143900000Y-45225000I250000J0D01*
G01*
X144825000Y-45225000D01*
G75*
G02*
X145075000Y-45475000I0J-250000D01*
G01*
X145075000Y-46725000D01*
G75*
G02*
X144825000Y-46975000I-250000J0D01*
G01*
X143900000Y-46975000D01*
G75*
G02*
X143650000Y-46725000I0J250000D01*
G01*
G37*
G04 #@! TD*
G04 #@! TO.C,D20*
G36*
G01*
X112100000Y-27675000D02*
X112100000Y-26425000D01*
G75*
G02*
X112350000Y-26175000I250000J0D01*
G01*
X113275000Y-26175000D01*
G75*
G02*
X113525000Y-26425000I0J-250000D01*
G01*
X113525000Y-27675000D01*
G75*
G02*
X113275000Y-27925000I-250000J0D01*
G01*
X112350000Y-27925000D01*
G75*
G02*
X112100000Y-27675000I0J250000D01*
G01*
G37*
G36*
G01*
X115075000Y-27675000D02*
X115075000Y-26425000D01*
G75*
G02*
X115325000Y-26175000I250000J0D01*
G01*
X116250000Y-26175000D01*
G75*
G02*
X116500000Y-26425000I0J-250000D01*
G01*
X116500000Y-27675000D01*
G75*
G02*
X116250000Y-27925000I-250000J0D01*
G01*
X115325000Y-27925000D01*
G75*
G02*
X115075000Y-27675000I0J250000D01*
G01*
G37*
G04 #@! TD*
G04 #@! TO.C,D34*
G36*
G01*
X162700000Y-46725000D02*
X162700000Y-45475000D01*
G75*
G02*
X162950000Y-45225000I250000J0D01*
G01*
X163875000Y-45225000D01*
G75*
G02*
X164125000Y-45475000I0J-250000D01*
G01*
X164125000Y-46725000D01*
G75*
G02*
X163875000Y-46975000I-250000J0D01*
G01*
X162950000Y-46975000D01*
G75*
G02*
X162700000Y-46725000I0J250000D01*
G01*
G37*
G36*
G01*
X159725000Y-46725000D02*
X159725000Y-45475000D01*
G75*
G02*
X159975000Y-45225000I250000J0D01*
G01*
X160900000Y-45225000D01*
G75*
G02*
X161150000Y-45475000I0J-250000D01*
G01*
X161150000Y-46725000D01*
G75*
G02*
X160900000Y-46975000I-250000J0D01*
G01*
X159975000Y-46975000D01*
G75*
G02*
X159725000Y-46725000I0J250000D01*
G01*
G37*
G04 #@! TD*
G04 #@! TO.C,D37*
G36*
G01*
X216875000Y-46725000D02*
X216875000Y-45475000D01*
G75*
G02*
X217125000Y-45225000I250000J0D01*
G01*
X218050000Y-45225000D01*
G75*
G02*
X218300000Y-45475000I0J-250000D01*
G01*
X218300000Y-46725000D01*
G75*
G02*
X218050000Y-46975000I-250000J0D01*
G01*
X217125000Y-46975000D01*
G75*
G02*
X216875000Y-46725000I0J250000D01*
G01*
G37*
G36*
G01*
X219850000Y-46725000D02*
X219850000Y-45475000D01*
G75*
G02*
X220100000Y-45225000I250000J0D01*
G01*
X221025000Y-45225000D01*
G75*
G02*
X221275000Y-45475000I0J-250000D01*
G01*
X221275000Y-46725000D01*
G75*
G02*
X221025000Y-46975000I-250000J0D01*
G01*
X220100000Y-46975000D01*
G75*
G02*
X219850000Y-46725000I0J250000D01*
G01*
G37*
G04 #@! TD*
G04 #@! TO.C,D24*
G36*
G01*
X188300000Y-27675000D02*
X188300000Y-26425000D01*
G75*
G02*
X188550000Y-26175000I250000J0D01*
G01*
X189475000Y-26175000D01*
G75*
G02*
X189725000Y-26425000I0J-250000D01*
G01*
X189725000Y-27675000D01*
G75*
G02*
X189475000Y-27925000I-250000J0D01*
G01*
X188550000Y-27925000D01*
G75*
G02*
X188300000Y-27675000I0J250000D01*
G01*
G37*
G36*
G01*
X191275000Y-27675000D02*
X191275000Y-26425000D01*
G75*
G02*
X191525000Y-26175000I250000J0D01*
G01*
X192450000Y-26175000D01*
G75*
G02*
X192700000Y-26425000I0J-250000D01*
G01*
X192700000Y-27675000D01*
G75*
G02*
X192450000Y-27925000I-250000J0D01*
G01*
X191525000Y-27925000D01*
G75*
G02*
X191275000Y-27675000I0J250000D01*
G01*
G37*
G04 #@! TD*
G04 #@! TO.C,D39*
G36*
G01*
X31137500Y-65775000D02*
X31137500Y-64525000D01*
G75*
G02*
X31387500Y-64275000I250000J0D01*
G01*
X32312500Y-64275000D01*
G75*
G02*
X32562500Y-64525000I0J-250000D01*
G01*
X32562500Y-65775000D01*
G75*
G02*
X32312500Y-66025000I-250000J0D01*
G01*
X31387500Y-66025000D01*
G75*
G02*
X31137500Y-65775000I0J250000D01*
G01*
G37*
G36*
G01*
X34112500Y-65775000D02*
X34112500Y-64525000D01*
G75*
G02*
X34362500Y-64275000I250000J0D01*
G01*
X35287500Y-64275000D01*
G75*
G02*
X35537500Y-64525000I0J-250000D01*
G01*
X35537500Y-65775000D01*
G75*
G02*
X35287500Y-66025000I-250000J0D01*
G01*
X34362500Y-66025000D01*
G75*
G02*
X34112500Y-65775000I0J250000D01*
G01*
G37*
G04 #@! TD*
G04 #@! TO.C,D42*
G36*
G01*
X88287500Y-65775000D02*
X88287500Y-64525000D01*
G75*
G02*
X88537500Y-64275000I250000J0D01*
G01*
X89462500Y-64275000D01*
G75*
G02*
X89712500Y-64525000I0J-250000D01*
G01*
X89712500Y-65775000D01*
G75*
G02*
X89462500Y-66025000I-250000J0D01*
G01*
X88537500Y-66025000D01*
G75*
G02*
X88287500Y-65775000I0J250000D01*
G01*
G37*
G36*
G01*
X91262500Y-65775000D02*
X91262500Y-64525000D01*
G75*
G02*
X91512500Y-64275000I250000J0D01*
G01*
X92437500Y-64275000D01*
G75*
G02*
X92687500Y-64525000I0J-250000D01*
G01*
X92687500Y-65775000D01*
G75*
G02*
X92437500Y-66025000I-250000J0D01*
G01*
X91512500Y-66025000D01*
G75*
G02*
X91262500Y-65775000I0J250000D01*
G01*
G37*
G04 #@! TD*
G04 #@! TO.C,D50*
G36*
G01*
X43637500Y-84825000D02*
X43637500Y-83575000D01*
G75*
G02*
X43887500Y-83325000I250000J0D01*
G01*
X44812500Y-83325000D01*
G75*
G02*
X45062500Y-83575000I0J-250000D01*
G01*
X45062500Y-84825000D01*
G75*
G02*
X44812500Y-85075000I-250000J0D01*
G01*
X43887500Y-85075000D01*
G75*
G02*
X43637500Y-84825000I0J250000D01*
G01*
G37*
G36*
G01*
X40662500Y-84825000D02*
X40662500Y-83575000D01*
G75*
G02*
X40912500Y-83325000I250000J0D01*
G01*
X41837500Y-83325000D01*
G75*
G02*
X42087500Y-83575000I0J-250000D01*
G01*
X42087500Y-84825000D01*
G75*
G02*
X41837500Y-85075000I-250000J0D01*
G01*
X40912500Y-85075000D01*
G75*
G02*
X40662500Y-84825000I0J250000D01*
G01*
G37*
G04 #@! TD*
G04 #@! TO.C,D51*
G36*
G01*
X62687500Y-84825000D02*
X62687500Y-83575000D01*
G75*
G02*
X62937500Y-83325000I250000J0D01*
G01*
X63862500Y-83325000D01*
G75*
G02*
X64112500Y-83575000I0J-250000D01*
G01*
X64112500Y-84825000D01*
G75*
G02*
X63862500Y-85075000I-250000J0D01*
G01*
X62937500Y-85075000D01*
G75*
G02*
X62687500Y-84825000I0J250000D01*
G01*
G37*
G36*
G01*
X59712500Y-84825000D02*
X59712500Y-83575000D01*
G75*
G02*
X59962500Y-83325000I250000J0D01*
G01*
X60887500Y-83325000D01*
G75*
G02*
X61137500Y-83575000I0J-250000D01*
G01*
X61137500Y-84825000D01*
G75*
G02*
X60887500Y-85075000I-250000J0D01*
G01*
X59962500Y-85075000D01*
G75*
G02*
X59712500Y-84825000I0J250000D01*
G01*
G37*
G04 #@! TD*
G04 #@! TO.C,D59*
G36*
G01*
X215087500Y-84825000D02*
X215087500Y-83575000D01*
G75*
G02*
X215337500Y-83325000I250000J0D01*
G01*
X216262500Y-83325000D01*
G75*
G02*
X216512500Y-83575000I0J-250000D01*
G01*
X216512500Y-84825000D01*
G75*
G02*
X216262500Y-85075000I-250000J0D01*
G01*
X215337500Y-85075000D01*
G75*
G02*
X215087500Y-84825000I0J250000D01*
G01*
G37*
G36*
G01*
X212112500Y-84825000D02*
X212112500Y-83575000D01*
G75*
G02*
X212362500Y-83325000I250000J0D01*
G01*
X213287500Y-83325000D01*
G75*
G02*
X213537500Y-83575000I0J-250000D01*
G01*
X213537500Y-84825000D01*
G75*
G02*
X213287500Y-85075000I-250000J0D01*
G01*
X212362500Y-85075000D01*
G75*
G02*
X212112500Y-84825000I0J250000D01*
G01*
G37*
G04 #@! TD*
G04 #@! TO.C,D63*
G36*
G01*
X135912500Y-103875000D02*
X135912500Y-102625000D01*
G75*
G02*
X136162500Y-102375000I250000J0D01*
G01*
X137087500Y-102375000D01*
G75*
G02*
X137337500Y-102625000I0J-250000D01*
G01*
X137337500Y-103875000D01*
G75*
G02*
X137087500Y-104125000I-250000J0D01*
G01*
X136162500Y-104125000D01*
G75*
G02*
X135912500Y-103875000I0J250000D01*
G01*
G37*
G36*
G01*
X138887500Y-103875000D02*
X138887500Y-102625000D01*
G75*
G02*
X139137500Y-102375000I250000J0D01*
G01*
X140062500Y-102375000D01*
G75*
G02*
X140312500Y-102625000I0J-250000D01*
G01*
X140312500Y-103875000D01*
G75*
G02*
X140062500Y-104125000I-250000J0D01*
G01*
X139137500Y-104125000D01*
G75*
G02*
X138887500Y-103875000I0J250000D01*
G01*
G37*
G04 #@! TD*
G04 #@! TO.C,D43*
G36*
G01*
X107337500Y-65775000D02*
X107337500Y-64525000D01*
G75*
G02*
X107587500Y-64275000I250000J0D01*
G01*
X108512500Y-64275000D01*
G75*
G02*
X108762500Y-64525000I0J-250000D01*
G01*
X108762500Y-65775000D01*
G75*
G02*
X108512500Y-66025000I-250000J0D01*
G01*
X107587500Y-66025000D01*
G75*
G02*
X107337500Y-65775000I0J250000D01*
G01*
G37*
G36*
G01*
X110312500Y-65775000D02*
X110312500Y-64525000D01*
G75*
G02*
X110562500Y-64275000I250000J0D01*
G01*
X111487500Y-64275000D01*
G75*
G02*
X111737500Y-64525000I0J-250000D01*
G01*
X111737500Y-65775000D01*
G75*
G02*
X111487500Y-66025000I-250000J0D01*
G01*
X110562500Y-66025000D01*
G75*
G02*
X110312500Y-65775000I0J250000D01*
G01*
G37*
G04 #@! TD*
G04 #@! TO.C,D44*
G36*
G01*
X126387500Y-65775000D02*
X126387500Y-64525000D01*
G75*
G02*
X126637500Y-64275000I250000J0D01*
G01*
X127562500Y-64275000D01*
G75*
G02*
X127812500Y-64525000I0J-250000D01*
G01*
X127812500Y-65775000D01*
G75*
G02*
X127562500Y-66025000I-250000J0D01*
G01*
X126637500Y-66025000D01*
G75*
G02*
X126387500Y-65775000I0J250000D01*
G01*
G37*
G36*
G01*
X129362500Y-65775000D02*
X129362500Y-64525000D01*
G75*
G02*
X129612500Y-64275000I250000J0D01*
G01*
X130537500Y-64275000D01*
G75*
G02*
X130787500Y-64525000I0J-250000D01*
G01*
X130787500Y-65775000D01*
G75*
G02*
X130537500Y-66025000I-250000J0D01*
G01*
X129612500Y-66025000D01*
G75*
G02*
X129362500Y-65775000I0J250000D01*
G01*
G37*
G04 #@! TD*
G04 #@! TO.C,D64*
G36*
G01*
X154962500Y-103875000D02*
X154962500Y-102625000D01*
G75*
G02*
X155212500Y-102375000I250000J0D01*
G01*
X156137500Y-102375000D01*
G75*
G02*
X156387500Y-102625000I0J-250000D01*
G01*
X156387500Y-103875000D01*
G75*
G02*
X156137500Y-104125000I-250000J0D01*
G01*
X155212500Y-104125000D01*
G75*
G02*
X154962500Y-103875000I0J250000D01*
G01*
G37*
G36*
G01*
X157937500Y-103875000D02*
X157937500Y-102625000D01*
G75*
G02*
X158187500Y-102375000I250000J0D01*
G01*
X159112500Y-102375000D01*
G75*
G02*
X159362500Y-102625000I0J-250000D01*
G01*
X159362500Y-103875000D01*
G75*
G02*
X159112500Y-104125000I-250000J0D01*
G01*
X158187500Y-104125000D01*
G75*
G02*
X157937500Y-103875000I0J250000D01*
G01*
G37*
G04 #@! TD*
G04 #@! TO.C,D65*
G36*
G01*
X248425000Y-84825000D02*
X248425000Y-83575000D01*
G75*
G02*
X248675000Y-83325000I250000J0D01*
G01*
X249600000Y-83325000D01*
G75*
G02*
X249850000Y-83575000I0J-250000D01*
G01*
X249850000Y-84825000D01*
G75*
G02*
X249600000Y-85075000I-250000J0D01*
G01*
X248675000Y-85075000D01*
G75*
G02*
X248425000Y-84825000I0J250000D01*
G01*
G37*
G36*
G01*
X245450000Y-84825000D02*
X245450000Y-83575000D01*
G75*
G02*
X245700000Y-83325000I250000J0D01*
G01*
X246625000Y-83325000D01*
G75*
G02*
X246875000Y-83575000I0J-250000D01*
G01*
X246875000Y-84825000D01*
G75*
G02*
X246625000Y-85075000I-250000J0D01*
G01*
X245700000Y-85075000D01*
G75*
G02*
X245450000Y-84825000I0J250000D01*
G01*
G37*
G04 #@! TD*
G04 #@! TO.C,D48*
G36*
G01*
X205562500Y-65775000D02*
X205562500Y-64525000D01*
G75*
G02*
X205812500Y-64275000I250000J0D01*
G01*
X206737500Y-64275000D01*
G75*
G02*
X206987500Y-64525000I0J-250000D01*
G01*
X206987500Y-65775000D01*
G75*
G02*
X206737500Y-66025000I-250000J0D01*
G01*
X205812500Y-66025000D01*
G75*
G02*
X205562500Y-65775000I0J250000D01*
G01*
G37*
G36*
G01*
X202587500Y-65775000D02*
X202587500Y-64525000D01*
G75*
G02*
X202837500Y-64275000I250000J0D01*
G01*
X203762500Y-64275000D01*
G75*
G02*
X204012500Y-64525000I0J-250000D01*
G01*
X204012500Y-65775000D01*
G75*
G02*
X203762500Y-66025000I-250000J0D01*
G01*
X202837500Y-66025000D01*
G75*
G02*
X202587500Y-65775000I0J250000D01*
G01*
G37*
G04 #@! TD*
G04 #@! TO.C,D61*
G36*
G01*
X97812500Y-103875000D02*
X97812500Y-102625000D01*
G75*
G02*
X98062500Y-102375000I250000J0D01*
G01*
X98987500Y-102375000D01*
G75*
G02*
X99237500Y-102625000I0J-250000D01*
G01*
X99237500Y-103875000D01*
G75*
G02*
X98987500Y-104125000I-250000J0D01*
G01*
X98062500Y-104125000D01*
G75*
G02*
X97812500Y-103875000I0J250000D01*
G01*
G37*
G36*
G01*
X100787500Y-103875000D02*
X100787500Y-102625000D01*
G75*
G02*
X101037500Y-102375000I250000J0D01*
G01*
X101962500Y-102375000D01*
G75*
G02*
X102212500Y-102625000I0J-250000D01*
G01*
X102212500Y-103875000D01*
G75*
G02*
X101962500Y-104125000I-250000J0D01*
G01*
X101037500Y-104125000D01*
G75*
G02*
X100787500Y-103875000I0J250000D01*
G01*
G37*
G04 #@! TD*
G04 #@! TO.C,D62*
G36*
G01*
X116862500Y-103875000D02*
X116862500Y-102625000D01*
G75*
G02*
X117112500Y-102375000I250000J0D01*
G01*
X118037500Y-102375000D01*
G75*
G02*
X118287500Y-102625000I0J-250000D01*
G01*
X118287500Y-103875000D01*
G75*
G02*
X118037500Y-104125000I-250000J0D01*
G01*
X117112500Y-104125000D01*
G75*
G02*
X116862500Y-103875000I0J250000D01*
G01*
G37*
G36*
G01*
X119837500Y-103875000D02*
X119837500Y-102625000D01*
G75*
G02*
X120087500Y-102375000I250000J0D01*
G01*
X121012500Y-102375000D01*
G75*
G02*
X121262500Y-102625000I0J-250000D01*
G01*
X121262500Y-103875000D01*
G75*
G02*
X121012500Y-104125000I-250000J0D01*
G01*
X120087500Y-104125000D01*
G75*
G02*
X119837500Y-103875000I0J250000D01*
G01*
G37*
G04 #@! TD*
G04 #@! TO.C,D66*
G36*
G01*
X229375000Y-103875000D02*
X229375000Y-102625000D01*
G75*
G02*
X229625000Y-102375000I250000J0D01*
G01*
X230550000Y-102375000D01*
G75*
G02*
X230800000Y-102625000I0J-250000D01*
G01*
X230800000Y-103875000D01*
G75*
G02*
X230550000Y-104125000I-250000J0D01*
G01*
X229625000Y-104125000D01*
G75*
G02*
X229375000Y-103875000I0J250000D01*
G01*
G37*
G36*
G01*
X226400000Y-103875000D02*
X226400000Y-102625000D01*
G75*
G02*
X226650000Y-102375000I250000J0D01*
G01*
X227575000Y-102375000D01*
G75*
G02*
X227825000Y-102625000I0J-250000D01*
G01*
X227825000Y-103875000D01*
G75*
G02*
X227575000Y-104125000I-250000J0D01*
G01*
X226650000Y-104125000D01*
G75*
G02*
X226400000Y-103875000I0J250000D01*
G01*
G37*
G04 #@! TD*
G04 #@! TO.C,D60*
G36*
G01*
X81737500Y-103875000D02*
X81737500Y-102625000D01*
G75*
G02*
X81987500Y-102375000I250000J0D01*
G01*
X82912500Y-102375000D01*
G75*
G02*
X83162500Y-102625000I0J-250000D01*
G01*
X83162500Y-103875000D01*
G75*
G02*
X82912500Y-104125000I-250000J0D01*
G01*
X81987500Y-104125000D01*
G75*
G02*
X81737500Y-103875000I0J250000D01*
G01*
G37*
G36*
G01*
X78762500Y-103875000D02*
X78762500Y-102625000D01*
G75*
G02*
X79012500Y-102375000I250000J0D01*
G01*
X79937500Y-102375000D01*
G75*
G02*
X80187500Y-102625000I0J-250000D01*
G01*
X80187500Y-103875000D01*
G75*
G02*
X79937500Y-104125000I-250000J0D01*
G01*
X79012500Y-104125000D01*
G75*
G02*
X78762500Y-103875000I0J250000D01*
G01*
G37*
G04 #@! TD*
G04 #@! TO.C,D67*
G36*
G01*
X248425000Y-103875000D02*
X248425000Y-102625000D01*
G75*
G02*
X248675000Y-102375000I250000J0D01*
G01*
X249600000Y-102375000D01*
G75*
G02*
X249850000Y-102625000I0J-250000D01*
G01*
X249850000Y-103875000D01*
G75*
G02*
X249600000Y-104125000I-250000J0D01*
G01*
X248675000Y-104125000D01*
G75*
G02*
X248425000Y-103875000I0J250000D01*
G01*
G37*
G36*
G01*
X245450000Y-103875000D02*
X245450000Y-102625000D01*
G75*
G02*
X245700000Y-102375000I250000J0D01*
G01*
X246625000Y-102375000D01*
G75*
G02*
X246875000Y-102625000I0J-250000D01*
G01*
X246875000Y-103875000D01*
G75*
G02*
X246625000Y-104125000I-250000J0D01*
G01*
X245700000Y-104125000D01*
G75*
G02*
X245450000Y-103875000I0J250000D01*
G01*
G37*
G04 #@! TD*
G04 #@! TO.C,D56*
G36*
G01*
X154962500Y-84825000D02*
X154962500Y-83575000D01*
G75*
G02*
X155212500Y-83325000I250000J0D01*
G01*
X156137500Y-83325000D01*
G75*
G02*
X156387500Y-83575000I0J-250000D01*
G01*
X156387500Y-84825000D01*
G75*
G02*
X156137500Y-85075000I-250000J0D01*
G01*
X155212500Y-85075000D01*
G75*
G02*
X154962500Y-84825000I0J250000D01*
G01*
G37*
G36*
G01*
X157937500Y-84825000D02*
X157937500Y-83575000D01*
G75*
G02*
X158187500Y-83325000I250000J0D01*
G01*
X159112500Y-83325000D01*
G75*
G02*
X159362500Y-83575000I0J-250000D01*
G01*
X159362500Y-84825000D01*
G75*
G02*
X159112500Y-85075000I-250000J0D01*
G01*
X158187500Y-85075000D01*
G75*
G02*
X157937500Y-84825000I0J250000D01*
G01*
G37*
G04 #@! TD*
G04 #@! TO.C,D45*
G36*
G01*
X145437500Y-65775000D02*
X145437500Y-64525000D01*
G75*
G02*
X145687500Y-64275000I250000J0D01*
G01*
X146612500Y-64275000D01*
G75*
G02*
X146862500Y-64525000I0J-250000D01*
G01*
X146862500Y-65775000D01*
G75*
G02*
X146612500Y-66025000I-250000J0D01*
G01*
X145687500Y-66025000D01*
G75*
G02*
X145437500Y-65775000I0J250000D01*
G01*
G37*
G36*
G01*
X148412500Y-65775000D02*
X148412500Y-64525000D01*
G75*
G02*
X148662500Y-64275000I250000J0D01*
G01*
X149587500Y-64275000D01*
G75*
G02*
X149837500Y-64525000I0J-250000D01*
G01*
X149837500Y-65775000D01*
G75*
G02*
X149587500Y-66025000I-250000J0D01*
G01*
X148662500Y-66025000D01*
G75*
G02*
X148412500Y-65775000I0J250000D01*
G01*
G37*
G04 #@! TD*
G04 #@! TO.C,D58*
G36*
G01*
X193062500Y-84825000D02*
X193062500Y-83575000D01*
G75*
G02*
X193312500Y-83325000I250000J0D01*
G01*
X194237500Y-83325000D01*
G75*
G02*
X194487500Y-83575000I0J-250000D01*
G01*
X194487500Y-84825000D01*
G75*
G02*
X194237500Y-85075000I-250000J0D01*
G01*
X193312500Y-85075000D01*
G75*
G02*
X193062500Y-84825000I0J250000D01*
G01*
G37*
G36*
G01*
X196037500Y-84825000D02*
X196037500Y-83575000D01*
G75*
G02*
X196287500Y-83325000I250000J0D01*
G01*
X197212500Y-83325000D01*
G75*
G02*
X197462500Y-83575000I0J-250000D01*
G01*
X197462500Y-84825000D01*
G75*
G02*
X197212500Y-85075000I-250000J0D01*
G01*
X196287500Y-85075000D01*
G75*
G02*
X196037500Y-84825000I0J250000D01*
G01*
G37*
G04 #@! TD*
G04 #@! TO.C,D46*
G36*
G01*
X167462500Y-65775000D02*
X167462500Y-64525000D01*
G75*
G02*
X167712500Y-64275000I250000J0D01*
G01*
X168637500Y-64275000D01*
G75*
G02*
X168887500Y-64525000I0J-250000D01*
G01*
X168887500Y-65775000D01*
G75*
G02*
X168637500Y-66025000I-250000J0D01*
G01*
X167712500Y-66025000D01*
G75*
G02*
X167462500Y-65775000I0J250000D01*
G01*
G37*
G36*
G01*
X164487500Y-65775000D02*
X164487500Y-64525000D01*
G75*
G02*
X164737500Y-64275000I250000J0D01*
G01*
X165662500Y-64275000D01*
G75*
G02*
X165912500Y-64525000I0J-250000D01*
G01*
X165912500Y-65775000D01*
G75*
G02*
X165662500Y-66025000I-250000J0D01*
G01*
X164737500Y-66025000D01*
G75*
G02*
X164487500Y-65775000I0J250000D01*
G01*
G37*
G04 #@! TD*
G04 #@! TO.C,D53*
G36*
G01*
X97812500Y-84825000D02*
X97812500Y-83575000D01*
G75*
G02*
X98062500Y-83325000I250000J0D01*
G01*
X98987500Y-83325000D01*
G75*
G02*
X99237500Y-83575000I0J-250000D01*
G01*
X99237500Y-84825000D01*
G75*
G02*
X98987500Y-85075000I-250000J0D01*
G01*
X98062500Y-85075000D01*
G75*
G02*
X97812500Y-84825000I0J250000D01*
G01*
G37*
G36*
G01*
X100787500Y-84825000D02*
X100787500Y-83575000D01*
G75*
G02*
X101037500Y-83325000I250000J0D01*
G01*
X101962500Y-83325000D01*
G75*
G02*
X102212500Y-83575000I0J-250000D01*
G01*
X102212500Y-84825000D01*
G75*
G02*
X101962500Y-85075000I-250000J0D01*
G01*
X101037500Y-85075000D01*
G75*
G02*
X100787500Y-84825000I0J250000D01*
G01*
G37*
G04 #@! TD*
G04 #@! TO.C,D55*
G36*
G01*
X135912500Y-84825000D02*
X135912500Y-83575000D01*
G75*
G02*
X136162500Y-83325000I250000J0D01*
G01*
X137087500Y-83325000D01*
G75*
G02*
X137337500Y-83575000I0J-250000D01*
G01*
X137337500Y-84825000D01*
G75*
G02*
X137087500Y-85075000I-250000J0D01*
G01*
X136162500Y-85075000D01*
G75*
G02*
X135912500Y-84825000I0J250000D01*
G01*
G37*
G36*
G01*
X138887500Y-84825000D02*
X138887500Y-83575000D01*
G75*
G02*
X139137500Y-83325000I250000J0D01*
G01*
X140062500Y-83325000D01*
G75*
G02*
X140312500Y-83575000I0J-250000D01*
G01*
X140312500Y-84825000D01*
G75*
G02*
X140062500Y-85075000I-250000J0D01*
G01*
X139137500Y-85075000D01*
G75*
G02*
X138887500Y-84825000I0J250000D01*
G01*
G37*
G04 #@! TD*
G04 #@! TO.C,D52*
G36*
G01*
X81737500Y-84825000D02*
X81737500Y-83575000D01*
G75*
G02*
X81987500Y-83325000I250000J0D01*
G01*
X82912500Y-83325000D01*
G75*
G02*
X83162500Y-83575000I0J-250000D01*
G01*
X83162500Y-84825000D01*
G75*
G02*
X82912500Y-85075000I-250000J0D01*
G01*
X81987500Y-85075000D01*
G75*
G02*
X81737500Y-84825000I0J250000D01*
G01*
G37*
G36*
G01*
X78762500Y-84825000D02*
X78762500Y-83575000D01*
G75*
G02*
X79012500Y-83325000I250000J0D01*
G01*
X79937500Y-83325000D01*
G75*
G02*
X80187500Y-83575000I0J-250000D01*
G01*
X80187500Y-84825000D01*
G75*
G02*
X79937500Y-85075000I-250000J0D01*
G01*
X79012500Y-85075000D01*
G75*
G02*
X78762500Y-84825000I0J250000D01*
G01*
G37*
G04 #@! TD*
G04 #@! TO.C,D47*
G36*
G01*
X183537500Y-65775000D02*
X183537500Y-64525000D01*
G75*
G02*
X183787500Y-64275000I250000J0D01*
G01*
X184712500Y-64275000D01*
G75*
G02*
X184962500Y-64525000I0J-250000D01*
G01*
X184962500Y-65775000D01*
G75*
G02*
X184712500Y-66025000I-250000J0D01*
G01*
X183787500Y-66025000D01*
G75*
G02*
X183537500Y-65775000I0J250000D01*
G01*
G37*
G36*
G01*
X186512500Y-65775000D02*
X186512500Y-64525000D01*
G75*
G02*
X186762500Y-64275000I250000J0D01*
G01*
X187687500Y-64275000D01*
G75*
G02*
X187937500Y-64525000I0J-250000D01*
G01*
X187937500Y-65775000D01*
G75*
G02*
X187687500Y-66025000I-250000J0D01*
G01*
X186762500Y-66025000D01*
G75*
G02*
X186512500Y-65775000I0J250000D01*
G01*
G37*
G04 #@! TD*
G04 #@! TO.C,D41*
G36*
G01*
X72212500Y-65775000D02*
X72212500Y-64525000D01*
G75*
G02*
X72462500Y-64275000I250000J0D01*
G01*
X73387500Y-64275000D01*
G75*
G02*
X73637500Y-64525000I0J-250000D01*
G01*
X73637500Y-65775000D01*
G75*
G02*
X73387500Y-66025000I-250000J0D01*
G01*
X72462500Y-66025000D01*
G75*
G02*
X72212500Y-65775000I0J250000D01*
G01*
G37*
G36*
G01*
X69237500Y-65775000D02*
X69237500Y-64525000D01*
G75*
G02*
X69487500Y-64275000I250000J0D01*
G01*
X70412500Y-64275000D01*
G75*
G02*
X70662500Y-64525000I0J-250000D01*
G01*
X70662500Y-65775000D01*
G75*
G02*
X70412500Y-66025000I-250000J0D01*
G01*
X69487500Y-66025000D01*
G75*
G02*
X69237500Y-65775000I0J250000D01*
G01*
G37*
G04 #@! TD*
G04 #@! TO.C,D54*
G36*
G01*
X119837500Y-84825000D02*
X119837500Y-83575000D01*
G75*
G02*
X120087500Y-83325000I250000J0D01*
G01*
X121012500Y-83325000D01*
G75*
G02*
X121262500Y-83575000I0J-250000D01*
G01*
X121262500Y-84825000D01*
G75*
G02*
X121012500Y-85075000I-250000J0D01*
G01*
X120087500Y-85075000D01*
G75*
G02*
X119837500Y-84825000I0J250000D01*
G01*
G37*
G36*
G01*
X116862500Y-84825000D02*
X116862500Y-83575000D01*
G75*
G02*
X117112500Y-83325000I250000J0D01*
G01*
X118037500Y-83325000D01*
G75*
G02*
X118287500Y-83575000I0J-250000D01*
G01*
X118287500Y-84825000D01*
G75*
G02*
X118037500Y-85075000I-250000J0D01*
G01*
X117112500Y-85075000D01*
G75*
G02*
X116862500Y-84825000I0J250000D01*
G01*
G37*
G04 #@! TD*
G04 #@! TO.C,D57*
G36*
G01*
X174012500Y-84825000D02*
X174012500Y-83575000D01*
G75*
G02*
X174262500Y-83325000I250000J0D01*
G01*
X175187500Y-83325000D01*
G75*
G02*
X175437500Y-83575000I0J-250000D01*
G01*
X175437500Y-84825000D01*
G75*
G02*
X175187500Y-85075000I-250000J0D01*
G01*
X174262500Y-85075000D01*
G75*
G02*
X174012500Y-84825000I0J250000D01*
G01*
G37*
G36*
G01*
X176987500Y-84825000D02*
X176987500Y-83575000D01*
G75*
G02*
X177237500Y-83325000I250000J0D01*
G01*
X178162500Y-83325000D01*
G75*
G02*
X178412500Y-83575000I0J-250000D01*
G01*
X178412500Y-84825000D01*
G75*
G02*
X178162500Y-85075000I-250000J0D01*
G01*
X177237500Y-85075000D01*
G75*
G02*
X176987500Y-84825000I0J250000D01*
G01*
G37*
G04 #@! TD*
G04 #@! TO.C,D49*
G36*
G01*
X224612500Y-65775000D02*
X224612500Y-64525000D01*
G75*
G02*
X224862500Y-64275000I250000J0D01*
G01*
X225787500Y-64275000D01*
G75*
G02*
X226037500Y-64525000I0J-250000D01*
G01*
X226037500Y-65775000D01*
G75*
G02*
X225787500Y-66025000I-250000J0D01*
G01*
X224862500Y-66025000D01*
G75*
G02*
X224612500Y-65775000I0J250000D01*
G01*
G37*
G36*
G01*
X221637500Y-65775000D02*
X221637500Y-64525000D01*
G75*
G02*
X221887500Y-64275000I250000J0D01*
G01*
X222812500Y-64275000D01*
G75*
G02*
X223062500Y-64525000I0J-250000D01*
G01*
X223062500Y-65775000D01*
G75*
G02*
X222812500Y-66025000I-250000J0D01*
G01*
X221887500Y-66025000D01*
G75*
G02*
X221637500Y-65775000I0J250000D01*
G01*
G37*
G04 #@! TD*
G04 #@! TO.C,D602*
G36*
G01*
X9780600Y-84825000D02*
X9780600Y-83575000D01*
G75*
G02*
X10030600Y-83325000I250000J0D01*
G01*
X10955600Y-83325000D01*
G75*
G02*
X11205600Y-83575000I0J-250000D01*
G01*
X11205600Y-84825000D01*
G75*
G02*
X10955600Y-85075000I-250000J0D01*
G01*
X10030600Y-85075000D01*
G75*
G02*
X9780600Y-84825000I0J250000D01*
G01*
G37*
G36*
G01*
X12755600Y-84825000D02*
X12755600Y-83575000D01*
G75*
G02*
X13005600Y-83325000I250000J0D01*
G01*
X13930600Y-83325000D01*
G75*
G02*
X14180600Y-83575000I0J-250000D01*
G01*
X14180600Y-84825000D01*
G75*
G02*
X13930600Y-85075000I-250000J0D01*
G01*
X13005600Y-85075000D01*
G75*
G02*
X12755600Y-84825000I0J250000D01*
G01*
G37*
G04 #@! TD*
G04 #@! TO.C,D301*
G36*
G01*
X4944000Y-65775000D02*
X4944000Y-64525000D01*
G75*
G02*
X5194000Y-64275000I250000J0D01*
G01*
X6119000Y-64275000D01*
G75*
G02*
X6369000Y-64525000I0J-250000D01*
G01*
X6369000Y-65775000D01*
G75*
G02*
X6119000Y-66025000I-250000J0D01*
G01*
X5194000Y-66025000D01*
G75*
G02*
X4944000Y-65775000I0J250000D01*
G01*
G37*
G36*
G01*
X7919000Y-65775000D02*
X7919000Y-64525000D01*
G75*
G02*
X8169000Y-64275000I250000J0D01*
G01*
X9094000Y-64275000D01*
G75*
G02*
X9344000Y-64525000I0J-250000D01*
G01*
X9344000Y-65775000D01*
G75*
G02*
X9094000Y-66025000I-250000J0D01*
G01*
X8169000Y-66025000D01*
G75*
G02*
X7919000Y-65775000I0J250000D01*
G01*
G37*
G04 #@! TD*
G04 #@! TO.C,D202*
G36*
G01*
X262713000Y-46725000D02*
X262713000Y-45475000D01*
G75*
G02*
X262963000Y-45225000I250000J0D01*
G01*
X263888000Y-45225000D01*
G75*
G02*
X264138000Y-45475000I0J-250000D01*
G01*
X264138000Y-46725000D01*
G75*
G02*
X263888000Y-46975000I-250000J0D01*
G01*
X262963000Y-46975000D01*
G75*
G02*
X262713000Y-46725000I0J250000D01*
G01*
G37*
G36*
G01*
X259738000Y-46725000D02*
X259738000Y-45475000D01*
G75*
G02*
X259988000Y-45225000I250000J0D01*
G01*
X260913000Y-45225000D01*
G75*
G02*
X261163000Y-45475000I0J-250000D01*
G01*
X261163000Y-46725000D01*
G75*
G02*
X260913000Y-46975000I-250000J0D01*
G01*
X259988000Y-46975000D01*
G75*
G02*
X259738000Y-46725000I0J250000D01*
G01*
G37*
G04 #@! TD*
G04 #@! TO.C,D104*
G36*
G01*
X179368500Y-103875000D02*
X179368500Y-102625000D01*
G75*
G02*
X179618500Y-102375000I250000J0D01*
G01*
X180543500Y-102375000D01*
G75*
G02*
X180793500Y-102625000I0J-250000D01*
G01*
X180793500Y-103875000D01*
G75*
G02*
X180543500Y-104125000I-250000J0D01*
G01*
X179618500Y-104125000D01*
G75*
G02*
X179368500Y-103875000I0J250000D01*
G01*
G37*
G36*
G01*
X176393500Y-103875000D02*
X176393500Y-102625000D01*
G75*
G02*
X176643500Y-102375000I250000J0D01*
G01*
X177568500Y-102375000D01*
G75*
G02*
X177818500Y-102625000I0J-250000D01*
G01*
X177818500Y-103875000D01*
G75*
G02*
X177568500Y-104125000I-250000J0D01*
G01*
X176643500Y-104125000D01*
G75*
G02*
X176393500Y-103875000I0J250000D01*
G01*
G37*
G04 #@! TD*
G04 #@! TO.C,D201*
G36*
G01*
X5538000Y-46725000D02*
X5538000Y-45475000D01*
G75*
G02*
X5788000Y-45225000I250000J0D01*
G01*
X6713000Y-45225000D01*
G75*
G02*
X6963000Y-45475000I0J-250000D01*
G01*
X6963000Y-46725000D01*
G75*
G02*
X6713000Y-46975000I-250000J0D01*
G01*
X5788000Y-46975000D01*
G75*
G02*
X5538000Y-46725000I0J250000D01*
G01*
G37*
G36*
G01*
X2563000Y-46725000D02*
X2563000Y-45475000D01*
G75*
G02*
X2813000Y-45225000I250000J0D01*
G01*
X3738000Y-45225000D01*
G75*
G02*
X3988000Y-45475000I0J-250000D01*
G01*
X3988000Y-46725000D01*
G75*
G02*
X3738000Y-46975000I-250000J0D01*
G01*
X2813000Y-46975000D01*
G75*
G02*
X2563000Y-46725000I0J250000D01*
G01*
G37*
G04 #@! TD*
G04 #@! TO.C,D401*
G36*
G01*
X254975000Y-27675000D02*
X254975000Y-26425000D01*
G75*
G02*
X255225000Y-26175000I250000J0D01*
G01*
X256150000Y-26175000D01*
G75*
G02*
X256400000Y-26425000I0J-250000D01*
G01*
X256400000Y-27675000D01*
G75*
G02*
X256150000Y-27925000I-250000J0D01*
G01*
X255225000Y-27925000D01*
G75*
G02*
X254975000Y-27675000I0J250000D01*
G01*
G37*
G36*
G01*
X257950000Y-27675000D02*
X257950000Y-26425000D01*
G75*
G02*
X258200000Y-26175000I250000J0D01*
G01*
X259125000Y-26175000D01*
G75*
G02*
X259375000Y-26425000I0J-250000D01*
G01*
X259375000Y-27675000D01*
G75*
G02*
X259125000Y-27925000I-250000J0D01*
G01*
X258200000Y-27925000D01*
G75*
G02*
X257950000Y-27675000I0J250000D01*
G01*
G37*
G04 #@! TD*
G04 #@! TO.C,D601*
G36*
G01*
X255643100Y-65775000D02*
X255643100Y-64525000D01*
G75*
G02*
X255893100Y-64275000I250000J0D01*
G01*
X256818100Y-64275000D01*
G75*
G02*
X257068100Y-64525000I0J-250000D01*
G01*
X257068100Y-65775000D01*
G75*
G02*
X256818100Y-66025000I-250000J0D01*
G01*
X255893100Y-66025000D01*
G75*
G02*
X255643100Y-65775000I0J250000D01*
G01*
G37*
G36*
G01*
X252668100Y-65775000D02*
X252668100Y-64525000D01*
G75*
G02*
X252918100Y-64275000I250000J0D01*
G01*
X253843100Y-64275000D01*
G75*
G02*
X254093100Y-64525000I0J-250000D01*
G01*
X254093100Y-65775000D01*
G75*
G02*
X253843100Y-66025000I-250000J0D01*
G01*
X252918100Y-66025000D01*
G75*
G02*
X252668100Y-65775000I0J250000D01*
G01*
G37*
G04 #@! TD*
G04 #@! TO.C,D102*
G36*
G01*
X36493500Y-103875000D02*
X36493500Y-102625000D01*
G75*
G02*
X36743500Y-102375000I250000J0D01*
G01*
X37668500Y-102375000D01*
G75*
G02*
X37918500Y-102625000I0J-250000D01*
G01*
X37918500Y-103875000D01*
G75*
G02*
X37668500Y-104125000I-250000J0D01*
G01*
X36743500Y-104125000D01*
G75*
G02*
X36493500Y-103875000I0J250000D01*
G01*
G37*
G36*
G01*
X33518500Y-103875000D02*
X33518500Y-102625000D01*
G75*
G02*
X33768500Y-102375000I250000J0D01*
G01*
X34693500Y-102375000D01*
G75*
G02*
X34943500Y-102625000I0J-250000D01*
G01*
X34943500Y-103875000D01*
G75*
G02*
X34693500Y-104125000I-250000J0D01*
G01*
X33768500Y-104125000D01*
G75*
G02*
X33518500Y-103875000I0J250000D01*
G01*
G37*
G04 #@! TD*
G04 #@! TO.C,D68*
G36*
G01*
X267475000Y-103875000D02*
X267475000Y-102625000D01*
G75*
G02*
X267725000Y-102375000I250000J0D01*
G01*
X268650000Y-102375000D01*
G75*
G02*
X268900000Y-102625000I0J-250000D01*
G01*
X268900000Y-103875000D01*
G75*
G02*
X268650000Y-104125000I-250000J0D01*
G01*
X267725000Y-104125000D01*
G75*
G02*
X267475000Y-103875000I0J250000D01*
G01*
G37*
G36*
G01*
X264500000Y-103875000D02*
X264500000Y-102625000D01*
G75*
G02*
X264750000Y-102375000I250000J0D01*
G01*
X265675000Y-102375000D01*
G75*
G02*
X265925000Y-102625000I0J-250000D01*
G01*
X265925000Y-103875000D01*
G75*
G02*
X265675000Y-104125000I-250000J0D01*
G01*
X264750000Y-104125000D01*
G75*
G02*
X264500000Y-103875000I0J250000D01*
G01*
G37*
G04 #@! TD*
G04 #@! TO.C,D101*
G36*
G01*
X12681000Y-103875000D02*
X12681000Y-102625000D01*
G75*
G02*
X12931000Y-102375000I250000J0D01*
G01*
X13856000Y-102375000D01*
G75*
G02*
X14106000Y-102625000I0J-250000D01*
G01*
X14106000Y-103875000D01*
G75*
G02*
X13856000Y-104125000I-250000J0D01*
G01*
X12931000Y-104125000D01*
G75*
G02*
X12681000Y-103875000I0J250000D01*
G01*
G37*
G36*
G01*
X9706000Y-103875000D02*
X9706000Y-102625000D01*
G75*
G02*
X9956000Y-102375000I250000J0D01*
G01*
X10881000Y-102375000D01*
G75*
G02*
X11131000Y-102625000I0J-250000D01*
G01*
X11131000Y-103875000D01*
G75*
G02*
X10881000Y-104125000I-250000J0D01*
G01*
X9956000Y-104125000D01*
G75*
G02*
X9706000Y-103875000I0J250000D01*
G01*
G37*
G04 #@! TD*
G04 #@! TO.C,D105*
G36*
G01*
X203181000Y-103875000D02*
X203181000Y-102625000D01*
G75*
G02*
X203431000Y-102375000I250000J0D01*
G01*
X204356000Y-102375000D01*
G75*
G02*
X204606000Y-102625000I0J-250000D01*
G01*
X204606000Y-103875000D01*
G75*
G02*
X204356000Y-104125000I-250000J0D01*
G01*
X203431000Y-104125000D01*
G75*
G02*
X203181000Y-103875000I0J250000D01*
G01*
G37*
G36*
G01*
X200206000Y-103875000D02*
X200206000Y-102625000D01*
G75*
G02*
X200456000Y-102375000I250000J0D01*
G01*
X201381000Y-102375000D01*
G75*
G02*
X201631000Y-102625000I0J-250000D01*
G01*
X201631000Y-103875000D01*
G75*
G02*
X201381000Y-104125000I-250000J0D01*
G01*
X200456000Y-104125000D01*
G75*
G02*
X200206000Y-103875000I0J250000D01*
G01*
G37*
G04 #@! TD*
G04 #@! TO.C,D103*
G36*
G01*
X60306000Y-103875000D02*
X60306000Y-102625000D01*
G75*
G02*
X60556000Y-102375000I250000J0D01*
G01*
X61481000Y-102375000D01*
G75*
G02*
X61731000Y-102625000I0J-250000D01*
G01*
X61731000Y-103875000D01*
G75*
G02*
X61481000Y-104125000I-250000J0D01*
G01*
X60556000Y-104125000D01*
G75*
G02*
X60306000Y-103875000I0J250000D01*
G01*
G37*
G36*
G01*
X57331000Y-103875000D02*
X57331000Y-102625000D01*
G75*
G02*
X57581000Y-102375000I250000J0D01*
G01*
X58506000Y-102375000D01*
G75*
G02*
X58756000Y-102625000I0J-250000D01*
G01*
X58756000Y-103875000D01*
G75*
G02*
X58506000Y-104125000I-250000J0D01*
G01*
X57581000Y-104125000D01*
G75*
G02*
X57331000Y-103875000I0J250000D01*
G01*
G37*
G04 #@! TD*
G04 #@! TO.C,D6*
G36*
G01*
X96025000Y-8625000D02*
X96025000Y-7375000D01*
G75*
G02*
X96275000Y-7125000I250000J0D01*
G01*
X97200000Y-7125000D01*
G75*
G02*
X97450000Y-7375000I0J-250000D01*
G01*
X97450000Y-8625000D01*
G75*
G02*
X97200000Y-8875000I-250000J0D01*
G01*
X96275000Y-8875000D01*
G75*
G02*
X96025000Y-8625000I0J250000D01*
G01*
G37*
G36*
G01*
X93050000Y-8625000D02*
X93050000Y-7375000D01*
G75*
G02*
X93300000Y-7125000I250000J0D01*
G01*
X94225000Y-7125000D01*
G75*
G02*
X94475000Y-7375000I0J-250000D01*
G01*
X94475000Y-8625000D01*
G75*
G02*
X94225000Y-8875000I-250000J0D01*
G01*
X93300000Y-8875000D01*
G75*
G02*
X93050000Y-8625000I0J250000D01*
G01*
G37*
G04 #@! TD*
G04 #@! TO.C,D4*
G36*
G01*
X57925000Y-8625000D02*
X57925000Y-7375000D01*
G75*
G02*
X58175000Y-7125000I250000J0D01*
G01*
X59100000Y-7125000D01*
G75*
G02*
X59350000Y-7375000I0J-250000D01*
G01*
X59350000Y-8625000D01*
G75*
G02*
X59100000Y-8875000I-250000J0D01*
G01*
X58175000Y-8875000D01*
G75*
G02*
X57925000Y-8625000I0J250000D01*
G01*
G37*
G36*
G01*
X54950000Y-8625000D02*
X54950000Y-7375000D01*
G75*
G02*
X55200000Y-7125000I250000J0D01*
G01*
X56125000Y-7125000D01*
G75*
G02*
X56375000Y-7375000I0J-250000D01*
G01*
X56375000Y-8625000D01*
G75*
G02*
X56125000Y-8875000I-250000J0D01*
G01*
X55200000Y-8875000D01*
G75*
G02*
X54950000Y-8625000I0J250000D01*
G01*
G37*
G04 #@! TD*
G04 #@! TO.C,D8*
G36*
G01*
X134125000Y-8625000D02*
X134125000Y-7375000D01*
G75*
G02*
X134375000Y-7125000I250000J0D01*
G01*
X135300000Y-7125000D01*
G75*
G02*
X135550000Y-7375000I0J-250000D01*
G01*
X135550000Y-8625000D01*
G75*
G02*
X135300000Y-8875000I-250000J0D01*
G01*
X134375000Y-8875000D01*
G75*
G02*
X134125000Y-8625000I0J250000D01*
G01*
G37*
G36*
G01*
X131150000Y-8625000D02*
X131150000Y-7375000D01*
G75*
G02*
X131400000Y-7125000I250000J0D01*
G01*
X132325000Y-7125000D01*
G75*
G02*
X132575000Y-7375000I0J-250000D01*
G01*
X132575000Y-8625000D01*
G75*
G02*
X132325000Y-8875000I-250000J0D01*
G01*
X131400000Y-8875000D01*
G75*
G02*
X131150000Y-8625000I0J250000D01*
G01*
G37*
G04 #@! TD*
G04 #@! TO.C,D2*
G36*
G01*
X19825000Y-8625000D02*
X19825000Y-7375000D01*
G75*
G02*
X20075000Y-7125000I250000J0D01*
G01*
X21000000Y-7125000D01*
G75*
G02*
X21250000Y-7375000I0J-250000D01*
G01*
X21250000Y-8625000D01*
G75*
G02*
X21000000Y-8875000I-250000J0D01*
G01*
X20075000Y-8875000D01*
G75*
G02*
X19825000Y-8625000I0J250000D01*
G01*
G37*
G36*
G01*
X16850000Y-8625000D02*
X16850000Y-7375000D01*
G75*
G02*
X17100000Y-7125000I250000J0D01*
G01*
X18025000Y-7125000D01*
G75*
G02*
X18275000Y-7375000I0J-250000D01*
G01*
X18275000Y-8625000D01*
G75*
G02*
X18025000Y-8875000I-250000J0D01*
G01*
X17100000Y-8875000D01*
G75*
G02*
X16850000Y-8625000I0J250000D01*
G01*
G37*
G04 #@! TD*
G04 #@! TO.C,D3*
G36*
G01*
X35900000Y-8625000D02*
X35900000Y-7375000D01*
G75*
G02*
X36150000Y-7125000I250000J0D01*
G01*
X37075000Y-7125000D01*
G75*
G02*
X37325000Y-7375000I0J-250000D01*
G01*
X37325000Y-8625000D01*
G75*
G02*
X37075000Y-8875000I-250000J0D01*
G01*
X36150000Y-8875000D01*
G75*
G02*
X35900000Y-8625000I0J250000D01*
G01*
G37*
G36*
G01*
X38875000Y-8625000D02*
X38875000Y-7375000D01*
G75*
G02*
X39125000Y-7125000I250000J0D01*
G01*
X40050000Y-7125000D01*
G75*
G02*
X40300000Y-7375000I0J-250000D01*
G01*
X40300000Y-8625000D01*
G75*
G02*
X40050000Y-8875000I-250000J0D01*
G01*
X39125000Y-8875000D01*
G75*
G02*
X38875000Y-8625000I0J250000D01*
G01*
G37*
G04 #@! TD*
G04 #@! TO.C,D1*
G36*
G01*
X775000Y-8625000D02*
X775000Y-7375000D01*
G75*
G02*
X1025000Y-7125000I250000J0D01*
G01*
X1950000Y-7125000D01*
G75*
G02*
X2200000Y-7375000I0J-250000D01*
G01*
X2200000Y-8625000D01*
G75*
G02*
X1950000Y-8875000I-250000J0D01*
G01*
X1025000Y-8875000D01*
G75*
G02*
X775000Y-8625000I0J250000D01*
G01*
G37*
G36*
G01*
X-2200000Y-8625000D02*
X-2200000Y-7375000D01*
G75*
G02*
X-1950000Y-7125000I250000J0D01*
G01*
X-1025000Y-7125000D01*
G75*
G02*
X-775000Y-7375000I0J-250000D01*
G01*
X-775000Y-8625000D01*
G75*
G02*
X-1025000Y-8875000I-250000J0D01*
G01*
X-1950000Y-8875000D01*
G75*
G02*
X-2200000Y-8625000I0J250000D01*
G01*
G37*
G04 #@! TD*
G04 #@! TO.C,D7*
G36*
G01*
X112100000Y-8625000D02*
X112100000Y-7375000D01*
G75*
G02*
X112350000Y-7125000I250000J0D01*
G01*
X113275000Y-7125000D01*
G75*
G02*
X113525000Y-7375000I0J-250000D01*
G01*
X113525000Y-8625000D01*
G75*
G02*
X113275000Y-8875000I-250000J0D01*
G01*
X112350000Y-8875000D01*
G75*
G02*
X112100000Y-8625000I0J250000D01*
G01*
G37*
G36*
G01*
X115075000Y-8625000D02*
X115075000Y-7375000D01*
G75*
G02*
X115325000Y-7125000I250000J0D01*
G01*
X116250000Y-7125000D01*
G75*
G02*
X116500000Y-7375000I0J-250000D01*
G01*
X116500000Y-8625000D01*
G75*
G02*
X116250000Y-8875000I-250000J0D01*
G01*
X115325000Y-8875000D01*
G75*
G02*
X115075000Y-8625000I0J250000D01*
G01*
G37*
G04 #@! TD*
G04 #@! TO.C,D9*
G36*
G01*
X150200000Y-8625000D02*
X150200000Y-7375000D01*
G75*
G02*
X150450000Y-7125000I250000J0D01*
G01*
X151375000Y-7125000D01*
G75*
G02*
X151625000Y-7375000I0J-250000D01*
G01*
X151625000Y-8625000D01*
G75*
G02*
X151375000Y-8875000I-250000J0D01*
G01*
X150450000Y-8875000D01*
G75*
G02*
X150200000Y-8625000I0J250000D01*
G01*
G37*
G36*
G01*
X153175000Y-8625000D02*
X153175000Y-7375000D01*
G75*
G02*
X153425000Y-7125000I250000J0D01*
G01*
X154350000Y-7125000D01*
G75*
G02*
X154600000Y-7375000I0J-250000D01*
G01*
X154600000Y-8625000D01*
G75*
G02*
X154350000Y-8875000I-250000J0D01*
G01*
X153425000Y-8875000D01*
G75*
G02*
X153175000Y-8625000I0J250000D01*
G01*
G37*
G04 #@! TD*
G04 #@! TO.C,D5*
G36*
G01*
X76975000Y-8625000D02*
X76975000Y-7375000D01*
G75*
G02*
X77225000Y-7125000I250000J0D01*
G01*
X78150000Y-7125000D01*
G75*
G02*
X78400000Y-7375000I0J-250000D01*
G01*
X78400000Y-8625000D01*
G75*
G02*
X78150000Y-8875000I-250000J0D01*
G01*
X77225000Y-8875000D01*
G75*
G02*
X76975000Y-8625000I0J250000D01*
G01*
G37*
G36*
G01*
X74000000Y-8625000D02*
X74000000Y-7375000D01*
G75*
G02*
X74250000Y-7125000I250000J0D01*
G01*
X75175000Y-7125000D01*
G75*
G02*
X75425000Y-7375000I0J-250000D01*
G01*
X75425000Y-8625000D01*
G75*
G02*
X75175000Y-8875000I-250000J0D01*
G01*
X74250000Y-8875000D01*
G75*
G02*
X74000000Y-8625000I0J250000D01*
G01*
G37*
G04 #@! TD*
G04 #@! TO.C,D10*
G36*
G01*
X169250000Y-8625000D02*
X169250000Y-7375000D01*
G75*
G02*
X169500000Y-7125000I250000J0D01*
G01*
X170425000Y-7125000D01*
G75*
G02*
X170675000Y-7375000I0J-250000D01*
G01*
X170675000Y-8625000D01*
G75*
G02*
X170425000Y-8875000I-250000J0D01*
G01*
X169500000Y-8875000D01*
G75*
G02*
X169250000Y-8625000I0J250000D01*
G01*
G37*
G36*
G01*
X172225000Y-8625000D02*
X172225000Y-7375000D01*
G75*
G02*
X172475000Y-7125000I250000J0D01*
G01*
X173400000Y-7125000D01*
G75*
G02*
X173650000Y-7375000I0J-250000D01*
G01*
X173650000Y-8625000D01*
G75*
G02*
X173400000Y-8875000I-250000J0D01*
G01*
X172475000Y-8875000D01*
G75*
G02*
X172225000Y-8625000I0J250000D01*
G01*
G37*
G04 #@! TD*
G04 #@! TO.C,D11*
G36*
G01*
X191275000Y-8625000D02*
X191275000Y-7375000D01*
G75*
G02*
X191525000Y-7125000I250000J0D01*
G01*
X192450000Y-7125000D01*
G75*
G02*
X192700000Y-7375000I0J-250000D01*
G01*
X192700000Y-8625000D01*
G75*
G02*
X192450000Y-8875000I-250000J0D01*
G01*
X191525000Y-8875000D01*
G75*
G02*
X191275000Y-8625000I0J250000D01*
G01*
G37*
G36*
G01*
X188300000Y-8625000D02*
X188300000Y-7375000D01*
G75*
G02*
X188550000Y-7125000I250000J0D01*
G01*
X189475000Y-7125000D01*
G75*
G02*
X189725000Y-7375000I0J-250000D01*
G01*
X189725000Y-8625000D01*
G75*
G02*
X189475000Y-8875000I-250000J0D01*
G01*
X188550000Y-8875000D01*
G75*
G02*
X188300000Y-8625000I0J250000D01*
G01*
G37*
G04 #@! TD*
G04 #@! TO.C,SW18*
X82042000Y-13970000D03*
X69115000Y-16510000D03*
G04 #@! TD*
G04 #@! TO.C,SW21*
X139192000Y-13970000D03*
X126265000Y-16510000D03*
G04 #@! TD*
G04 #@! TO.C,SW29*
X59590000Y-35560000D03*
X72517000Y-33020000D03*
G04 #@! TD*
G04 #@! TO.C,SW6*
X88165000Y2540000D03*
X101092000Y5080000D03*
G04 #@! TD*
G04 #@! TO.C,SW25*
X202465000Y-16510000D03*
X215392000Y-13970000D03*
G04 #@! TD*
G04 #@! TO.C,SW9*
X145315000Y2540000D03*
X158242000Y5080000D03*
G04 #@! TD*
G04 #@! TO.C,SW12*
X202465000Y2540000D03*
X215392000Y5080000D03*
G04 #@! TD*
G04 #@! TO.C,SW16*
X31015000Y-16510000D03*
X43942000Y-13970000D03*
G04 #@! TD*
G04 #@! TO.C,SW10*
X164365000Y2540000D03*
X177292000Y5080000D03*
G04 #@! TD*
G04 #@! TO.C,SW20*
X120142000Y-13970000D03*
X107215000Y-16510000D03*
G04 #@! TD*
G04 #@! TO.C,SW2*
X24892000Y5080000D03*
X11965000Y2540000D03*
G04 #@! TD*
G04 #@! TO.C,SW13*
X234442000Y5080000D03*
X221515000Y2540000D03*
G04 #@! TD*
G04 #@! TO.C,SW22*
X145315000Y-16510000D03*
X158242000Y-13970000D03*
G04 #@! TD*
G04 #@! TO.C,SW23*
X164365000Y-16510000D03*
X177292000Y-13970000D03*
G04 #@! TD*
G04 #@! TO.C,SW7*
X120142000Y5080000D03*
X107215000Y2540000D03*
G04 #@! TD*
G04 #@! TO.C,SW11*
X196342000Y5080000D03*
X183415000Y2540000D03*
G04 #@! TD*
G04 #@! TO.C,SW14*
X-7085000Y-16510000D03*
X5842000Y-13970000D03*
G04 #@! TD*
G04 #@! TO.C,SW1*
X5842000Y5080000D03*
X-7085000Y2540000D03*
G04 #@! TD*
G04 #@! TO.C,SW19*
X88165000Y-16510000D03*
X101092000Y-13970000D03*
G04 #@! TD*
G04 #@! TO.C,SW4*
X62992000Y5080000D03*
X50065000Y2540000D03*
G04 #@! TD*
G04 #@! TO.C,SW3*
X31015000Y2540000D03*
X43942000Y5080000D03*
G04 #@! TD*
G04 #@! TO.C,SW17*
X62992000Y-13970000D03*
X50065000Y-16510000D03*
G04 #@! TD*
G04 #@! TO.C,SW24*
X196342000Y-13970000D03*
X183415000Y-16510000D03*
G04 #@! TD*
G04 #@! TO.C,SW15*
X24892000Y-13970000D03*
X11965000Y-16510000D03*
G04 #@! TD*
G04 #@! TO.C,SW26*
X221515000Y-16510000D03*
X234442000Y-13970000D03*
G04 #@! TD*
G04 #@! TO.C,SW5*
X82042000Y5080000D03*
X69115000Y2540000D03*
G04 #@! TD*
G04 #@! TO.C,SW27*
X34417000Y-33020000D03*
X21490000Y-35560000D03*
G04 #@! TD*
G04 #@! TO.C,SW28*
X53467000Y-33020000D03*
X40540000Y-35560000D03*
G04 #@! TD*
G04 #@! TO.C,SW32*
X116740000Y-35560000D03*
X129667000Y-33020000D03*
G04 #@! TD*
G04 #@! TO.C,SW34*
X154840000Y-35560000D03*
X167767000Y-33020000D03*
G04 #@! TD*
G04 #@! TO.C,SW41*
X77279500Y-52070000D03*
X64352500Y-54610000D03*
G04 #@! TD*
G04 #@! TO.C,SW42*
X83402500Y-54610000D03*
X96329500Y-52070000D03*
G04 #@! TD*
G04 #@! TO.C,SW33*
X135790000Y-35560000D03*
X148717000Y-33020000D03*
G04 #@! TD*
G04 #@! TO.C,SW44*
X134429500Y-52070000D03*
X121502500Y-54610000D03*
G04 #@! TD*
G04 #@! TO.C,SW36*
X192940000Y-35560000D03*
X205867000Y-33020000D03*
G04 #@! TD*
G04 #@! TO.C,SW47*
X178652500Y-54610000D03*
X191579500Y-52070000D03*
G04 #@! TD*
G04 #@! TO.C,SW48*
X210629500Y-52070000D03*
X197702500Y-54610000D03*
G04 #@! TD*
G04 #@! TO.C,SW35*
X186817000Y-33020000D03*
X173890000Y-35560000D03*
G04 #@! TD*
G04 #@! TO.C,SW49*
X216752500Y-54610000D03*
X229679500Y-52070000D03*
G04 #@! TD*
G04 #@! TO.C,SW50*
X35777500Y-73660000D03*
X48704500Y-71120000D03*
G04 #@! TD*
G04 #@! TO.C,SW51*
X67754500Y-71120000D03*
X54827500Y-73660000D03*
G04 #@! TD*
G04 #@! TO.C,SW52*
X73877500Y-73660000D03*
X86804500Y-71120000D03*
G04 #@! TD*
G04 #@! TO.C,SW31*
X110617000Y-33020000D03*
X97690000Y-35560000D03*
G04 #@! TD*
G04 #@! TO.C,SW37*
X224917000Y-33020000D03*
X211990000Y-35560000D03*
G04 #@! TD*
G04 #@! TO.C,SW53*
X105854500Y-71120000D03*
X92927500Y-73660000D03*
G04 #@! TD*
G04 #@! TO.C,SW30*
X78640000Y-35560000D03*
X91567000Y-33020000D03*
G04 #@! TD*
G04 #@! TO.C,SW40*
X45302500Y-54610000D03*
X58229500Y-52070000D03*
G04 #@! TD*
G04 #@! TO.C,SW38*
X231040000Y-35560000D03*
X243967000Y-33020000D03*
G04 #@! TD*
G04 #@! TO.C,SW39*
X39179500Y-52070000D03*
X26252500Y-54610000D03*
G04 #@! TD*
G04 #@! TO.C,SW46*
X172529500Y-52070000D03*
X159602500Y-54610000D03*
G04 #@! TD*
G04 #@! TO.C,SW54*
X124904500Y-71120000D03*
X111977500Y-73660000D03*
G04 #@! TD*
G04 #@! TO.C,SW66*
X221515000Y-92710000D03*
X234442000Y-90170000D03*
G04 #@! TD*
G04 #@! TO.C,SW65*
X253492000Y-71120000D03*
X240565000Y-73660000D03*
G04 #@! TD*
G04 #@! TO.C,SW68*
X259615000Y-92710000D03*
X272542000Y-90170000D03*
G04 #@! TD*
G04 #@! TO.C,SW64*
X150077500Y-92710000D03*
X163004500Y-90170000D03*
G04 #@! TD*
G04 #@! TO.C,SW61*
X105854500Y-90170000D03*
X92927500Y-92710000D03*
G04 #@! TD*
G04 #@! TO.C,SW57*
X169127500Y-73660000D03*
X182054500Y-71120000D03*
G04 #@! TD*
G04 #@! TO.C,SW67*
X253492000Y-90170000D03*
X240565000Y-92710000D03*
G04 #@! TD*
G04 #@! TO.C,SW60*
X86804500Y-90170000D03*
X73877500Y-92710000D03*
G04 #@! TD*
G04 #@! TO.C,SW56*
X163004500Y-71120000D03*
X150077500Y-73660000D03*
G04 #@! TD*
G04 #@! TO.C,SW58*
X201104500Y-71120000D03*
X188177500Y-73660000D03*
G04 #@! TD*
G04 #@! TO.C,SW59*
X207227500Y-73660000D03*
X220154500Y-71120000D03*
G04 #@! TD*
G04 #@! TO.C,SW63*
X143954500Y-90170000D03*
X131027500Y-92710000D03*
G04 #@! TD*
G04 #@! TO.C,SW55*
X131027500Y-73660000D03*
X143954500Y-71120000D03*
G04 #@! TD*
G04 #@! TO.C,SW62*
X111977500Y-92710000D03*
X124904500Y-90170000D03*
G04 #@! TD*
G04 #@! TO.C,SW301*
X12986000Y-52070000D03*
X59000Y-54610000D03*
G04 #@! TD*
M02*
