G04 #@! TF.GenerationSoftware,KiCad,Pcbnew,(5.1.6)-1*
G04 #@! TF.CreationDate,2020-08-27T21:51:50+09:00*
G04 #@! TF.ProjectId,keyboard-layouter-playground,6b657962-6f61-4726-942d-6c61796f7574,rev?*
G04 #@! TF.SameCoordinates,Original*
G04 #@! TF.FileFunction,Legend,Top*
G04 #@! TF.FilePolarity,Positive*
%FSLAX46Y46*%
G04 Gerber Fmt 4.6, Leading zero omitted, Abs format (unit mm)*
G04 Created by KiCad (PCBNEW (5.1.6)-1) date 2020-08-27 21:51:50*
%MOMM*%
%LPD*%
G01*
G04 APERTURE LIST*
%ADD10C,0.381000*%
%ADD11C,0.150000*%
G04 APERTURE END LIST*
D10*
G04 #@! TO.C,U1*
X281940000Y6350000D02*
X281940000Y8890000D01*
X284480000Y8890000D02*
X281940000Y8890000D01*
X284480000Y-8890000D02*
X284480000Y8890000D01*
X281940000Y-8890000D02*
X284480000Y-8890000D01*
D11*
G36*
X275460640Y-4931568D02*
G01*
X275260640Y-4931568D01*
X275260640Y-4831568D01*
X275460640Y-4831568D01*
X275460640Y-4931568D01*
G37*
X275460640Y-4931568D02*
X275260640Y-4931568D01*
X275260640Y-4831568D01*
X275460640Y-4831568D01*
X275460640Y-4931568D01*
G36*
X276060640Y-4531568D02*
G01*
X275260640Y-4531568D01*
X275260640Y-4431568D01*
X276060640Y-4431568D01*
X276060640Y-4531568D01*
G37*
X276060640Y-4531568D02*
X275260640Y-4531568D01*
X275260640Y-4431568D01*
X276060640Y-4431568D01*
X276060640Y-4531568D01*
G36*
X276060640Y-4931568D02*
G01*
X275960640Y-4931568D01*
X275960640Y-4431568D01*
X276060640Y-4431568D01*
X276060640Y-4931568D01*
G37*
X276060640Y-4931568D02*
X275960640Y-4931568D01*
X275960640Y-4431568D01*
X276060640Y-4431568D01*
X276060640Y-4931568D01*
G36*
X275660640Y-4731568D02*
G01*
X275560640Y-4731568D01*
X275560640Y-4631568D01*
X275660640Y-4631568D01*
X275660640Y-4731568D01*
G37*
X275660640Y-4731568D02*
X275560640Y-4731568D01*
X275560640Y-4631568D01*
X275660640Y-4631568D01*
X275660640Y-4731568D01*
G36*
X276060640Y-4931568D02*
G01*
X275760640Y-4931568D01*
X275760640Y-4831568D01*
X276060640Y-4831568D01*
X276060640Y-4931568D01*
G37*
X276060640Y-4931568D02*
X275760640Y-4931568D01*
X275760640Y-4831568D01*
X276060640Y-4831568D01*
X276060640Y-4931568D01*
D10*
X279400000Y6350000D02*
X279400000Y8890000D01*
X281940000Y6350000D02*
X279400000Y6350000D01*
X251460000Y-8890000D02*
X281940000Y-8890000D01*
X251460000Y8890000D02*
X251460000Y-8890000D01*
X281940000Y8890000D02*
X251460000Y8890000D01*
D11*
X254661904Y1949523D02*
X253861904Y1949523D01*
X253861904Y2140000D01*
X253900000Y2254285D01*
X253976190Y2330476D01*
X254052380Y2368571D01*
X254204761Y2406666D01*
X254319047Y2406666D01*
X254471428Y2368571D01*
X254547619Y2330476D01*
X254623809Y2254285D01*
X254661904Y2140000D01*
X254661904Y1949523D01*
X253861904Y3130476D02*
X253861904Y2749523D01*
X254242857Y2711428D01*
X254204761Y2749523D01*
X254166666Y2825714D01*
X254166666Y3016190D01*
X254204761Y3092380D01*
X254242857Y3130476D01*
X254319047Y3168571D01*
X254509523Y3168571D01*
X254585714Y3130476D01*
X254623809Y3092380D01*
X254661904Y3016190D01*
X254661904Y2825714D01*
X254623809Y2749523D01*
X254585714Y2711428D01*
X254242857Y-2806666D02*
X254242857Y-3073333D01*
X254661904Y-3073333D02*
X253861904Y-3073333D01*
X253861904Y-2692380D01*
X254661904Y-1968571D02*
X254661904Y-2425714D01*
X254661904Y-2197142D02*
X253861904Y-2197142D01*
X253976190Y-2273333D01*
X254052380Y-2349523D01*
X254090476Y-2425714D01*
X254585714Y-133333D02*
X254623809Y-171428D01*
X254661904Y-285714D01*
X254661904Y-361904D01*
X254623809Y-476190D01*
X254547619Y-552380D01*
X254471428Y-590476D01*
X254319047Y-628571D01*
X254204761Y-628571D01*
X254052380Y-590476D01*
X253976190Y-552380D01*
X253900000Y-476190D01*
X253861904Y-361904D01*
X253861904Y-285714D01*
X253900000Y-171428D01*
X253938095Y-133333D01*
X253861904Y133333D02*
X253861904Y666666D01*
X254661904Y323809D01*
X253835008Y-6164297D02*
X253882148Y-6258578D01*
X253882148Y-6305719D01*
X253858578Y-6376429D01*
X253787867Y-6447140D01*
X253717157Y-6470710D01*
X253670016Y-6470710D01*
X253599306Y-6447140D01*
X253410744Y-6258578D01*
X253905719Y-5763603D01*
X254070710Y-5928595D01*
X254094280Y-5999306D01*
X254094280Y-6046446D01*
X254070710Y-6117157D01*
X254023570Y-6164297D01*
X253952859Y-6187867D01*
X253905719Y-6187867D01*
X253835008Y-6164297D01*
X253670016Y-5999306D01*
X254612825Y-6470710D02*
X254518544Y-6376429D01*
X254447834Y-6352859D01*
X254400693Y-6352859D01*
X254282842Y-6376429D01*
X254164991Y-6447140D01*
X253976429Y-6635702D01*
X253952859Y-6706412D01*
X253952859Y-6753553D01*
X253976429Y-6824264D01*
X254070710Y-6918544D01*
X254141421Y-6942115D01*
X254188561Y-6942115D01*
X254259272Y-6918544D01*
X254377123Y-6800693D01*
X254400693Y-6729983D01*
X254400693Y-6682842D01*
X254377123Y-6612132D01*
X254282842Y-6517851D01*
X254212132Y-6494280D01*
X254164991Y-6494280D01*
X254094280Y-6517851D01*
X254050000Y-4733333D02*
X254050000Y-4966666D01*
X254416666Y-4966666D02*
X253716666Y-4966666D01*
X253716666Y-4633333D01*
X253716666Y-4233333D02*
X253716666Y-4166666D01*
X253750000Y-4100000D01*
X253783333Y-4066666D01*
X253850000Y-4033333D01*
X253983333Y-4000000D01*
X254150000Y-4000000D01*
X254283333Y-4033333D01*
X254350000Y-4066666D01*
X254383333Y-4100000D01*
X254416666Y-4166666D01*
X254416666Y-4233333D01*
X254383333Y-4300000D01*
X254350000Y-4333333D01*
X254283333Y-4366666D01*
X254150000Y-4400000D01*
X253983333Y-4400000D01*
X253850000Y-4366666D01*
X253783333Y-4333333D01*
X253750000Y-4300000D01*
X253716666Y-4233333D01*
X254050000Y4216666D02*
X254083333Y4316666D01*
X254116666Y4350000D01*
X254183333Y4383333D01*
X254283333Y4383333D01*
X254350000Y4350000D01*
X254383333Y4316666D01*
X254416666Y4250000D01*
X254416666Y3983333D01*
X253716666Y3983333D01*
X253716666Y4216666D01*
X253750000Y4283333D01*
X253783333Y4316666D01*
X253850000Y4350000D01*
X253916666Y4350000D01*
X253983333Y4316666D01*
X254016666Y4283333D01*
X254050000Y4216666D01*
X254050000Y3983333D01*
X253716666Y4616666D02*
X253716666Y5083333D01*
X254416666Y4783333D01*
X280231904Y1381395D02*
X280231904Y1838538D01*
X281031904Y1609967D02*
X280231904Y1609967D01*
X280231904Y2029014D02*
X281031904Y2562348D01*
X280231904Y2562348D02*
X281031904Y2029014D01*
X280231904Y3019491D02*
X280231904Y3095681D01*
X280270000Y3171872D01*
X280308095Y3209967D01*
X280384285Y3248062D01*
X280536666Y3286157D01*
X280727142Y3286157D01*
X280879523Y3248062D01*
X280955714Y3209967D01*
X280993809Y3171872D01*
X281031904Y3095681D01*
X281031904Y3019491D01*
X280993809Y2943300D01*
X280955714Y2905205D01*
X280879523Y2867110D01*
X280727142Y2829014D01*
X280536666Y2829014D01*
X280384285Y2867110D01*
X280308095Y2905205D01*
X280270000Y2943300D01*
X280231904Y3019491D01*
X280193809Y4200443D02*
X281222380Y3514729D01*
X281031904Y4467110D02*
X280231904Y4467110D01*
X280231904Y4657586D01*
X280270000Y4771872D01*
X280346190Y4848062D01*
X280422380Y4886157D01*
X280574761Y4924252D01*
X280689047Y4924252D01*
X280841428Y4886157D01*
X280917619Y4848062D01*
X280993809Y4771872D01*
X281031904Y4657586D01*
X281031904Y4467110D01*
X280231904Y5190919D02*
X280231904Y5686157D01*
X280536666Y5419491D01*
X280536666Y5533776D01*
X280574761Y5609967D01*
X280612857Y5648062D01*
X280689047Y5686157D01*
X280879523Y5686157D01*
X280955714Y5648062D01*
X280993809Y5609967D01*
X281031904Y5533776D01*
X281031904Y5305205D01*
X280993809Y5229014D01*
X280955714Y5190919D01*
X278491904Y4870523D02*
X277691904Y4870523D01*
X277691904Y5061000D01*
X277730000Y5175285D01*
X277806190Y5251476D01*
X277882380Y5289571D01*
X278034761Y5327666D01*
X278149047Y5327666D01*
X278301428Y5289571D01*
X278377619Y5251476D01*
X278453809Y5175285D01*
X278491904Y5061000D01*
X278491904Y4870523D01*
X277768095Y5632428D02*
X277730000Y5670523D01*
X277691904Y5746714D01*
X277691904Y5937190D01*
X277730000Y6013380D01*
X277768095Y6051476D01*
X277844285Y6089571D01*
X277920476Y6089571D01*
X278034761Y6051476D01*
X278491904Y5594333D01*
X278491904Y6089571D01*
X268331904Y4870523D02*
X267531904Y4870523D01*
X267531904Y5061000D01*
X267570000Y5175285D01*
X267646190Y5251476D01*
X267722380Y5289571D01*
X267874761Y5327666D01*
X267989047Y5327666D01*
X268141428Y5289571D01*
X268217619Y5251476D01*
X268293809Y5175285D01*
X268331904Y5061000D01*
X268331904Y4870523D01*
X267531904Y5822904D02*
X267531904Y5899095D01*
X267570000Y5975285D01*
X267608095Y6013380D01*
X267684285Y6051476D01*
X267836666Y6089571D01*
X268027142Y6089571D01*
X268179523Y6051476D01*
X268255714Y6013380D01*
X268293809Y5975285D01*
X268331904Y5899095D01*
X268331904Y5822904D01*
X268293809Y5746714D01*
X268255714Y5708619D01*
X268179523Y5670523D01*
X268027142Y5632428D01*
X267836666Y5632428D01*
X267684285Y5670523D01*
X267608095Y5708619D01*
X267570000Y5746714D01*
X267531904Y5822904D01*
X270871904Y4870523D02*
X270071904Y4870523D01*
X270071904Y5061000D01*
X270110000Y5175285D01*
X270186190Y5251476D01*
X270262380Y5289571D01*
X270414761Y5327666D01*
X270529047Y5327666D01*
X270681428Y5289571D01*
X270757619Y5251476D01*
X270833809Y5175285D01*
X270871904Y5061000D01*
X270871904Y4870523D01*
X270871904Y6089571D02*
X270871904Y5632428D01*
X270871904Y5861000D02*
X270071904Y5861000D01*
X270186190Y5784809D01*
X270262380Y5708619D01*
X270300476Y5632428D01*
X272650000Y4851476D02*
X272611904Y4775285D01*
X272611904Y4661000D01*
X272650000Y4546714D01*
X272726190Y4470523D01*
X272802380Y4432428D01*
X272954761Y4394333D01*
X273069047Y4394333D01*
X273221428Y4432428D01*
X273297619Y4470523D01*
X273373809Y4546714D01*
X273411904Y4661000D01*
X273411904Y4737190D01*
X273373809Y4851476D01*
X273335714Y4889571D01*
X273069047Y4889571D01*
X273069047Y4737190D01*
X273411904Y5232428D02*
X272611904Y5232428D01*
X273411904Y5689571D01*
X272611904Y5689571D01*
X273411904Y6070523D02*
X272611904Y6070523D01*
X272611904Y6261000D01*
X272650000Y6375285D01*
X272726190Y6451476D01*
X272802380Y6489571D01*
X272954761Y6527666D01*
X273069047Y6527666D01*
X273221428Y6489571D01*
X273297619Y6451476D01*
X273373809Y6375285D01*
X273411904Y6261000D01*
X273411904Y6070523D01*
X275190000Y4851476D02*
X275151904Y4775285D01*
X275151904Y4661000D01*
X275190000Y4546714D01*
X275266190Y4470523D01*
X275342380Y4432428D01*
X275494761Y4394333D01*
X275609047Y4394333D01*
X275761428Y4432428D01*
X275837619Y4470523D01*
X275913809Y4546714D01*
X275951904Y4661000D01*
X275951904Y4737190D01*
X275913809Y4851476D01*
X275875714Y4889571D01*
X275609047Y4889571D01*
X275609047Y4737190D01*
X275951904Y5232428D02*
X275151904Y5232428D01*
X275951904Y5689571D01*
X275151904Y5689571D01*
X275951904Y6070523D02*
X275151904Y6070523D01*
X275151904Y6261000D01*
X275190000Y6375285D01*
X275266190Y6451476D01*
X275342380Y6489571D01*
X275494761Y6527666D01*
X275609047Y6527666D01*
X275761428Y6489571D01*
X275837619Y6451476D01*
X275913809Y6375285D01*
X275951904Y6261000D01*
X275951904Y6070523D01*
X265791904Y4870523D02*
X264991904Y4870523D01*
X264991904Y5061000D01*
X265030000Y5175285D01*
X265106190Y5251476D01*
X265182380Y5289571D01*
X265334761Y5327666D01*
X265449047Y5327666D01*
X265601428Y5289571D01*
X265677619Y5251476D01*
X265753809Y5175285D01*
X265791904Y5061000D01*
X265791904Y4870523D01*
X265258571Y6013380D02*
X265791904Y6013380D01*
X264953809Y5822904D02*
X265525238Y5632428D01*
X265525238Y6127666D01*
X263175714Y5327666D02*
X263213809Y5289571D01*
X263251904Y5175285D01*
X263251904Y5099095D01*
X263213809Y4984809D01*
X263137619Y4908619D01*
X263061428Y4870523D01*
X262909047Y4832428D01*
X262794761Y4832428D01*
X262642380Y4870523D01*
X262566190Y4908619D01*
X262490000Y4984809D01*
X262451904Y5099095D01*
X262451904Y5175285D01*
X262490000Y5289571D01*
X262528095Y5327666D01*
X262451904Y6013380D02*
X262451904Y5861000D01*
X262490000Y5784809D01*
X262528095Y5746714D01*
X262642380Y5670523D01*
X262794761Y5632428D01*
X263099523Y5632428D01*
X263175714Y5670523D01*
X263213809Y5708619D01*
X263251904Y5784809D01*
X263251904Y5937190D01*
X263213809Y6013380D01*
X263175714Y6051476D01*
X263099523Y6089571D01*
X262909047Y6089571D01*
X262832857Y6051476D01*
X262794761Y6013380D01*
X262756666Y5937190D01*
X262756666Y5784809D01*
X262794761Y5708619D01*
X262832857Y5670523D01*
X262909047Y5632428D01*
X260711904Y4870523D02*
X259911904Y4870523D01*
X259911904Y5061000D01*
X259950000Y5175285D01*
X260026190Y5251476D01*
X260102380Y5289571D01*
X260254761Y5327666D01*
X260369047Y5327666D01*
X260521428Y5289571D01*
X260597619Y5251476D01*
X260673809Y5175285D01*
X260711904Y5061000D01*
X260711904Y4870523D01*
X259911904Y5594333D02*
X259911904Y6127666D01*
X260711904Y5784809D01*
X257752857Y4908619D02*
X257752857Y5175285D01*
X258171904Y5289571D02*
X258171904Y4908619D01*
X257371904Y4908619D01*
X257371904Y5289571D01*
X257371904Y5975285D02*
X257371904Y5822904D01*
X257410000Y5746714D01*
X257448095Y5708619D01*
X257562380Y5632428D01*
X257714761Y5594333D01*
X258019523Y5594333D01*
X258095714Y5632428D01*
X258133809Y5670523D01*
X258171904Y5746714D01*
X258171904Y5899095D01*
X258133809Y5975285D01*
X258095714Y6013380D01*
X258019523Y6051476D01*
X257829047Y6051476D01*
X257752857Y6013380D01*
X257714761Y5975285D01*
X257676666Y5899095D01*
X257676666Y5746714D01*
X257714761Y5670523D01*
X257752857Y5632428D01*
X257829047Y5594333D01*
X255212857Y5137190D02*
X255250952Y5251476D01*
X255289047Y5289571D01*
X255365238Y5327666D01*
X255479523Y5327666D01*
X255555714Y5289571D01*
X255593809Y5251476D01*
X255631904Y5175285D01*
X255631904Y4870523D01*
X254831904Y4870523D01*
X254831904Y5137190D01*
X254870000Y5213380D01*
X254908095Y5251476D01*
X254984285Y5289571D01*
X255060476Y5289571D01*
X255136666Y5251476D01*
X255174761Y5213380D01*
X255212857Y5137190D01*
X255212857Y4870523D01*
X255098571Y6013380D02*
X255631904Y6013380D01*
X254793809Y5822904D02*
X255365238Y5632428D01*
X255365238Y6127666D01*
X253764297Y6235008D02*
X253858578Y6282148D01*
X253905719Y6282148D01*
X253976429Y6258578D01*
X254047140Y6187867D01*
X254070710Y6117157D01*
X254070710Y6070016D01*
X254047140Y5999306D01*
X253858578Y5810744D01*
X253363603Y6305719D01*
X253528595Y6470710D01*
X253599306Y6494280D01*
X253646446Y6494280D01*
X253717157Y6470710D01*
X253764297Y6423570D01*
X253787867Y6352859D01*
X253787867Y6305719D01*
X253764297Y6235008D01*
X253599306Y6070016D01*
X254094280Y7036396D02*
X253858578Y6800693D01*
X254070710Y6541421D01*
X254070710Y6588561D01*
X254094280Y6659272D01*
X254212132Y6777123D01*
X254282842Y6800693D01*
X254329983Y6800693D01*
X254400693Y6777123D01*
X254518544Y6659272D01*
X254542115Y6588561D01*
X254542115Y6541421D01*
X254518544Y6470710D01*
X254400693Y6352859D01*
X254329983Y6329289D01*
X254282842Y6329289D01*
X257752857Y-5784809D02*
X257790952Y-5670523D01*
X257829047Y-5632428D01*
X257905238Y-5594333D01*
X258019523Y-5594333D01*
X258095714Y-5632428D01*
X258133809Y-5670523D01*
X258171904Y-5746714D01*
X258171904Y-6051476D01*
X257371904Y-6051476D01*
X257371904Y-5784809D01*
X257410000Y-5708619D01*
X257448095Y-5670523D01*
X257524285Y-5632428D01*
X257600476Y-5632428D01*
X257676666Y-5670523D01*
X257714761Y-5708619D01*
X257752857Y-5784809D01*
X257752857Y-6051476D01*
X257371904Y-5327666D02*
X257371904Y-4832428D01*
X257676666Y-5099095D01*
X257676666Y-4984809D01*
X257714761Y-4908619D01*
X257752857Y-4870523D01*
X257829047Y-4832428D01*
X258019523Y-4832428D01*
X258095714Y-4870523D01*
X258133809Y-4908619D01*
X258171904Y-4984809D01*
X258171904Y-5213380D01*
X258133809Y-5289571D01*
X258095714Y-5327666D01*
X260292857Y-5784809D02*
X260330952Y-5670523D01*
X260369047Y-5632428D01*
X260445238Y-5594333D01*
X260559523Y-5594333D01*
X260635714Y-5632428D01*
X260673809Y-5670523D01*
X260711904Y-5746714D01*
X260711904Y-6051476D01*
X259911904Y-6051476D01*
X259911904Y-5784809D01*
X259950000Y-5708619D01*
X259988095Y-5670523D01*
X260064285Y-5632428D01*
X260140476Y-5632428D01*
X260216666Y-5670523D01*
X260254761Y-5708619D01*
X260292857Y-5784809D01*
X260292857Y-6051476D01*
X260711904Y-4832428D02*
X260711904Y-5289571D01*
X260711904Y-5061000D02*
X259911904Y-5061000D01*
X260026190Y-5137190D01*
X260102380Y-5213380D01*
X260140476Y-5289571D01*
X270452857Y-5727666D02*
X270452857Y-5994333D01*
X270871904Y-5994333D02*
X270071904Y-5994333D01*
X270071904Y-5613380D01*
X270338571Y-4965761D02*
X270871904Y-4965761D01*
X270033809Y-5156238D02*
X270605238Y-5346714D01*
X270605238Y-4851476D01*
X272611904Y-6527666D02*
X273411904Y-6261000D01*
X272611904Y-5994333D01*
X273335714Y-5270523D02*
X273373809Y-5308619D01*
X273411904Y-5422904D01*
X273411904Y-5499095D01*
X273373809Y-5613380D01*
X273297619Y-5689571D01*
X273221428Y-5727666D01*
X273069047Y-5765761D01*
X272954761Y-5765761D01*
X272802380Y-5727666D01*
X272726190Y-5689571D01*
X272650000Y-5613380D01*
X272611904Y-5499095D01*
X272611904Y-5422904D01*
X272650000Y-5308619D01*
X272688095Y-5270523D01*
X273335714Y-4470523D02*
X273373809Y-4508619D01*
X273411904Y-4622904D01*
X273411904Y-4699095D01*
X273373809Y-4813380D01*
X273297619Y-4889571D01*
X273221428Y-4927666D01*
X273069047Y-4965761D01*
X272954761Y-4965761D01*
X272802380Y-4927666D01*
X272726190Y-4889571D01*
X272650000Y-4813380D01*
X272611904Y-4699095D01*
X272611904Y-4622904D01*
X272650000Y-4508619D01*
X272688095Y-4470523D01*
X275943809Y-6266453D02*
X275981904Y-6152167D01*
X275981904Y-5961691D01*
X275943809Y-5885500D01*
X275905714Y-5847405D01*
X275829523Y-5809310D01*
X275753333Y-5809310D01*
X275677142Y-5847405D01*
X275639047Y-5885500D01*
X275600952Y-5961691D01*
X275562857Y-6114072D01*
X275524761Y-6190262D01*
X275486666Y-6228358D01*
X275410476Y-6266453D01*
X275334285Y-6266453D01*
X275258095Y-6228358D01*
X275220000Y-6190262D01*
X275181904Y-6114072D01*
X275181904Y-5923596D01*
X275220000Y-5809310D01*
X275181904Y-5580739D02*
X275181904Y-5123596D01*
X275981904Y-5352167D02*
X275181904Y-5352167D01*
X277730000Y-6070523D02*
X277691904Y-6146714D01*
X277691904Y-6261000D01*
X277730000Y-6375285D01*
X277806190Y-6451476D01*
X277882380Y-6489571D01*
X278034761Y-6527666D01*
X278149047Y-6527666D01*
X278301428Y-6489571D01*
X278377619Y-6451476D01*
X278453809Y-6375285D01*
X278491904Y-6261000D01*
X278491904Y-6184809D01*
X278453809Y-6070523D01*
X278415714Y-6032428D01*
X278149047Y-6032428D01*
X278149047Y-6184809D01*
X278491904Y-5689571D02*
X277691904Y-5689571D01*
X278491904Y-5232428D01*
X277691904Y-5232428D01*
X278491904Y-4851476D02*
X277691904Y-4851476D01*
X277691904Y-4661000D01*
X277730000Y-4546714D01*
X277806190Y-4470523D01*
X277882380Y-4432428D01*
X278034761Y-4394333D01*
X278149047Y-4394333D01*
X278301428Y-4432428D01*
X278377619Y-4470523D01*
X278453809Y-4546714D01*
X278491904Y-4661000D01*
X278491904Y-4851476D01*
X280612857Y-5784809D02*
X280650952Y-5670523D01*
X280689047Y-5632428D01*
X280765238Y-5594333D01*
X280879523Y-5594333D01*
X280955714Y-5632428D01*
X280993809Y-5670523D01*
X281031904Y-5746714D01*
X281031904Y-6051476D01*
X280231904Y-6051476D01*
X280231904Y-5784809D01*
X280270000Y-5708619D01*
X280308095Y-5670523D01*
X280384285Y-5632428D01*
X280460476Y-5632428D01*
X280536666Y-5670523D01*
X280574761Y-5708619D01*
X280612857Y-5784809D01*
X280612857Y-6051476D01*
X280231904Y-5099095D02*
X280231904Y-5022904D01*
X280270000Y-4946714D01*
X280308095Y-4908619D01*
X280384285Y-4870523D01*
X280536666Y-4832428D01*
X280727142Y-4832428D01*
X280879523Y-4870523D01*
X280955714Y-4908619D01*
X280993809Y-4946714D01*
X281031904Y-5022904D01*
X281031904Y-5099095D01*
X280993809Y-5175285D01*
X280955714Y-5213380D01*
X280879523Y-5251476D01*
X280727142Y-5289571D01*
X280536666Y-5289571D01*
X280384285Y-5251476D01*
X280308095Y-5213380D01*
X280270000Y-5175285D01*
X280231904Y-5099095D01*
X267912857Y-5727666D02*
X267912857Y-5994333D01*
X268331904Y-5994333D02*
X267531904Y-5994333D01*
X267531904Y-5613380D01*
X267531904Y-4927666D02*
X267531904Y-5308619D01*
X267912857Y-5346714D01*
X267874761Y-5308619D01*
X267836666Y-5232428D01*
X267836666Y-5041952D01*
X267874761Y-4965761D01*
X267912857Y-4927666D01*
X267989047Y-4889571D01*
X268179523Y-4889571D01*
X268255714Y-4927666D01*
X268293809Y-4965761D01*
X268331904Y-5041952D01*
X268331904Y-5232428D01*
X268293809Y-5308619D01*
X268255714Y-5346714D01*
X265372857Y-5727666D02*
X265372857Y-5994333D01*
X265791904Y-5994333D02*
X264991904Y-5994333D01*
X264991904Y-5613380D01*
X264991904Y-4965761D02*
X264991904Y-5118142D01*
X265030000Y-5194333D01*
X265068095Y-5232428D01*
X265182380Y-5308619D01*
X265334761Y-5346714D01*
X265639523Y-5346714D01*
X265715714Y-5308619D01*
X265753809Y-5270523D01*
X265791904Y-5194333D01*
X265791904Y-5041952D01*
X265753809Y-4965761D01*
X265715714Y-4927666D01*
X265639523Y-4889571D01*
X265449047Y-4889571D01*
X265372857Y-4927666D01*
X265334761Y-4965761D01*
X265296666Y-5041952D01*
X265296666Y-5194333D01*
X265334761Y-5270523D01*
X265372857Y-5308619D01*
X265449047Y-5346714D01*
X262832857Y-5727666D02*
X262832857Y-5994333D01*
X263251904Y-5994333D02*
X262451904Y-5994333D01*
X262451904Y-5613380D01*
X262451904Y-5384809D02*
X262451904Y-4851476D01*
X263251904Y-5194333D01*
X255212857Y-5784809D02*
X255250952Y-5670523D01*
X255289047Y-5632428D01*
X255365238Y-5594333D01*
X255479523Y-5594333D01*
X255555714Y-5632428D01*
X255593809Y-5670523D01*
X255631904Y-5746714D01*
X255631904Y-6051476D01*
X254831904Y-6051476D01*
X254831904Y-5784809D01*
X254870000Y-5708619D01*
X254908095Y-5670523D01*
X254984285Y-5632428D01*
X255060476Y-5632428D01*
X255136666Y-5670523D01*
X255174761Y-5708619D01*
X255212857Y-5784809D01*
X255212857Y-6051476D01*
X254908095Y-5289571D02*
X254870000Y-5251476D01*
X254831904Y-5175285D01*
X254831904Y-4984809D01*
X254870000Y-4908619D01*
X254908095Y-4870523D01*
X254984285Y-4832428D01*
X255060476Y-4832428D01*
X255174761Y-4870523D01*
X255631904Y-5327666D01*
X255631904Y-4832428D01*
G04 #@! TD*
M02*
