G04 #@! TF.GenerationSoftware,KiCad,Pcbnew,(5.1.6)-1*
G04 #@! TF.CreationDate,2020-08-27T21:51:50+09:00*
G04 #@! TF.ProjectId,keyboard-layouter-playground,6b657962-6f61-4726-942d-6c61796f7574,rev?*
G04 #@! TF.SameCoordinates,Original*
G04 #@! TF.FileFunction,Legend,Bot*
G04 #@! TF.FilePolarity,Positive*
%FSLAX46Y46*%
G04 Gerber Fmt 4.6, Leading zero omitted, Abs format (unit mm)*
G04 Created by KiCad (PCBNEW (5.1.6)-1) date 2020-08-27 21:51:50*
%MOMM*%
%LPD*%
G01*
G04 APERTURE LIST*
%ADD10C,0.300000*%
%ADD11C,0.150000*%
%ADD12C,0.120000*%
%ADD13C,0.381000*%
G04 APERTURE END LIST*
D10*
X275037857Y14296428D02*
X275037857Y13296428D01*
X275037857Y14153571D02*
X274966428Y14225000D01*
X274823571Y14296428D01*
X274609285Y14296428D01*
X274466428Y14225000D01*
X274395000Y14082142D01*
X274395000Y13296428D01*
X273680714Y13296428D02*
X273680714Y14296428D01*
X273680714Y14010714D02*
X273609285Y14153571D01*
X273537857Y14225000D01*
X273395000Y14296428D01*
X273252142Y14296428D01*
X272823571Y13367857D02*
X272680714Y13296428D01*
X272395000Y13296428D01*
X272252142Y13367857D01*
X272180714Y13510714D01*
X272180714Y13582142D01*
X272252142Y13725000D01*
X272395000Y13796428D01*
X272609285Y13796428D01*
X272752142Y13867857D01*
X272823571Y14010714D01*
X272823571Y14082142D01*
X272752142Y14225000D01*
X272609285Y14296428D01*
X272395000Y14296428D01*
X272252142Y14225000D01*
X271537857Y13296428D02*
X271537857Y14796428D01*
X271395000Y13867857D02*
X270966428Y13296428D01*
X270966428Y14296428D02*
X271537857Y13725000D01*
X270323571Y13296428D02*
X270323571Y14796428D01*
X270323571Y14225000D02*
X270180714Y14296428D01*
X269895000Y14296428D01*
X269752142Y14225000D01*
X269680714Y14153571D01*
X269609285Y14010714D01*
X269609285Y13582142D01*
X269680714Y13439285D01*
X269752142Y13367857D01*
X269895000Y13296428D01*
X270180714Y13296428D01*
X270323571Y13367857D01*
X267823571Y13296428D02*
X267823571Y14296428D01*
X267823571Y14010714D02*
X267752142Y14153571D01*
X267680714Y14225000D01*
X267537857Y14296428D01*
X267395000Y14296428D01*
X266323571Y13367857D02*
X266466428Y13296428D01*
X266752142Y13296428D01*
X266895000Y13367857D01*
X266966428Y13510714D01*
X266966428Y14082142D01*
X266895000Y14225000D01*
X266752142Y14296428D01*
X266466428Y14296428D01*
X266323571Y14225000D01*
X266252142Y14082142D01*
X266252142Y13939285D01*
X266966428Y13796428D01*
X265752142Y14296428D02*
X265395000Y13296428D01*
X265037857Y14296428D01*
X264466428Y13439285D02*
X264395000Y13367857D01*
X264466428Y13296428D01*
X264537857Y13367857D01*
X264466428Y13439285D01*
X264466428Y13296428D01*
X261823571Y13296428D02*
X262680714Y13296428D01*
X262252142Y13296428D02*
X262252142Y14796428D01*
X262395000Y14582142D01*
X262537857Y14439285D01*
X262680714Y14367857D01*
X261109285Y13367857D02*
X261109285Y13296428D01*
X261180714Y13153571D01*
X261252142Y13082142D01*
X259395000Y14653571D02*
X259323571Y14725000D01*
X259180714Y14796428D01*
X258823571Y14796428D01*
X258680714Y14725000D01*
X258609285Y14653571D01*
X258537857Y14510714D01*
X258537857Y14367857D01*
X258609285Y14153571D01*
X259466428Y13296428D01*
X258537857Y13296428D01*
X257609285Y14796428D02*
X257466428Y14796428D01*
X257323571Y14725000D01*
X257252142Y14653571D01*
X257180714Y14510714D01*
X257109285Y14225000D01*
X257109285Y13867857D01*
X257180714Y13582142D01*
X257252142Y13439285D01*
X257323571Y13367857D01*
X257466428Y13296428D01*
X257609285Y13296428D01*
X257752142Y13367857D01*
X257823571Y13439285D01*
X257895000Y13582142D01*
X257966428Y13867857D01*
X257966428Y14225000D01*
X257895000Y14510714D01*
X257823571Y14653571D01*
X257752142Y14725000D01*
X257609285Y14796428D01*
X256537857Y14653571D02*
X256466428Y14725000D01*
X256323571Y14796428D01*
X255966428Y14796428D01*
X255823571Y14725000D01*
X255752142Y14653571D01*
X255680714Y14510714D01*
X255680714Y14367857D01*
X255752142Y14153571D01*
X256609285Y13296428D01*
X255680714Y13296428D01*
X254752142Y14796428D02*
X254609285Y14796428D01*
X254466428Y14725000D01*
X254395000Y14653571D01*
X254323571Y14510714D01*
X254252142Y14225000D01*
X254252142Y13867857D01*
X254323571Y13582142D01*
X254395000Y13439285D01*
X254466428Y13367857D01*
X254609285Y13296428D01*
X254752142Y13296428D01*
X254895000Y13367857D01*
X254966428Y13439285D01*
X255037857Y13582142D01*
X255109285Y13867857D01*
X255109285Y14225000D01*
X255037857Y14510714D01*
X254966428Y14653571D01*
X254895000Y14725000D01*
X254752142Y14796428D01*
X253609285Y13867857D02*
X252466428Y13867857D01*
X251466428Y14796428D02*
X251323571Y14796428D01*
X251180714Y14725000D01*
X251109285Y14653571D01*
X251037857Y14510714D01*
X250966428Y14225000D01*
X250966428Y13867857D01*
X251037857Y13582142D01*
X251109285Y13439285D01*
X251180714Y13367857D01*
X251323571Y13296428D01*
X251466428Y13296428D01*
X251609285Y13367857D01*
X251680714Y13439285D01*
X251752142Y13582142D01*
X251823571Y13867857D01*
X251823571Y14225000D01*
X251752142Y14510714D01*
X251680714Y14653571D01*
X251609285Y14725000D01*
X251466428Y14796428D01*
X250109285Y14153571D02*
X250252142Y14225000D01*
X250323571Y14296428D01*
X250395000Y14439285D01*
X250395000Y14510714D01*
X250323571Y14653571D01*
X250252142Y14725000D01*
X250109285Y14796428D01*
X249823571Y14796428D01*
X249680714Y14725000D01*
X249609285Y14653571D01*
X249537857Y14510714D01*
X249537857Y14439285D01*
X249609285Y14296428D01*
X249680714Y14225000D01*
X249823571Y14153571D01*
X250109285Y14153571D01*
X250252142Y14082142D01*
X250323571Y14010714D01*
X250395000Y13867857D01*
X250395000Y13582142D01*
X250323571Y13439285D01*
X250252142Y13367857D01*
X250109285Y13296428D01*
X249823571Y13296428D01*
X249680714Y13367857D01*
X249609285Y13439285D01*
X249537857Y13582142D01*
X249537857Y13867857D01*
X249609285Y14010714D01*
X249680714Y14082142D01*
X249823571Y14153571D01*
X248895000Y13867857D02*
X247752142Y13867857D01*
X247109285Y14653571D02*
X247037857Y14725000D01*
X246895000Y14796428D01*
X246537857Y14796428D01*
X246395000Y14725000D01*
X246323571Y14653571D01*
X246252142Y14510714D01*
X246252142Y14367857D01*
X246323571Y14153571D01*
X247180714Y13296428D01*
X246252142Y13296428D01*
X245752142Y14796428D02*
X244752142Y14796428D01*
X245395000Y13296428D01*
X274395000Y10746428D02*
X274395000Y12246428D01*
X274395000Y10817857D02*
X274537857Y10746428D01*
X274823571Y10746428D01*
X274966428Y10817857D01*
X275037857Y10889285D01*
X275109285Y11032142D01*
X275109285Y11460714D01*
X275037857Y11603571D01*
X274966428Y11675000D01*
X274823571Y11746428D01*
X274537857Y11746428D01*
X274395000Y11675000D01*
X273109285Y10817857D02*
X273252142Y10746428D01*
X273537857Y10746428D01*
X273680714Y10817857D01*
X273752142Y10960714D01*
X273752142Y11532142D01*
X273680714Y11675000D01*
X273537857Y11746428D01*
X273252142Y11746428D01*
X273109285Y11675000D01*
X273037857Y11532142D01*
X273037857Y11389285D01*
X273752142Y11246428D01*
X272466428Y10817857D02*
X272323571Y10746428D01*
X272037857Y10746428D01*
X271895000Y10817857D01*
X271823571Y10960714D01*
X271823571Y11032142D01*
X271895000Y11175000D01*
X272037857Y11246428D01*
X272252142Y11246428D01*
X272395000Y11317857D01*
X272466428Y11460714D01*
X272466428Y11532142D01*
X272395000Y11675000D01*
X272252142Y11746428D01*
X272037857Y11746428D01*
X271895000Y11675000D01*
X271180714Y10746428D02*
X271180714Y11746428D01*
X271180714Y12246428D02*
X271252142Y12175000D01*
X271180714Y12103571D01*
X271109285Y12175000D01*
X271180714Y12246428D01*
X271180714Y12103571D01*
X269823571Y11746428D02*
X269823571Y10532142D01*
X269895000Y10389285D01*
X269966428Y10317857D01*
X270109285Y10246428D01*
X270323571Y10246428D01*
X270466428Y10317857D01*
X269823571Y10817857D02*
X269966428Y10746428D01*
X270252142Y10746428D01*
X270395000Y10817857D01*
X270466428Y10889285D01*
X270537857Y11032142D01*
X270537857Y11460714D01*
X270466428Y11603571D01*
X270395000Y11675000D01*
X270252142Y11746428D01*
X269966428Y11746428D01*
X269823571Y11675000D01*
X269109285Y11746428D02*
X269109285Y10746428D01*
X269109285Y11603571D02*
X269037857Y11675000D01*
X268895000Y11746428D01*
X268680714Y11746428D01*
X268537857Y11675000D01*
X268466428Y11532142D01*
X268466428Y10746428D01*
X267180714Y10817857D02*
X267323571Y10746428D01*
X267609285Y10746428D01*
X267752142Y10817857D01*
X267823571Y10960714D01*
X267823571Y11532142D01*
X267752142Y11675000D01*
X267609285Y11746428D01*
X267323571Y11746428D01*
X267180714Y11675000D01*
X267109285Y11532142D01*
X267109285Y11389285D01*
X267823571Y11246428D01*
X265823571Y10746428D02*
X265823571Y12246428D01*
X265823571Y10817857D02*
X265966428Y10746428D01*
X266252142Y10746428D01*
X266395000Y10817857D01*
X266466428Y10889285D01*
X266537857Y11032142D01*
X266537857Y11460714D01*
X266466428Y11603571D01*
X266395000Y11675000D01*
X266252142Y11746428D01*
X265966428Y11746428D01*
X265823571Y11675000D01*
X263966428Y10746428D02*
X263966428Y12246428D01*
X263966428Y11675000D02*
X263823571Y11746428D01*
X263537857Y11746428D01*
X263395000Y11675000D01*
X263323571Y11603571D01*
X263252142Y11460714D01*
X263252142Y11032142D01*
X263323571Y10889285D01*
X263395000Y10817857D01*
X263537857Y10746428D01*
X263823571Y10746428D01*
X263966428Y10817857D01*
X262752142Y11746428D02*
X262395000Y10746428D01*
X262037857Y11746428D02*
X262395000Y10746428D01*
X262537857Y10389285D01*
X262609285Y10317857D01*
X262752142Y10246428D01*
X260037857Y12246428D02*
X259895000Y12246428D01*
X259752142Y12175000D01*
X259680714Y12103571D01*
X259609285Y11960714D01*
X259537857Y11675000D01*
X259537857Y11317857D01*
X259609285Y11032142D01*
X259680714Y10889285D01*
X259752142Y10817857D01*
X259895000Y10746428D01*
X260037857Y10746428D01*
X260180714Y10817857D01*
X260252142Y10889285D01*
X260323571Y11032142D01*
X260395000Y11317857D01*
X260395000Y11675000D01*
X260323571Y11960714D01*
X260252142Y12103571D01*
X260180714Y12175000D01*
X260037857Y12246428D01*
X259037857Y10746428D02*
X258252142Y11746428D01*
X259037857Y11746428D02*
X258252142Y10746428D01*
X257395000Y12246428D02*
X257252142Y12246428D01*
X257109285Y12175000D01*
X257037857Y12103571D01*
X256966428Y11960714D01*
X256895000Y11675000D01*
X256895000Y11317857D01*
X256966428Y11032142D01*
X257037857Y10889285D01*
X257109285Y10817857D01*
X257252142Y10746428D01*
X257395000Y10746428D01*
X257537857Y10817857D01*
X257609285Y10889285D01*
X257680714Y11032142D01*
X257752142Y11317857D01*
X257752142Y11675000D01*
X257680714Y11960714D01*
X257609285Y12103571D01*
X257537857Y12175000D01*
X257395000Y12246428D01*
X255609285Y10817857D02*
X255752142Y10746428D01*
X256037857Y10746428D01*
X256180714Y10817857D01*
X256252142Y10889285D01*
X256323571Y11032142D01*
X256323571Y11460714D01*
X256252142Y11603571D01*
X256180714Y11675000D01*
X256037857Y11746428D01*
X255752142Y11746428D01*
X255609285Y11675000D01*
D11*
G04 #@! TO.C,SW_RST1*
X276420000Y-18290000D02*
X276420000Y-17290000D01*
X272220000Y-18290000D02*
X272220000Y-17290000D01*
X272220000Y-16190000D02*
X276420000Y-16190000D01*
X272220000Y-19390000D02*
X276420000Y-19390000D01*
D12*
G04 #@! TO.C,D69*
X264240000Y-83065000D02*
X268300000Y-83065000D01*
X264240000Y-85335000D02*
X264240000Y-83065000D01*
X268300000Y-85335000D02*
X264240000Y-85335000D01*
G04 #@! TO.C,D38*
X239725000Y-47235000D02*
X235665000Y-47235000D01*
X235665000Y-47235000D02*
X235665000Y-44965000D01*
X235665000Y-44965000D02*
X239725000Y-44965000D01*
G04 #@! TO.C,D40*
X49927500Y-64015000D02*
X53987500Y-64015000D01*
X49927500Y-66285000D02*
X49927500Y-64015000D01*
X53987500Y-66285000D02*
X49927500Y-66285000D01*
G04 #@! TO.C,D19*
X92790000Y-25915000D02*
X96850000Y-25915000D01*
X92790000Y-28185000D02*
X92790000Y-25915000D01*
X96850000Y-28185000D02*
X92790000Y-28185000D01*
G04 #@! TO.C,D26*
X230200000Y-28185000D02*
X226140000Y-28185000D01*
X226140000Y-28185000D02*
X226140000Y-25915000D01*
X226140000Y-25915000D02*
X230200000Y-25915000D01*
G04 #@! TO.C,D31*
X102315000Y-44965000D02*
X106375000Y-44965000D01*
X102315000Y-47235000D02*
X102315000Y-44965000D01*
X106375000Y-47235000D02*
X102315000Y-47235000D01*
G04 #@! TO.C,D32*
X121365000Y-44965000D02*
X125425000Y-44965000D01*
X121365000Y-47235000D02*
X121365000Y-44965000D01*
X125425000Y-47235000D02*
X121365000Y-47235000D01*
G04 #@! TO.C,D15*
X20650000Y-28185000D02*
X16590000Y-28185000D01*
X16590000Y-28185000D02*
X16590000Y-25915000D01*
X16590000Y-25915000D02*
X20650000Y-25915000D01*
G04 #@! TO.C,D16*
X39700000Y-28185000D02*
X35640000Y-28185000D01*
X35640000Y-28185000D02*
X35640000Y-25915000D01*
X35640000Y-25915000D02*
X39700000Y-25915000D01*
G04 #@! TO.C,D35*
X182575000Y-47235000D02*
X178515000Y-47235000D01*
X178515000Y-47235000D02*
X178515000Y-44965000D01*
X178515000Y-44965000D02*
X182575000Y-44965000D01*
G04 #@! TO.C,D30*
X83265000Y-44965000D02*
X87325000Y-44965000D01*
X83265000Y-47235000D02*
X83265000Y-44965000D01*
X87325000Y-47235000D02*
X83265000Y-47235000D01*
G04 #@! TO.C,D36*
X201625000Y-47235000D02*
X197565000Y-47235000D01*
X197565000Y-47235000D02*
X197565000Y-44965000D01*
X197565000Y-44965000D02*
X201625000Y-44965000D01*
G04 #@! TO.C,D12*
X207090000Y-6865000D02*
X211150000Y-6865000D01*
X207090000Y-9135000D02*
X207090000Y-6865000D01*
X211150000Y-9135000D02*
X207090000Y-9135000D01*
G04 #@! TO.C,D14*
X-2460000Y-25915000D02*
X1600000Y-25915000D01*
X-2460000Y-28185000D02*
X-2460000Y-25915000D01*
X1600000Y-28185000D02*
X-2460000Y-28185000D01*
G04 #@! TO.C,D17*
X58750000Y-28185000D02*
X54690000Y-28185000D01*
X54690000Y-28185000D02*
X54690000Y-25915000D01*
X54690000Y-25915000D02*
X58750000Y-25915000D01*
G04 #@! TO.C,D13*
X230200000Y-9135000D02*
X226140000Y-9135000D01*
X226140000Y-9135000D02*
X226140000Y-6865000D01*
X226140000Y-6865000D02*
X230200000Y-6865000D01*
G04 #@! TO.C,D18*
X77800000Y-28185000D02*
X73740000Y-28185000D01*
X73740000Y-28185000D02*
X73740000Y-25915000D01*
X73740000Y-25915000D02*
X77800000Y-25915000D01*
G04 #@! TO.C,D21*
X134950000Y-28185000D02*
X130890000Y-28185000D01*
X130890000Y-28185000D02*
X130890000Y-25915000D01*
X130890000Y-25915000D02*
X134950000Y-25915000D01*
G04 #@! TO.C,D23*
X173050000Y-28185000D02*
X168990000Y-28185000D01*
X168990000Y-28185000D02*
X168990000Y-25915000D01*
X168990000Y-25915000D02*
X173050000Y-25915000D01*
G04 #@! TO.C,D27*
X26115000Y-44965000D02*
X30175000Y-44965000D01*
X26115000Y-47235000D02*
X26115000Y-44965000D01*
X30175000Y-47235000D02*
X26115000Y-47235000D01*
G04 #@! TO.C,D28*
X45165000Y-44965000D02*
X49225000Y-44965000D01*
X45165000Y-47235000D02*
X45165000Y-44965000D01*
X49225000Y-47235000D02*
X45165000Y-47235000D01*
G04 #@! TO.C,D22*
X154000000Y-28185000D02*
X149940000Y-28185000D01*
X149940000Y-28185000D02*
X149940000Y-25915000D01*
X149940000Y-25915000D02*
X154000000Y-25915000D01*
G04 #@! TO.C,D29*
X64215000Y-44965000D02*
X68275000Y-44965000D01*
X64215000Y-47235000D02*
X64215000Y-44965000D01*
X68275000Y-47235000D02*
X64215000Y-47235000D01*
G04 #@! TO.C,D25*
X211150000Y-28185000D02*
X207090000Y-28185000D01*
X207090000Y-28185000D02*
X207090000Y-25915000D01*
X207090000Y-25915000D02*
X211150000Y-25915000D01*
G04 #@! TO.C,D33*
X144475000Y-47235000D02*
X140415000Y-47235000D01*
X140415000Y-47235000D02*
X140415000Y-44965000D01*
X140415000Y-44965000D02*
X144475000Y-44965000D01*
G04 #@! TO.C,D20*
X115900000Y-28185000D02*
X111840000Y-28185000D01*
X111840000Y-28185000D02*
X111840000Y-25915000D01*
X111840000Y-25915000D02*
X115900000Y-25915000D01*
G04 #@! TO.C,D34*
X159465000Y-44965000D02*
X163525000Y-44965000D01*
X159465000Y-47235000D02*
X159465000Y-44965000D01*
X163525000Y-47235000D02*
X159465000Y-47235000D01*
G04 #@! TO.C,D37*
X220675000Y-47235000D02*
X216615000Y-47235000D01*
X216615000Y-47235000D02*
X216615000Y-44965000D01*
X216615000Y-44965000D02*
X220675000Y-44965000D01*
G04 #@! TO.C,D24*
X192100000Y-28185000D02*
X188040000Y-28185000D01*
X188040000Y-28185000D02*
X188040000Y-25915000D01*
X188040000Y-25915000D02*
X192100000Y-25915000D01*
G04 #@! TO.C,D39*
X34937500Y-66285000D02*
X30877500Y-66285000D01*
X30877500Y-66285000D02*
X30877500Y-64015000D01*
X30877500Y-64015000D02*
X34937500Y-64015000D01*
G04 #@! TO.C,D42*
X92087500Y-66285000D02*
X88027500Y-66285000D01*
X88027500Y-66285000D02*
X88027500Y-64015000D01*
X88027500Y-64015000D02*
X92087500Y-64015000D01*
G04 #@! TO.C,D50*
X40402500Y-83065000D02*
X44462500Y-83065000D01*
X40402500Y-85335000D02*
X40402500Y-83065000D01*
X44462500Y-85335000D02*
X40402500Y-85335000D01*
G04 #@! TO.C,D51*
X59452500Y-83065000D02*
X63512500Y-83065000D01*
X59452500Y-85335000D02*
X59452500Y-83065000D01*
X63512500Y-85335000D02*
X59452500Y-85335000D01*
G04 #@! TO.C,D59*
X211852500Y-83065000D02*
X215912500Y-83065000D01*
X211852500Y-85335000D02*
X211852500Y-83065000D01*
X215912500Y-85335000D02*
X211852500Y-85335000D01*
G04 #@! TO.C,D63*
X139712500Y-104385000D02*
X135652500Y-104385000D01*
X135652500Y-104385000D02*
X135652500Y-102115000D01*
X135652500Y-102115000D02*
X139712500Y-102115000D01*
G04 #@! TO.C,D43*
X111137500Y-66285000D02*
X107077500Y-66285000D01*
X107077500Y-66285000D02*
X107077500Y-64015000D01*
X107077500Y-64015000D02*
X111137500Y-64015000D01*
G04 #@! TO.C,D44*
X130187500Y-66285000D02*
X126127500Y-66285000D01*
X126127500Y-66285000D02*
X126127500Y-64015000D01*
X126127500Y-64015000D02*
X130187500Y-64015000D01*
G04 #@! TO.C,D64*
X158762500Y-104385000D02*
X154702500Y-104385000D01*
X154702500Y-104385000D02*
X154702500Y-102115000D01*
X154702500Y-102115000D02*
X158762500Y-102115000D01*
G04 #@! TO.C,D65*
X245190000Y-83065000D02*
X249250000Y-83065000D01*
X245190000Y-85335000D02*
X245190000Y-83065000D01*
X249250000Y-85335000D02*
X245190000Y-85335000D01*
G04 #@! TO.C,D48*
X202327500Y-64015000D02*
X206387500Y-64015000D01*
X202327500Y-66285000D02*
X202327500Y-64015000D01*
X206387500Y-66285000D02*
X202327500Y-66285000D01*
G04 #@! TO.C,D61*
X101612500Y-104385000D02*
X97552500Y-104385000D01*
X97552500Y-104385000D02*
X97552500Y-102115000D01*
X97552500Y-102115000D02*
X101612500Y-102115000D01*
G04 #@! TO.C,D62*
X120662500Y-104385000D02*
X116602500Y-104385000D01*
X116602500Y-104385000D02*
X116602500Y-102115000D01*
X116602500Y-102115000D02*
X120662500Y-102115000D01*
G04 #@! TO.C,D66*
X226140000Y-102115000D02*
X230200000Y-102115000D01*
X226140000Y-104385000D02*
X226140000Y-102115000D01*
X230200000Y-104385000D02*
X226140000Y-104385000D01*
G04 #@! TO.C,D60*
X78502500Y-102115000D02*
X82562500Y-102115000D01*
X78502500Y-104385000D02*
X78502500Y-102115000D01*
X82562500Y-104385000D02*
X78502500Y-104385000D01*
G04 #@! TO.C,D67*
X245190000Y-102115000D02*
X249250000Y-102115000D01*
X245190000Y-104385000D02*
X245190000Y-102115000D01*
X249250000Y-104385000D02*
X245190000Y-104385000D01*
G04 #@! TO.C,D56*
X158762500Y-85335000D02*
X154702500Y-85335000D01*
X154702500Y-85335000D02*
X154702500Y-83065000D01*
X154702500Y-83065000D02*
X158762500Y-83065000D01*
G04 #@! TO.C,D45*
X149237500Y-66285000D02*
X145177500Y-66285000D01*
X145177500Y-66285000D02*
X145177500Y-64015000D01*
X145177500Y-64015000D02*
X149237500Y-64015000D01*
G04 #@! TO.C,D58*
X196862500Y-85335000D02*
X192802500Y-85335000D01*
X192802500Y-85335000D02*
X192802500Y-83065000D01*
X192802500Y-83065000D02*
X196862500Y-83065000D01*
G04 #@! TO.C,D46*
X164227500Y-64015000D02*
X168287500Y-64015000D01*
X164227500Y-66285000D02*
X164227500Y-64015000D01*
X168287500Y-66285000D02*
X164227500Y-66285000D01*
G04 #@! TO.C,D53*
X101612500Y-85335000D02*
X97552500Y-85335000D01*
X97552500Y-85335000D02*
X97552500Y-83065000D01*
X97552500Y-83065000D02*
X101612500Y-83065000D01*
G04 #@! TO.C,D55*
X139712500Y-85335000D02*
X135652500Y-85335000D01*
X135652500Y-85335000D02*
X135652500Y-83065000D01*
X135652500Y-83065000D02*
X139712500Y-83065000D01*
G04 #@! TO.C,D52*
X78502500Y-83065000D02*
X82562500Y-83065000D01*
X78502500Y-85335000D02*
X78502500Y-83065000D01*
X82562500Y-85335000D02*
X78502500Y-85335000D01*
G04 #@! TO.C,D47*
X187337500Y-66285000D02*
X183277500Y-66285000D01*
X183277500Y-66285000D02*
X183277500Y-64015000D01*
X183277500Y-64015000D02*
X187337500Y-64015000D01*
G04 #@! TO.C,D41*
X68977500Y-64015000D02*
X73037500Y-64015000D01*
X68977500Y-66285000D02*
X68977500Y-64015000D01*
X73037500Y-66285000D02*
X68977500Y-66285000D01*
G04 #@! TO.C,D54*
X116602500Y-83065000D02*
X120662500Y-83065000D01*
X116602500Y-85335000D02*
X116602500Y-83065000D01*
X120662500Y-85335000D02*
X116602500Y-85335000D01*
G04 #@! TO.C,D57*
X177812500Y-85335000D02*
X173752500Y-85335000D01*
X173752500Y-85335000D02*
X173752500Y-83065000D01*
X173752500Y-83065000D02*
X177812500Y-83065000D01*
G04 #@! TO.C,D49*
X221377500Y-64015000D02*
X225437500Y-64015000D01*
X221377500Y-66285000D02*
X221377500Y-64015000D01*
X225437500Y-66285000D02*
X221377500Y-66285000D01*
G04 #@! TO.C,D602*
X13580600Y-85335000D02*
X9520600Y-85335000D01*
X9520600Y-85335000D02*
X9520600Y-83065000D01*
X9520600Y-83065000D02*
X13580600Y-83065000D01*
G04 #@! TO.C,D301*
X8744000Y-66285000D02*
X4684000Y-66285000D01*
X4684000Y-66285000D02*
X4684000Y-64015000D01*
X4684000Y-64015000D02*
X8744000Y-64015000D01*
G04 #@! TO.C,D202*
X259478000Y-44965000D02*
X263538000Y-44965000D01*
X259478000Y-47235000D02*
X259478000Y-44965000D01*
X263538000Y-47235000D02*
X259478000Y-47235000D01*
G04 #@! TO.C,D104*
X176133500Y-102115000D02*
X180193500Y-102115000D01*
X176133500Y-104385000D02*
X176133500Y-102115000D01*
X180193500Y-104385000D02*
X176133500Y-104385000D01*
G04 #@! TO.C,D201*
X2303000Y-44965000D02*
X6363000Y-44965000D01*
X2303000Y-47235000D02*
X2303000Y-44965000D01*
X6363000Y-47235000D02*
X2303000Y-47235000D01*
G04 #@! TO.C,D401*
X258775000Y-28185000D02*
X254715000Y-28185000D01*
X254715000Y-28185000D02*
X254715000Y-25915000D01*
X254715000Y-25915000D02*
X258775000Y-25915000D01*
G04 #@! TO.C,D601*
X252408100Y-64015000D02*
X256468100Y-64015000D01*
X252408100Y-66285000D02*
X252408100Y-64015000D01*
X256468100Y-66285000D02*
X252408100Y-66285000D01*
G04 #@! TO.C,D102*
X33258500Y-102115000D02*
X37318500Y-102115000D01*
X33258500Y-104385000D02*
X33258500Y-102115000D01*
X37318500Y-104385000D02*
X33258500Y-104385000D01*
G04 #@! TO.C,D68*
X264240000Y-102115000D02*
X268300000Y-102115000D01*
X264240000Y-104385000D02*
X264240000Y-102115000D01*
X268300000Y-104385000D02*
X264240000Y-104385000D01*
G04 #@! TO.C,D101*
X9446000Y-102115000D02*
X13506000Y-102115000D01*
X9446000Y-104385000D02*
X9446000Y-102115000D01*
X13506000Y-104385000D02*
X9446000Y-104385000D01*
G04 #@! TO.C,D105*
X199946000Y-102115000D02*
X204006000Y-102115000D01*
X199946000Y-104385000D02*
X199946000Y-102115000D01*
X204006000Y-104385000D02*
X199946000Y-104385000D01*
G04 #@! TO.C,D103*
X57071000Y-102115000D02*
X61131000Y-102115000D01*
X57071000Y-104385000D02*
X57071000Y-102115000D01*
X61131000Y-104385000D02*
X57071000Y-104385000D01*
G04 #@! TO.C,D6*
X92790000Y-6865000D02*
X96850000Y-6865000D01*
X92790000Y-9135000D02*
X92790000Y-6865000D01*
X96850000Y-9135000D02*
X92790000Y-9135000D01*
G04 #@! TO.C,D4*
X54690000Y-6865000D02*
X58750000Y-6865000D01*
X54690000Y-9135000D02*
X54690000Y-6865000D01*
X58750000Y-9135000D02*
X54690000Y-9135000D01*
G04 #@! TO.C,D8*
X130890000Y-6865000D02*
X134950000Y-6865000D01*
X130890000Y-9135000D02*
X130890000Y-6865000D01*
X134950000Y-9135000D02*
X130890000Y-9135000D01*
G04 #@! TO.C,D2*
X16590000Y-6865000D02*
X20650000Y-6865000D01*
X16590000Y-9135000D02*
X16590000Y-6865000D01*
X20650000Y-9135000D02*
X16590000Y-9135000D01*
G04 #@! TO.C,D3*
X39700000Y-9135000D02*
X35640000Y-9135000D01*
X35640000Y-9135000D02*
X35640000Y-6865000D01*
X35640000Y-6865000D02*
X39700000Y-6865000D01*
G04 #@! TO.C,D1*
X-2460000Y-6865000D02*
X1600000Y-6865000D01*
X-2460000Y-9135000D02*
X-2460000Y-6865000D01*
X1600000Y-9135000D02*
X-2460000Y-9135000D01*
G04 #@! TO.C,D7*
X115900000Y-9135000D02*
X111840000Y-9135000D01*
X111840000Y-9135000D02*
X111840000Y-6865000D01*
X111840000Y-6865000D02*
X115900000Y-6865000D01*
G04 #@! TO.C,D9*
X154000000Y-9135000D02*
X149940000Y-9135000D01*
X149940000Y-9135000D02*
X149940000Y-6865000D01*
X149940000Y-6865000D02*
X154000000Y-6865000D01*
G04 #@! TO.C,D5*
X73740000Y-6865000D02*
X77800000Y-6865000D01*
X73740000Y-9135000D02*
X73740000Y-6865000D01*
X77800000Y-9135000D02*
X73740000Y-9135000D01*
G04 #@! TO.C,D10*
X173050000Y-9135000D02*
X168990000Y-9135000D01*
X168990000Y-9135000D02*
X168990000Y-6865000D01*
X168990000Y-6865000D02*
X173050000Y-6865000D01*
G04 #@! TO.C,D11*
X188040000Y-6865000D02*
X192100000Y-6865000D01*
X188040000Y-9135000D02*
X188040000Y-6865000D01*
X192100000Y-9135000D02*
X188040000Y-9135000D01*
D13*
G04 #@! TO.C,U1*
X281940000Y6350000D02*
X281940000Y8890000D01*
X284480000Y-8890000D02*
X284480000Y8890000D01*
X284480000Y8890000D02*
X251460000Y8890000D01*
X251460000Y8890000D02*
X251460000Y-8890000D01*
X251460000Y-8890000D02*
X284480000Y-8890000D01*
D11*
G36*
X276050970Y-5844635D02*
G01*
X275950970Y-5844635D01*
X275950970Y-6344635D01*
X276050970Y-6344635D01*
X276050970Y-5844635D01*
G37*
X276050970Y-5844635D02*
X275950970Y-5844635D01*
X275950970Y-6344635D01*
X276050970Y-6344635D01*
X276050970Y-5844635D01*
G36*
X276050970Y-5844635D02*
G01*
X275750970Y-5844635D01*
X275750970Y-5944635D01*
X276050970Y-5944635D01*
X276050970Y-5844635D01*
G37*
X276050970Y-5844635D02*
X275750970Y-5844635D01*
X275750970Y-5944635D01*
X276050970Y-5944635D01*
X276050970Y-5844635D01*
G36*
X275450970Y-5844635D02*
G01*
X275250970Y-5844635D01*
X275250970Y-5944635D01*
X275450970Y-5944635D01*
X275450970Y-5844635D01*
G37*
X275450970Y-5844635D02*
X275250970Y-5844635D01*
X275250970Y-5944635D01*
X275450970Y-5944635D01*
X275450970Y-5844635D01*
G36*
X276050970Y-6244635D02*
G01*
X275250970Y-6244635D01*
X275250970Y-6344635D01*
X276050970Y-6344635D01*
X276050970Y-6244635D01*
G37*
X276050970Y-6244635D02*
X275250970Y-6244635D01*
X275250970Y-6344635D01*
X276050970Y-6344635D01*
X276050970Y-6244635D01*
G36*
X275650970Y-6044635D02*
G01*
X275550970Y-6044635D01*
X275550970Y-6144635D01*
X275650970Y-6144635D01*
X275650970Y-6044635D01*
G37*
X275650970Y-6044635D02*
X275550970Y-6044635D01*
X275550970Y-6144635D01*
X275650970Y-6144635D01*
X275650970Y-6044635D01*
D13*
X281940000Y6350000D02*
X279400000Y6350000D01*
X279400000Y6350000D02*
X279400000Y8890000D01*
G04 #@! TO.C,SW_RST1*
D11*
X276756428Y-20724761D02*
X276613571Y-20772380D01*
X276375476Y-20772380D01*
X276280238Y-20724761D01*
X276232619Y-20677142D01*
X276185000Y-20581904D01*
X276185000Y-20486666D01*
X276232619Y-20391428D01*
X276280238Y-20343809D01*
X276375476Y-20296190D01*
X276565952Y-20248571D01*
X276661190Y-20200952D01*
X276708809Y-20153333D01*
X276756428Y-20058095D01*
X276756428Y-19962857D01*
X276708809Y-19867619D01*
X276661190Y-19820000D01*
X276565952Y-19772380D01*
X276327857Y-19772380D01*
X276185000Y-19820000D01*
X275851666Y-19772380D02*
X275613571Y-20772380D01*
X275423095Y-20058095D01*
X275232619Y-20772380D01*
X274994523Y-19772380D01*
X274851666Y-20867619D02*
X274089761Y-20867619D01*
X273280238Y-20772380D02*
X273613571Y-20296190D01*
X273851666Y-20772380D02*
X273851666Y-19772380D01*
X273470714Y-19772380D01*
X273375476Y-19820000D01*
X273327857Y-19867619D01*
X273280238Y-19962857D01*
X273280238Y-20105714D01*
X273327857Y-20200952D01*
X273375476Y-20248571D01*
X273470714Y-20296190D01*
X273851666Y-20296190D01*
X272899285Y-20724761D02*
X272756428Y-20772380D01*
X272518333Y-20772380D01*
X272423095Y-20724761D01*
X272375476Y-20677142D01*
X272327857Y-20581904D01*
X272327857Y-20486666D01*
X272375476Y-20391428D01*
X272423095Y-20343809D01*
X272518333Y-20296190D01*
X272708809Y-20248571D01*
X272804047Y-20200952D01*
X272851666Y-20153333D01*
X272899285Y-20058095D01*
X272899285Y-19962857D01*
X272851666Y-19867619D01*
X272804047Y-19820000D01*
X272708809Y-19772380D01*
X272470714Y-19772380D01*
X272327857Y-19820000D01*
X272042142Y-19772380D02*
X271470714Y-19772380D01*
X271756428Y-20772380D02*
X271756428Y-19772380D01*
X270613571Y-20772380D02*
X271185000Y-20772380D01*
X270899285Y-20772380D02*
X270899285Y-19772380D01*
X270994523Y-19915238D01*
X271089761Y-20010476D01*
X271185000Y-20058095D01*
G04 #@! TO.C,D69*
X267914285Y-86472380D02*
X267914285Y-85472380D01*
X267676190Y-85472380D01*
X267533333Y-85520000D01*
X267438095Y-85615238D01*
X267390476Y-85710476D01*
X267342857Y-85900952D01*
X267342857Y-86043809D01*
X267390476Y-86234285D01*
X267438095Y-86329523D01*
X267533333Y-86424761D01*
X267676190Y-86472380D01*
X267914285Y-86472380D01*
X266485714Y-85472380D02*
X266676190Y-85472380D01*
X266771428Y-85520000D01*
X266819047Y-85567619D01*
X266914285Y-85710476D01*
X266961904Y-85900952D01*
X266961904Y-86281904D01*
X266914285Y-86377142D01*
X266866666Y-86424761D01*
X266771428Y-86472380D01*
X266580952Y-86472380D01*
X266485714Y-86424761D01*
X266438095Y-86377142D01*
X266390476Y-86281904D01*
X266390476Y-86043809D01*
X266438095Y-85948571D01*
X266485714Y-85900952D01*
X266580952Y-85853333D01*
X266771428Y-85853333D01*
X266866666Y-85900952D01*
X266914285Y-85948571D01*
X266961904Y-86043809D01*
X265914285Y-86472380D02*
X265723809Y-86472380D01*
X265628571Y-86424761D01*
X265580952Y-86377142D01*
X265485714Y-86234285D01*
X265438095Y-86043809D01*
X265438095Y-85662857D01*
X265485714Y-85567619D01*
X265533333Y-85520000D01*
X265628571Y-85472380D01*
X265819047Y-85472380D01*
X265914285Y-85520000D01*
X265961904Y-85567619D01*
X266009523Y-85662857D01*
X266009523Y-85900952D01*
X265961904Y-85996190D01*
X265914285Y-86043809D01*
X265819047Y-86091428D01*
X265628571Y-86091428D01*
X265533333Y-86043809D01*
X265485714Y-85996190D01*
X265438095Y-85900952D01*
G04 #@! TO.C,D38*
X239339285Y-48372380D02*
X239339285Y-47372380D01*
X239101190Y-47372380D01*
X238958333Y-47420000D01*
X238863095Y-47515238D01*
X238815476Y-47610476D01*
X238767857Y-47800952D01*
X238767857Y-47943809D01*
X238815476Y-48134285D01*
X238863095Y-48229523D01*
X238958333Y-48324761D01*
X239101190Y-48372380D01*
X239339285Y-48372380D01*
X238434523Y-47372380D02*
X237815476Y-47372380D01*
X238148809Y-47753333D01*
X238005952Y-47753333D01*
X237910714Y-47800952D01*
X237863095Y-47848571D01*
X237815476Y-47943809D01*
X237815476Y-48181904D01*
X237863095Y-48277142D01*
X237910714Y-48324761D01*
X238005952Y-48372380D01*
X238291666Y-48372380D01*
X238386904Y-48324761D01*
X238434523Y-48277142D01*
X237244047Y-47800952D02*
X237339285Y-47753333D01*
X237386904Y-47705714D01*
X237434523Y-47610476D01*
X237434523Y-47562857D01*
X237386904Y-47467619D01*
X237339285Y-47420000D01*
X237244047Y-47372380D01*
X237053571Y-47372380D01*
X236958333Y-47420000D01*
X236910714Y-47467619D01*
X236863095Y-47562857D01*
X236863095Y-47610476D01*
X236910714Y-47705714D01*
X236958333Y-47753333D01*
X237053571Y-47800952D01*
X237244047Y-47800952D01*
X237339285Y-47848571D01*
X237386904Y-47896190D01*
X237434523Y-47991428D01*
X237434523Y-48181904D01*
X237386904Y-48277142D01*
X237339285Y-48324761D01*
X237244047Y-48372380D01*
X237053571Y-48372380D01*
X236958333Y-48324761D01*
X236910714Y-48277142D01*
X236863095Y-48181904D01*
X236863095Y-47991428D01*
X236910714Y-47896190D01*
X236958333Y-47848571D01*
X237053571Y-47800952D01*
G04 #@! TO.C,D40*
X53601785Y-67422380D02*
X53601785Y-66422380D01*
X53363690Y-66422380D01*
X53220833Y-66470000D01*
X53125595Y-66565238D01*
X53077976Y-66660476D01*
X53030357Y-66850952D01*
X53030357Y-66993809D01*
X53077976Y-67184285D01*
X53125595Y-67279523D01*
X53220833Y-67374761D01*
X53363690Y-67422380D01*
X53601785Y-67422380D01*
X52173214Y-66755714D02*
X52173214Y-67422380D01*
X52411309Y-66374761D02*
X52649404Y-67089047D01*
X52030357Y-67089047D01*
X51458928Y-66422380D02*
X51363690Y-66422380D01*
X51268452Y-66470000D01*
X51220833Y-66517619D01*
X51173214Y-66612857D01*
X51125595Y-66803333D01*
X51125595Y-67041428D01*
X51173214Y-67231904D01*
X51220833Y-67327142D01*
X51268452Y-67374761D01*
X51363690Y-67422380D01*
X51458928Y-67422380D01*
X51554166Y-67374761D01*
X51601785Y-67327142D01*
X51649404Y-67231904D01*
X51697023Y-67041428D01*
X51697023Y-66803333D01*
X51649404Y-66612857D01*
X51601785Y-66517619D01*
X51554166Y-66470000D01*
X51458928Y-66422380D01*
G04 #@! TO.C,D19*
X96464285Y-29322380D02*
X96464285Y-28322380D01*
X96226190Y-28322380D01*
X96083333Y-28370000D01*
X95988095Y-28465238D01*
X95940476Y-28560476D01*
X95892857Y-28750952D01*
X95892857Y-28893809D01*
X95940476Y-29084285D01*
X95988095Y-29179523D01*
X96083333Y-29274761D01*
X96226190Y-29322380D01*
X96464285Y-29322380D01*
X94940476Y-29322380D02*
X95511904Y-29322380D01*
X95226190Y-29322380D02*
X95226190Y-28322380D01*
X95321428Y-28465238D01*
X95416666Y-28560476D01*
X95511904Y-28608095D01*
X94464285Y-29322380D02*
X94273809Y-29322380D01*
X94178571Y-29274761D01*
X94130952Y-29227142D01*
X94035714Y-29084285D01*
X93988095Y-28893809D01*
X93988095Y-28512857D01*
X94035714Y-28417619D01*
X94083333Y-28370000D01*
X94178571Y-28322380D01*
X94369047Y-28322380D01*
X94464285Y-28370000D01*
X94511904Y-28417619D01*
X94559523Y-28512857D01*
X94559523Y-28750952D01*
X94511904Y-28846190D01*
X94464285Y-28893809D01*
X94369047Y-28941428D01*
X94178571Y-28941428D01*
X94083333Y-28893809D01*
X94035714Y-28846190D01*
X93988095Y-28750952D01*
G04 #@! TO.C,D26*
X229814285Y-29322380D02*
X229814285Y-28322380D01*
X229576190Y-28322380D01*
X229433333Y-28370000D01*
X229338095Y-28465238D01*
X229290476Y-28560476D01*
X229242857Y-28750952D01*
X229242857Y-28893809D01*
X229290476Y-29084285D01*
X229338095Y-29179523D01*
X229433333Y-29274761D01*
X229576190Y-29322380D01*
X229814285Y-29322380D01*
X228861904Y-28417619D02*
X228814285Y-28370000D01*
X228719047Y-28322380D01*
X228480952Y-28322380D01*
X228385714Y-28370000D01*
X228338095Y-28417619D01*
X228290476Y-28512857D01*
X228290476Y-28608095D01*
X228338095Y-28750952D01*
X228909523Y-29322380D01*
X228290476Y-29322380D01*
X227433333Y-28322380D02*
X227623809Y-28322380D01*
X227719047Y-28370000D01*
X227766666Y-28417619D01*
X227861904Y-28560476D01*
X227909523Y-28750952D01*
X227909523Y-29131904D01*
X227861904Y-29227142D01*
X227814285Y-29274761D01*
X227719047Y-29322380D01*
X227528571Y-29322380D01*
X227433333Y-29274761D01*
X227385714Y-29227142D01*
X227338095Y-29131904D01*
X227338095Y-28893809D01*
X227385714Y-28798571D01*
X227433333Y-28750952D01*
X227528571Y-28703333D01*
X227719047Y-28703333D01*
X227814285Y-28750952D01*
X227861904Y-28798571D01*
X227909523Y-28893809D01*
G04 #@! TO.C,D31*
X105989285Y-48372380D02*
X105989285Y-47372380D01*
X105751190Y-47372380D01*
X105608333Y-47420000D01*
X105513095Y-47515238D01*
X105465476Y-47610476D01*
X105417857Y-47800952D01*
X105417857Y-47943809D01*
X105465476Y-48134285D01*
X105513095Y-48229523D01*
X105608333Y-48324761D01*
X105751190Y-48372380D01*
X105989285Y-48372380D01*
X105084523Y-47372380D02*
X104465476Y-47372380D01*
X104798809Y-47753333D01*
X104655952Y-47753333D01*
X104560714Y-47800952D01*
X104513095Y-47848571D01*
X104465476Y-47943809D01*
X104465476Y-48181904D01*
X104513095Y-48277142D01*
X104560714Y-48324761D01*
X104655952Y-48372380D01*
X104941666Y-48372380D01*
X105036904Y-48324761D01*
X105084523Y-48277142D01*
X103513095Y-48372380D02*
X104084523Y-48372380D01*
X103798809Y-48372380D02*
X103798809Y-47372380D01*
X103894047Y-47515238D01*
X103989285Y-47610476D01*
X104084523Y-47658095D01*
G04 #@! TO.C,D32*
X125039285Y-48372380D02*
X125039285Y-47372380D01*
X124801190Y-47372380D01*
X124658333Y-47420000D01*
X124563095Y-47515238D01*
X124515476Y-47610476D01*
X124467857Y-47800952D01*
X124467857Y-47943809D01*
X124515476Y-48134285D01*
X124563095Y-48229523D01*
X124658333Y-48324761D01*
X124801190Y-48372380D01*
X125039285Y-48372380D01*
X124134523Y-47372380D02*
X123515476Y-47372380D01*
X123848809Y-47753333D01*
X123705952Y-47753333D01*
X123610714Y-47800952D01*
X123563095Y-47848571D01*
X123515476Y-47943809D01*
X123515476Y-48181904D01*
X123563095Y-48277142D01*
X123610714Y-48324761D01*
X123705952Y-48372380D01*
X123991666Y-48372380D01*
X124086904Y-48324761D01*
X124134523Y-48277142D01*
X123134523Y-47467619D02*
X123086904Y-47420000D01*
X122991666Y-47372380D01*
X122753571Y-47372380D01*
X122658333Y-47420000D01*
X122610714Y-47467619D01*
X122563095Y-47562857D01*
X122563095Y-47658095D01*
X122610714Y-47800952D01*
X123182142Y-48372380D01*
X122563095Y-48372380D01*
G04 #@! TO.C,D15*
X20264285Y-29322380D02*
X20264285Y-28322380D01*
X20026190Y-28322380D01*
X19883333Y-28370000D01*
X19788095Y-28465238D01*
X19740476Y-28560476D01*
X19692857Y-28750952D01*
X19692857Y-28893809D01*
X19740476Y-29084285D01*
X19788095Y-29179523D01*
X19883333Y-29274761D01*
X20026190Y-29322380D01*
X20264285Y-29322380D01*
X18740476Y-29322380D02*
X19311904Y-29322380D01*
X19026190Y-29322380D02*
X19026190Y-28322380D01*
X19121428Y-28465238D01*
X19216666Y-28560476D01*
X19311904Y-28608095D01*
X17835714Y-28322380D02*
X18311904Y-28322380D01*
X18359523Y-28798571D01*
X18311904Y-28750952D01*
X18216666Y-28703333D01*
X17978571Y-28703333D01*
X17883333Y-28750952D01*
X17835714Y-28798571D01*
X17788095Y-28893809D01*
X17788095Y-29131904D01*
X17835714Y-29227142D01*
X17883333Y-29274761D01*
X17978571Y-29322380D01*
X18216666Y-29322380D01*
X18311904Y-29274761D01*
X18359523Y-29227142D01*
G04 #@! TO.C,D16*
X39314285Y-29322380D02*
X39314285Y-28322380D01*
X39076190Y-28322380D01*
X38933333Y-28370000D01*
X38838095Y-28465238D01*
X38790476Y-28560476D01*
X38742857Y-28750952D01*
X38742857Y-28893809D01*
X38790476Y-29084285D01*
X38838095Y-29179523D01*
X38933333Y-29274761D01*
X39076190Y-29322380D01*
X39314285Y-29322380D01*
X37790476Y-29322380D02*
X38361904Y-29322380D01*
X38076190Y-29322380D02*
X38076190Y-28322380D01*
X38171428Y-28465238D01*
X38266666Y-28560476D01*
X38361904Y-28608095D01*
X36933333Y-28322380D02*
X37123809Y-28322380D01*
X37219047Y-28370000D01*
X37266666Y-28417619D01*
X37361904Y-28560476D01*
X37409523Y-28750952D01*
X37409523Y-29131904D01*
X37361904Y-29227142D01*
X37314285Y-29274761D01*
X37219047Y-29322380D01*
X37028571Y-29322380D01*
X36933333Y-29274761D01*
X36885714Y-29227142D01*
X36838095Y-29131904D01*
X36838095Y-28893809D01*
X36885714Y-28798571D01*
X36933333Y-28750952D01*
X37028571Y-28703333D01*
X37219047Y-28703333D01*
X37314285Y-28750952D01*
X37361904Y-28798571D01*
X37409523Y-28893809D01*
G04 #@! TO.C,D35*
X182189285Y-48372380D02*
X182189285Y-47372380D01*
X181951190Y-47372380D01*
X181808333Y-47420000D01*
X181713095Y-47515238D01*
X181665476Y-47610476D01*
X181617857Y-47800952D01*
X181617857Y-47943809D01*
X181665476Y-48134285D01*
X181713095Y-48229523D01*
X181808333Y-48324761D01*
X181951190Y-48372380D01*
X182189285Y-48372380D01*
X181284523Y-47372380D02*
X180665476Y-47372380D01*
X180998809Y-47753333D01*
X180855952Y-47753333D01*
X180760714Y-47800952D01*
X180713095Y-47848571D01*
X180665476Y-47943809D01*
X180665476Y-48181904D01*
X180713095Y-48277142D01*
X180760714Y-48324761D01*
X180855952Y-48372380D01*
X181141666Y-48372380D01*
X181236904Y-48324761D01*
X181284523Y-48277142D01*
X179760714Y-47372380D02*
X180236904Y-47372380D01*
X180284523Y-47848571D01*
X180236904Y-47800952D01*
X180141666Y-47753333D01*
X179903571Y-47753333D01*
X179808333Y-47800952D01*
X179760714Y-47848571D01*
X179713095Y-47943809D01*
X179713095Y-48181904D01*
X179760714Y-48277142D01*
X179808333Y-48324761D01*
X179903571Y-48372380D01*
X180141666Y-48372380D01*
X180236904Y-48324761D01*
X180284523Y-48277142D01*
G04 #@! TO.C,D30*
X86939285Y-48372380D02*
X86939285Y-47372380D01*
X86701190Y-47372380D01*
X86558333Y-47420000D01*
X86463095Y-47515238D01*
X86415476Y-47610476D01*
X86367857Y-47800952D01*
X86367857Y-47943809D01*
X86415476Y-48134285D01*
X86463095Y-48229523D01*
X86558333Y-48324761D01*
X86701190Y-48372380D01*
X86939285Y-48372380D01*
X86034523Y-47372380D02*
X85415476Y-47372380D01*
X85748809Y-47753333D01*
X85605952Y-47753333D01*
X85510714Y-47800952D01*
X85463095Y-47848571D01*
X85415476Y-47943809D01*
X85415476Y-48181904D01*
X85463095Y-48277142D01*
X85510714Y-48324761D01*
X85605952Y-48372380D01*
X85891666Y-48372380D01*
X85986904Y-48324761D01*
X86034523Y-48277142D01*
X84796428Y-47372380D02*
X84701190Y-47372380D01*
X84605952Y-47420000D01*
X84558333Y-47467619D01*
X84510714Y-47562857D01*
X84463095Y-47753333D01*
X84463095Y-47991428D01*
X84510714Y-48181904D01*
X84558333Y-48277142D01*
X84605952Y-48324761D01*
X84701190Y-48372380D01*
X84796428Y-48372380D01*
X84891666Y-48324761D01*
X84939285Y-48277142D01*
X84986904Y-48181904D01*
X85034523Y-47991428D01*
X85034523Y-47753333D01*
X84986904Y-47562857D01*
X84939285Y-47467619D01*
X84891666Y-47420000D01*
X84796428Y-47372380D01*
G04 #@! TO.C,D36*
X201239285Y-48372380D02*
X201239285Y-47372380D01*
X201001190Y-47372380D01*
X200858333Y-47420000D01*
X200763095Y-47515238D01*
X200715476Y-47610476D01*
X200667857Y-47800952D01*
X200667857Y-47943809D01*
X200715476Y-48134285D01*
X200763095Y-48229523D01*
X200858333Y-48324761D01*
X201001190Y-48372380D01*
X201239285Y-48372380D01*
X200334523Y-47372380D02*
X199715476Y-47372380D01*
X200048809Y-47753333D01*
X199905952Y-47753333D01*
X199810714Y-47800952D01*
X199763095Y-47848571D01*
X199715476Y-47943809D01*
X199715476Y-48181904D01*
X199763095Y-48277142D01*
X199810714Y-48324761D01*
X199905952Y-48372380D01*
X200191666Y-48372380D01*
X200286904Y-48324761D01*
X200334523Y-48277142D01*
X198858333Y-47372380D02*
X199048809Y-47372380D01*
X199144047Y-47420000D01*
X199191666Y-47467619D01*
X199286904Y-47610476D01*
X199334523Y-47800952D01*
X199334523Y-48181904D01*
X199286904Y-48277142D01*
X199239285Y-48324761D01*
X199144047Y-48372380D01*
X198953571Y-48372380D01*
X198858333Y-48324761D01*
X198810714Y-48277142D01*
X198763095Y-48181904D01*
X198763095Y-47943809D01*
X198810714Y-47848571D01*
X198858333Y-47800952D01*
X198953571Y-47753333D01*
X199144047Y-47753333D01*
X199239285Y-47800952D01*
X199286904Y-47848571D01*
X199334523Y-47943809D01*
G04 #@! TO.C,D12*
X210764285Y-10272380D02*
X210764285Y-9272380D01*
X210526190Y-9272380D01*
X210383333Y-9320000D01*
X210288095Y-9415238D01*
X210240476Y-9510476D01*
X210192857Y-9700952D01*
X210192857Y-9843809D01*
X210240476Y-10034285D01*
X210288095Y-10129523D01*
X210383333Y-10224761D01*
X210526190Y-10272380D01*
X210764285Y-10272380D01*
X209240476Y-10272380D02*
X209811904Y-10272380D01*
X209526190Y-10272380D02*
X209526190Y-9272380D01*
X209621428Y-9415238D01*
X209716666Y-9510476D01*
X209811904Y-9558095D01*
X208859523Y-9367619D02*
X208811904Y-9320000D01*
X208716666Y-9272380D01*
X208478571Y-9272380D01*
X208383333Y-9320000D01*
X208335714Y-9367619D01*
X208288095Y-9462857D01*
X208288095Y-9558095D01*
X208335714Y-9700952D01*
X208907142Y-10272380D01*
X208288095Y-10272380D01*
G04 #@! TO.C,D14*
X1214285Y-29322380D02*
X1214285Y-28322380D01*
X976190Y-28322380D01*
X833333Y-28370000D01*
X738095Y-28465238D01*
X690476Y-28560476D01*
X642857Y-28750952D01*
X642857Y-28893809D01*
X690476Y-29084285D01*
X738095Y-29179523D01*
X833333Y-29274761D01*
X976190Y-29322380D01*
X1214285Y-29322380D01*
X-309523Y-29322380D02*
X261904Y-29322380D01*
X-23809Y-29322380D02*
X-23809Y-28322380D01*
X71428Y-28465238D01*
X166666Y-28560476D01*
X261904Y-28608095D01*
X-1166666Y-28655714D02*
X-1166666Y-29322380D01*
X-928571Y-28274761D02*
X-690476Y-28989047D01*
X-1309523Y-28989047D01*
G04 #@! TO.C,D17*
X58364285Y-29322380D02*
X58364285Y-28322380D01*
X58126190Y-28322380D01*
X57983333Y-28370000D01*
X57888095Y-28465238D01*
X57840476Y-28560476D01*
X57792857Y-28750952D01*
X57792857Y-28893809D01*
X57840476Y-29084285D01*
X57888095Y-29179523D01*
X57983333Y-29274761D01*
X58126190Y-29322380D01*
X58364285Y-29322380D01*
X56840476Y-29322380D02*
X57411904Y-29322380D01*
X57126190Y-29322380D02*
X57126190Y-28322380D01*
X57221428Y-28465238D01*
X57316666Y-28560476D01*
X57411904Y-28608095D01*
X56507142Y-28322380D02*
X55840476Y-28322380D01*
X56269047Y-29322380D01*
G04 #@! TO.C,D13*
X229814285Y-10272380D02*
X229814285Y-9272380D01*
X229576190Y-9272380D01*
X229433333Y-9320000D01*
X229338095Y-9415238D01*
X229290476Y-9510476D01*
X229242857Y-9700952D01*
X229242857Y-9843809D01*
X229290476Y-10034285D01*
X229338095Y-10129523D01*
X229433333Y-10224761D01*
X229576190Y-10272380D01*
X229814285Y-10272380D01*
X228290476Y-10272380D02*
X228861904Y-10272380D01*
X228576190Y-10272380D02*
X228576190Y-9272380D01*
X228671428Y-9415238D01*
X228766666Y-9510476D01*
X228861904Y-9558095D01*
X227957142Y-9272380D02*
X227338095Y-9272380D01*
X227671428Y-9653333D01*
X227528571Y-9653333D01*
X227433333Y-9700952D01*
X227385714Y-9748571D01*
X227338095Y-9843809D01*
X227338095Y-10081904D01*
X227385714Y-10177142D01*
X227433333Y-10224761D01*
X227528571Y-10272380D01*
X227814285Y-10272380D01*
X227909523Y-10224761D01*
X227957142Y-10177142D01*
G04 #@! TO.C,D18*
X77414285Y-29322380D02*
X77414285Y-28322380D01*
X77176190Y-28322380D01*
X77033333Y-28370000D01*
X76938095Y-28465238D01*
X76890476Y-28560476D01*
X76842857Y-28750952D01*
X76842857Y-28893809D01*
X76890476Y-29084285D01*
X76938095Y-29179523D01*
X77033333Y-29274761D01*
X77176190Y-29322380D01*
X77414285Y-29322380D01*
X75890476Y-29322380D02*
X76461904Y-29322380D01*
X76176190Y-29322380D02*
X76176190Y-28322380D01*
X76271428Y-28465238D01*
X76366666Y-28560476D01*
X76461904Y-28608095D01*
X75319047Y-28750952D02*
X75414285Y-28703333D01*
X75461904Y-28655714D01*
X75509523Y-28560476D01*
X75509523Y-28512857D01*
X75461904Y-28417619D01*
X75414285Y-28370000D01*
X75319047Y-28322380D01*
X75128571Y-28322380D01*
X75033333Y-28370000D01*
X74985714Y-28417619D01*
X74938095Y-28512857D01*
X74938095Y-28560476D01*
X74985714Y-28655714D01*
X75033333Y-28703333D01*
X75128571Y-28750952D01*
X75319047Y-28750952D01*
X75414285Y-28798571D01*
X75461904Y-28846190D01*
X75509523Y-28941428D01*
X75509523Y-29131904D01*
X75461904Y-29227142D01*
X75414285Y-29274761D01*
X75319047Y-29322380D01*
X75128571Y-29322380D01*
X75033333Y-29274761D01*
X74985714Y-29227142D01*
X74938095Y-29131904D01*
X74938095Y-28941428D01*
X74985714Y-28846190D01*
X75033333Y-28798571D01*
X75128571Y-28750952D01*
G04 #@! TO.C,D21*
X134564285Y-29322380D02*
X134564285Y-28322380D01*
X134326190Y-28322380D01*
X134183333Y-28370000D01*
X134088095Y-28465238D01*
X134040476Y-28560476D01*
X133992857Y-28750952D01*
X133992857Y-28893809D01*
X134040476Y-29084285D01*
X134088095Y-29179523D01*
X134183333Y-29274761D01*
X134326190Y-29322380D01*
X134564285Y-29322380D01*
X133611904Y-28417619D02*
X133564285Y-28370000D01*
X133469047Y-28322380D01*
X133230952Y-28322380D01*
X133135714Y-28370000D01*
X133088095Y-28417619D01*
X133040476Y-28512857D01*
X133040476Y-28608095D01*
X133088095Y-28750952D01*
X133659523Y-29322380D01*
X133040476Y-29322380D01*
X132088095Y-29322380D02*
X132659523Y-29322380D01*
X132373809Y-29322380D02*
X132373809Y-28322380D01*
X132469047Y-28465238D01*
X132564285Y-28560476D01*
X132659523Y-28608095D01*
G04 #@! TO.C,D23*
X172664285Y-29322380D02*
X172664285Y-28322380D01*
X172426190Y-28322380D01*
X172283333Y-28370000D01*
X172188095Y-28465238D01*
X172140476Y-28560476D01*
X172092857Y-28750952D01*
X172092857Y-28893809D01*
X172140476Y-29084285D01*
X172188095Y-29179523D01*
X172283333Y-29274761D01*
X172426190Y-29322380D01*
X172664285Y-29322380D01*
X171711904Y-28417619D02*
X171664285Y-28370000D01*
X171569047Y-28322380D01*
X171330952Y-28322380D01*
X171235714Y-28370000D01*
X171188095Y-28417619D01*
X171140476Y-28512857D01*
X171140476Y-28608095D01*
X171188095Y-28750952D01*
X171759523Y-29322380D01*
X171140476Y-29322380D01*
X170807142Y-28322380D02*
X170188095Y-28322380D01*
X170521428Y-28703333D01*
X170378571Y-28703333D01*
X170283333Y-28750952D01*
X170235714Y-28798571D01*
X170188095Y-28893809D01*
X170188095Y-29131904D01*
X170235714Y-29227142D01*
X170283333Y-29274761D01*
X170378571Y-29322380D01*
X170664285Y-29322380D01*
X170759523Y-29274761D01*
X170807142Y-29227142D01*
G04 #@! TO.C,D27*
X29789285Y-48372380D02*
X29789285Y-47372380D01*
X29551190Y-47372380D01*
X29408333Y-47420000D01*
X29313095Y-47515238D01*
X29265476Y-47610476D01*
X29217857Y-47800952D01*
X29217857Y-47943809D01*
X29265476Y-48134285D01*
X29313095Y-48229523D01*
X29408333Y-48324761D01*
X29551190Y-48372380D01*
X29789285Y-48372380D01*
X28836904Y-47467619D02*
X28789285Y-47420000D01*
X28694047Y-47372380D01*
X28455952Y-47372380D01*
X28360714Y-47420000D01*
X28313095Y-47467619D01*
X28265476Y-47562857D01*
X28265476Y-47658095D01*
X28313095Y-47800952D01*
X28884523Y-48372380D01*
X28265476Y-48372380D01*
X27932142Y-47372380D02*
X27265476Y-47372380D01*
X27694047Y-48372380D01*
G04 #@! TO.C,D28*
X48839285Y-48372380D02*
X48839285Y-47372380D01*
X48601190Y-47372380D01*
X48458333Y-47420000D01*
X48363095Y-47515238D01*
X48315476Y-47610476D01*
X48267857Y-47800952D01*
X48267857Y-47943809D01*
X48315476Y-48134285D01*
X48363095Y-48229523D01*
X48458333Y-48324761D01*
X48601190Y-48372380D01*
X48839285Y-48372380D01*
X47886904Y-47467619D02*
X47839285Y-47420000D01*
X47744047Y-47372380D01*
X47505952Y-47372380D01*
X47410714Y-47420000D01*
X47363095Y-47467619D01*
X47315476Y-47562857D01*
X47315476Y-47658095D01*
X47363095Y-47800952D01*
X47934523Y-48372380D01*
X47315476Y-48372380D01*
X46744047Y-47800952D02*
X46839285Y-47753333D01*
X46886904Y-47705714D01*
X46934523Y-47610476D01*
X46934523Y-47562857D01*
X46886904Y-47467619D01*
X46839285Y-47420000D01*
X46744047Y-47372380D01*
X46553571Y-47372380D01*
X46458333Y-47420000D01*
X46410714Y-47467619D01*
X46363095Y-47562857D01*
X46363095Y-47610476D01*
X46410714Y-47705714D01*
X46458333Y-47753333D01*
X46553571Y-47800952D01*
X46744047Y-47800952D01*
X46839285Y-47848571D01*
X46886904Y-47896190D01*
X46934523Y-47991428D01*
X46934523Y-48181904D01*
X46886904Y-48277142D01*
X46839285Y-48324761D01*
X46744047Y-48372380D01*
X46553571Y-48372380D01*
X46458333Y-48324761D01*
X46410714Y-48277142D01*
X46363095Y-48181904D01*
X46363095Y-47991428D01*
X46410714Y-47896190D01*
X46458333Y-47848571D01*
X46553571Y-47800952D01*
G04 #@! TO.C,D22*
X153614285Y-29322380D02*
X153614285Y-28322380D01*
X153376190Y-28322380D01*
X153233333Y-28370000D01*
X153138095Y-28465238D01*
X153090476Y-28560476D01*
X153042857Y-28750952D01*
X153042857Y-28893809D01*
X153090476Y-29084285D01*
X153138095Y-29179523D01*
X153233333Y-29274761D01*
X153376190Y-29322380D01*
X153614285Y-29322380D01*
X152661904Y-28417619D02*
X152614285Y-28370000D01*
X152519047Y-28322380D01*
X152280952Y-28322380D01*
X152185714Y-28370000D01*
X152138095Y-28417619D01*
X152090476Y-28512857D01*
X152090476Y-28608095D01*
X152138095Y-28750952D01*
X152709523Y-29322380D01*
X152090476Y-29322380D01*
X151709523Y-28417619D02*
X151661904Y-28370000D01*
X151566666Y-28322380D01*
X151328571Y-28322380D01*
X151233333Y-28370000D01*
X151185714Y-28417619D01*
X151138095Y-28512857D01*
X151138095Y-28608095D01*
X151185714Y-28750952D01*
X151757142Y-29322380D01*
X151138095Y-29322380D01*
G04 #@! TO.C,D29*
X67889285Y-48372380D02*
X67889285Y-47372380D01*
X67651190Y-47372380D01*
X67508333Y-47420000D01*
X67413095Y-47515238D01*
X67365476Y-47610476D01*
X67317857Y-47800952D01*
X67317857Y-47943809D01*
X67365476Y-48134285D01*
X67413095Y-48229523D01*
X67508333Y-48324761D01*
X67651190Y-48372380D01*
X67889285Y-48372380D01*
X66936904Y-47467619D02*
X66889285Y-47420000D01*
X66794047Y-47372380D01*
X66555952Y-47372380D01*
X66460714Y-47420000D01*
X66413095Y-47467619D01*
X66365476Y-47562857D01*
X66365476Y-47658095D01*
X66413095Y-47800952D01*
X66984523Y-48372380D01*
X66365476Y-48372380D01*
X65889285Y-48372380D02*
X65698809Y-48372380D01*
X65603571Y-48324761D01*
X65555952Y-48277142D01*
X65460714Y-48134285D01*
X65413095Y-47943809D01*
X65413095Y-47562857D01*
X65460714Y-47467619D01*
X65508333Y-47420000D01*
X65603571Y-47372380D01*
X65794047Y-47372380D01*
X65889285Y-47420000D01*
X65936904Y-47467619D01*
X65984523Y-47562857D01*
X65984523Y-47800952D01*
X65936904Y-47896190D01*
X65889285Y-47943809D01*
X65794047Y-47991428D01*
X65603571Y-47991428D01*
X65508333Y-47943809D01*
X65460714Y-47896190D01*
X65413095Y-47800952D01*
G04 #@! TO.C,D25*
X210764285Y-29322380D02*
X210764285Y-28322380D01*
X210526190Y-28322380D01*
X210383333Y-28370000D01*
X210288095Y-28465238D01*
X210240476Y-28560476D01*
X210192857Y-28750952D01*
X210192857Y-28893809D01*
X210240476Y-29084285D01*
X210288095Y-29179523D01*
X210383333Y-29274761D01*
X210526190Y-29322380D01*
X210764285Y-29322380D01*
X209811904Y-28417619D02*
X209764285Y-28370000D01*
X209669047Y-28322380D01*
X209430952Y-28322380D01*
X209335714Y-28370000D01*
X209288095Y-28417619D01*
X209240476Y-28512857D01*
X209240476Y-28608095D01*
X209288095Y-28750952D01*
X209859523Y-29322380D01*
X209240476Y-29322380D01*
X208335714Y-28322380D02*
X208811904Y-28322380D01*
X208859523Y-28798571D01*
X208811904Y-28750952D01*
X208716666Y-28703333D01*
X208478571Y-28703333D01*
X208383333Y-28750952D01*
X208335714Y-28798571D01*
X208288095Y-28893809D01*
X208288095Y-29131904D01*
X208335714Y-29227142D01*
X208383333Y-29274761D01*
X208478571Y-29322380D01*
X208716666Y-29322380D01*
X208811904Y-29274761D01*
X208859523Y-29227142D01*
G04 #@! TO.C,D33*
X144089285Y-48372380D02*
X144089285Y-47372380D01*
X143851190Y-47372380D01*
X143708333Y-47420000D01*
X143613095Y-47515238D01*
X143565476Y-47610476D01*
X143517857Y-47800952D01*
X143517857Y-47943809D01*
X143565476Y-48134285D01*
X143613095Y-48229523D01*
X143708333Y-48324761D01*
X143851190Y-48372380D01*
X144089285Y-48372380D01*
X143184523Y-47372380D02*
X142565476Y-47372380D01*
X142898809Y-47753333D01*
X142755952Y-47753333D01*
X142660714Y-47800952D01*
X142613095Y-47848571D01*
X142565476Y-47943809D01*
X142565476Y-48181904D01*
X142613095Y-48277142D01*
X142660714Y-48324761D01*
X142755952Y-48372380D01*
X143041666Y-48372380D01*
X143136904Y-48324761D01*
X143184523Y-48277142D01*
X142232142Y-47372380D02*
X141613095Y-47372380D01*
X141946428Y-47753333D01*
X141803571Y-47753333D01*
X141708333Y-47800952D01*
X141660714Y-47848571D01*
X141613095Y-47943809D01*
X141613095Y-48181904D01*
X141660714Y-48277142D01*
X141708333Y-48324761D01*
X141803571Y-48372380D01*
X142089285Y-48372380D01*
X142184523Y-48324761D01*
X142232142Y-48277142D01*
G04 #@! TO.C,D20*
X115514285Y-29322380D02*
X115514285Y-28322380D01*
X115276190Y-28322380D01*
X115133333Y-28370000D01*
X115038095Y-28465238D01*
X114990476Y-28560476D01*
X114942857Y-28750952D01*
X114942857Y-28893809D01*
X114990476Y-29084285D01*
X115038095Y-29179523D01*
X115133333Y-29274761D01*
X115276190Y-29322380D01*
X115514285Y-29322380D01*
X114561904Y-28417619D02*
X114514285Y-28370000D01*
X114419047Y-28322380D01*
X114180952Y-28322380D01*
X114085714Y-28370000D01*
X114038095Y-28417619D01*
X113990476Y-28512857D01*
X113990476Y-28608095D01*
X114038095Y-28750952D01*
X114609523Y-29322380D01*
X113990476Y-29322380D01*
X113371428Y-28322380D02*
X113276190Y-28322380D01*
X113180952Y-28370000D01*
X113133333Y-28417619D01*
X113085714Y-28512857D01*
X113038095Y-28703333D01*
X113038095Y-28941428D01*
X113085714Y-29131904D01*
X113133333Y-29227142D01*
X113180952Y-29274761D01*
X113276190Y-29322380D01*
X113371428Y-29322380D01*
X113466666Y-29274761D01*
X113514285Y-29227142D01*
X113561904Y-29131904D01*
X113609523Y-28941428D01*
X113609523Y-28703333D01*
X113561904Y-28512857D01*
X113514285Y-28417619D01*
X113466666Y-28370000D01*
X113371428Y-28322380D01*
G04 #@! TO.C,D34*
X163139285Y-48372380D02*
X163139285Y-47372380D01*
X162901190Y-47372380D01*
X162758333Y-47420000D01*
X162663095Y-47515238D01*
X162615476Y-47610476D01*
X162567857Y-47800952D01*
X162567857Y-47943809D01*
X162615476Y-48134285D01*
X162663095Y-48229523D01*
X162758333Y-48324761D01*
X162901190Y-48372380D01*
X163139285Y-48372380D01*
X162234523Y-47372380D02*
X161615476Y-47372380D01*
X161948809Y-47753333D01*
X161805952Y-47753333D01*
X161710714Y-47800952D01*
X161663095Y-47848571D01*
X161615476Y-47943809D01*
X161615476Y-48181904D01*
X161663095Y-48277142D01*
X161710714Y-48324761D01*
X161805952Y-48372380D01*
X162091666Y-48372380D01*
X162186904Y-48324761D01*
X162234523Y-48277142D01*
X160758333Y-47705714D02*
X160758333Y-48372380D01*
X160996428Y-47324761D02*
X161234523Y-48039047D01*
X160615476Y-48039047D01*
G04 #@! TO.C,D37*
X220289285Y-48372380D02*
X220289285Y-47372380D01*
X220051190Y-47372380D01*
X219908333Y-47420000D01*
X219813095Y-47515238D01*
X219765476Y-47610476D01*
X219717857Y-47800952D01*
X219717857Y-47943809D01*
X219765476Y-48134285D01*
X219813095Y-48229523D01*
X219908333Y-48324761D01*
X220051190Y-48372380D01*
X220289285Y-48372380D01*
X219384523Y-47372380D02*
X218765476Y-47372380D01*
X219098809Y-47753333D01*
X218955952Y-47753333D01*
X218860714Y-47800952D01*
X218813095Y-47848571D01*
X218765476Y-47943809D01*
X218765476Y-48181904D01*
X218813095Y-48277142D01*
X218860714Y-48324761D01*
X218955952Y-48372380D01*
X219241666Y-48372380D01*
X219336904Y-48324761D01*
X219384523Y-48277142D01*
X218432142Y-47372380D02*
X217765476Y-47372380D01*
X218194047Y-48372380D01*
G04 #@! TO.C,D24*
X191714285Y-29322380D02*
X191714285Y-28322380D01*
X191476190Y-28322380D01*
X191333333Y-28370000D01*
X191238095Y-28465238D01*
X191190476Y-28560476D01*
X191142857Y-28750952D01*
X191142857Y-28893809D01*
X191190476Y-29084285D01*
X191238095Y-29179523D01*
X191333333Y-29274761D01*
X191476190Y-29322380D01*
X191714285Y-29322380D01*
X190761904Y-28417619D02*
X190714285Y-28370000D01*
X190619047Y-28322380D01*
X190380952Y-28322380D01*
X190285714Y-28370000D01*
X190238095Y-28417619D01*
X190190476Y-28512857D01*
X190190476Y-28608095D01*
X190238095Y-28750952D01*
X190809523Y-29322380D01*
X190190476Y-29322380D01*
X189333333Y-28655714D02*
X189333333Y-29322380D01*
X189571428Y-28274761D02*
X189809523Y-28989047D01*
X189190476Y-28989047D01*
G04 #@! TO.C,D39*
X34551785Y-67422380D02*
X34551785Y-66422380D01*
X34313690Y-66422380D01*
X34170833Y-66470000D01*
X34075595Y-66565238D01*
X34027976Y-66660476D01*
X33980357Y-66850952D01*
X33980357Y-66993809D01*
X34027976Y-67184285D01*
X34075595Y-67279523D01*
X34170833Y-67374761D01*
X34313690Y-67422380D01*
X34551785Y-67422380D01*
X33647023Y-66422380D02*
X33027976Y-66422380D01*
X33361309Y-66803333D01*
X33218452Y-66803333D01*
X33123214Y-66850952D01*
X33075595Y-66898571D01*
X33027976Y-66993809D01*
X33027976Y-67231904D01*
X33075595Y-67327142D01*
X33123214Y-67374761D01*
X33218452Y-67422380D01*
X33504166Y-67422380D01*
X33599404Y-67374761D01*
X33647023Y-67327142D01*
X32551785Y-67422380D02*
X32361309Y-67422380D01*
X32266071Y-67374761D01*
X32218452Y-67327142D01*
X32123214Y-67184285D01*
X32075595Y-66993809D01*
X32075595Y-66612857D01*
X32123214Y-66517619D01*
X32170833Y-66470000D01*
X32266071Y-66422380D01*
X32456547Y-66422380D01*
X32551785Y-66470000D01*
X32599404Y-66517619D01*
X32647023Y-66612857D01*
X32647023Y-66850952D01*
X32599404Y-66946190D01*
X32551785Y-66993809D01*
X32456547Y-67041428D01*
X32266071Y-67041428D01*
X32170833Y-66993809D01*
X32123214Y-66946190D01*
X32075595Y-66850952D01*
G04 #@! TO.C,D42*
X91701785Y-67422380D02*
X91701785Y-66422380D01*
X91463690Y-66422380D01*
X91320833Y-66470000D01*
X91225595Y-66565238D01*
X91177976Y-66660476D01*
X91130357Y-66850952D01*
X91130357Y-66993809D01*
X91177976Y-67184285D01*
X91225595Y-67279523D01*
X91320833Y-67374761D01*
X91463690Y-67422380D01*
X91701785Y-67422380D01*
X90273214Y-66755714D02*
X90273214Y-67422380D01*
X90511309Y-66374761D02*
X90749404Y-67089047D01*
X90130357Y-67089047D01*
X89797023Y-66517619D02*
X89749404Y-66470000D01*
X89654166Y-66422380D01*
X89416071Y-66422380D01*
X89320833Y-66470000D01*
X89273214Y-66517619D01*
X89225595Y-66612857D01*
X89225595Y-66708095D01*
X89273214Y-66850952D01*
X89844642Y-67422380D01*
X89225595Y-67422380D01*
G04 #@! TO.C,D50*
X44076785Y-86472380D02*
X44076785Y-85472380D01*
X43838690Y-85472380D01*
X43695833Y-85520000D01*
X43600595Y-85615238D01*
X43552976Y-85710476D01*
X43505357Y-85900952D01*
X43505357Y-86043809D01*
X43552976Y-86234285D01*
X43600595Y-86329523D01*
X43695833Y-86424761D01*
X43838690Y-86472380D01*
X44076785Y-86472380D01*
X42600595Y-85472380D02*
X43076785Y-85472380D01*
X43124404Y-85948571D01*
X43076785Y-85900952D01*
X42981547Y-85853333D01*
X42743452Y-85853333D01*
X42648214Y-85900952D01*
X42600595Y-85948571D01*
X42552976Y-86043809D01*
X42552976Y-86281904D01*
X42600595Y-86377142D01*
X42648214Y-86424761D01*
X42743452Y-86472380D01*
X42981547Y-86472380D01*
X43076785Y-86424761D01*
X43124404Y-86377142D01*
X41933928Y-85472380D02*
X41838690Y-85472380D01*
X41743452Y-85520000D01*
X41695833Y-85567619D01*
X41648214Y-85662857D01*
X41600595Y-85853333D01*
X41600595Y-86091428D01*
X41648214Y-86281904D01*
X41695833Y-86377142D01*
X41743452Y-86424761D01*
X41838690Y-86472380D01*
X41933928Y-86472380D01*
X42029166Y-86424761D01*
X42076785Y-86377142D01*
X42124404Y-86281904D01*
X42172023Y-86091428D01*
X42172023Y-85853333D01*
X42124404Y-85662857D01*
X42076785Y-85567619D01*
X42029166Y-85520000D01*
X41933928Y-85472380D01*
G04 #@! TO.C,D51*
X63126785Y-86472380D02*
X63126785Y-85472380D01*
X62888690Y-85472380D01*
X62745833Y-85520000D01*
X62650595Y-85615238D01*
X62602976Y-85710476D01*
X62555357Y-85900952D01*
X62555357Y-86043809D01*
X62602976Y-86234285D01*
X62650595Y-86329523D01*
X62745833Y-86424761D01*
X62888690Y-86472380D01*
X63126785Y-86472380D01*
X61650595Y-85472380D02*
X62126785Y-85472380D01*
X62174404Y-85948571D01*
X62126785Y-85900952D01*
X62031547Y-85853333D01*
X61793452Y-85853333D01*
X61698214Y-85900952D01*
X61650595Y-85948571D01*
X61602976Y-86043809D01*
X61602976Y-86281904D01*
X61650595Y-86377142D01*
X61698214Y-86424761D01*
X61793452Y-86472380D01*
X62031547Y-86472380D01*
X62126785Y-86424761D01*
X62174404Y-86377142D01*
X60650595Y-86472380D02*
X61222023Y-86472380D01*
X60936309Y-86472380D02*
X60936309Y-85472380D01*
X61031547Y-85615238D01*
X61126785Y-85710476D01*
X61222023Y-85758095D01*
G04 #@! TO.C,D59*
X215526785Y-86472380D02*
X215526785Y-85472380D01*
X215288690Y-85472380D01*
X215145833Y-85520000D01*
X215050595Y-85615238D01*
X215002976Y-85710476D01*
X214955357Y-85900952D01*
X214955357Y-86043809D01*
X215002976Y-86234285D01*
X215050595Y-86329523D01*
X215145833Y-86424761D01*
X215288690Y-86472380D01*
X215526785Y-86472380D01*
X214050595Y-85472380D02*
X214526785Y-85472380D01*
X214574404Y-85948571D01*
X214526785Y-85900952D01*
X214431547Y-85853333D01*
X214193452Y-85853333D01*
X214098214Y-85900952D01*
X214050595Y-85948571D01*
X214002976Y-86043809D01*
X214002976Y-86281904D01*
X214050595Y-86377142D01*
X214098214Y-86424761D01*
X214193452Y-86472380D01*
X214431547Y-86472380D01*
X214526785Y-86424761D01*
X214574404Y-86377142D01*
X213526785Y-86472380D02*
X213336309Y-86472380D01*
X213241071Y-86424761D01*
X213193452Y-86377142D01*
X213098214Y-86234285D01*
X213050595Y-86043809D01*
X213050595Y-85662857D01*
X213098214Y-85567619D01*
X213145833Y-85520000D01*
X213241071Y-85472380D01*
X213431547Y-85472380D01*
X213526785Y-85520000D01*
X213574404Y-85567619D01*
X213622023Y-85662857D01*
X213622023Y-85900952D01*
X213574404Y-85996190D01*
X213526785Y-86043809D01*
X213431547Y-86091428D01*
X213241071Y-86091428D01*
X213145833Y-86043809D01*
X213098214Y-85996190D01*
X213050595Y-85900952D01*
G04 #@! TO.C,D63*
X139326785Y-105522380D02*
X139326785Y-104522380D01*
X139088690Y-104522380D01*
X138945833Y-104570000D01*
X138850595Y-104665238D01*
X138802976Y-104760476D01*
X138755357Y-104950952D01*
X138755357Y-105093809D01*
X138802976Y-105284285D01*
X138850595Y-105379523D01*
X138945833Y-105474761D01*
X139088690Y-105522380D01*
X139326785Y-105522380D01*
X137898214Y-104522380D02*
X138088690Y-104522380D01*
X138183928Y-104570000D01*
X138231547Y-104617619D01*
X138326785Y-104760476D01*
X138374404Y-104950952D01*
X138374404Y-105331904D01*
X138326785Y-105427142D01*
X138279166Y-105474761D01*
X138183928Y-105522380D01*
X137993452Y-105522380D01*
X137898214Y-105474761D01*
X137850595Y-105427142D01*
X137802976Y-105331904D01*
X137802976Y-105093809D01*
X137850595Y-104998571D01*
X137898214Y-104950952D01*
X137993452Y-104903333D01*
X138183928Y-104903333D01*
X138279166Y-104950952D01*
X138326785Y-104998571D01*
X138374404Y-105093809D01*
X137469642Y-104522380D02*
X136850595Y-104522380D01*
X137183928Y-104903333D01*
X137041071Y-104903333D01*
X136945833Y-104950952D01*
X136898214Y-104998571D01*
X136850595Y-105093809D01*
X136850595Y-105331904D01*
X136898214Y-105427142D01*
X136945833Y-105474761D01*
X137041071Y-105522380D01*
X137326785Y-105522380D01*
X137422023Y-105474761D01*
X137469642Y-105427142D01*
G04 #@! TO.C,D43*
X110751785Y-67422380D02*
X110751785Y-66422380D01*
X110513690Y-66422380D01*
X110370833Y-66470000D01*
X110275595Y-66565238D01*
X110227976Y-66660476D01*
X110180357Y-66850952D01*
X110180357Y-66993809D01*
X110227976Y-67184285D01*
X110275595Y-67279523D01*
X110370833Y-67374761D01*
X110513690Y-67422380D01*
X110751785Y-67422380D01*
X109323214Y-66755714D02*
X109323214Y-67422380D01*
X109561309Y-66374761D02*
X109799404Y-67089047D01*
X109180357Y-67089047D01*
X108894642Y-66422380D02*
X108275595Y-66422380D01*
X108608928Y-66803333D01*
X108466071Y-66803333D01*
X108370833Y-66850952D01*
X108323214Y-66898571D01*
X108275595Y-66993809D01*
X108275595Y-67231904D01*
X108323214Y-67327142D01*
X108370833Y-67374761D01*
X108466071Y-67422380D01*
X108751785Y-67422380D01*
X108847023Y-67374761D01*
X108894642Y-67327142D01*
G04 #@! TO.C,D44*
X129801785Y-67422380D02*
X129801785Y-66422380D01*
X129563690Y-66422380D01*
X129420833Y-66470000D01*
X129325595Y-66565238D01*
X129277976Y-66660476D01*
X129230357Y-66850952D01*
X129230357Y-66993809D01*
X129277976Y-67184285D01*
X129325595Y-67279523D01*
X129420833Y-67374761D01*
X129563690Y-67422380D01*
X129801785Y-67422380D01*
X128373214Y-66755714D02*
X128373214Y-67422380D01*
X128611309Y-66374761D02*
X128849404Y-67089047D01*
X128230357Y-67089047D01*
X127420833Y-66755714D02*
X127420833Y-67422380D01*
X127658928Y-66374761D02*
X127897023Y-67089047D01*
X127277976Y-67089047D01*
G04 #@! TO.C,D64*
X158376785Y-105522380D02*
X158376785Y-104522380D01*
X158138690Y-104522380D01*
X157995833Y-104570000D01*
X157900595Y-104665238D01*
X157852976Y-104760476D01*
X157805357Y-104950952D01*
X157805357Y-105093809D01*
X157852976Y-105284285D01*
X157900595Y-105379523D01*
X157995833Y-105474761D01*
X158138690Y-105522380D01*
X158376785Y-105522380D01*
X156948214Y-104522380D02*
X157138690Y-104522380D01*
X157233928Y-104570000D01*
X157281547Y-104617619D01*
X157376785Y-104760476D01*
X157424404Y-104950952D01*
X157424404Y-105331904D01*
X157376785Y-105427142D01*
X157329166Y-105474761D01*
X157233928Y-105522380D01*
X157043452Y-105522380D01*
X156948214Y-105474761D01*
X156900595Y-105427142D01*
X156852976Y-105331904D01*
X156852976Y-105093809D01*
X156900595Y-104998571D01*
X156948214Y-104950952D01*
X157043452Y-104903333D01*
X157233928Y-104903333D01*
X157329166Y-104950952D01*
X157376785Y-104998571D01*
X157424404Y-105093809D01*
X155995833Y-104855714D02*
X155995833Y-105522380D01*
X156233928Y-104474761D02*
X156472023Y-105189047D01*
X155852976Y-105189047D01*
G04 #@! TO.C,D65*
X248864285Y-86472380D02*
X248864285Y-85472380D01*
X248626190Y-85472380D01*
X248483333Y-85520000D01*
X248388095Y-85615238D01*
X248340476Y-85710476D01*
X248292857Y-85900952D01*
X248292857Y-86043809D01*
X248340476Y-86234285D01*
X248388095Y-86329523D01*
X248483333Y-86424761D01*
X248626190Y-86472380D01*
X248864285Y-86472380D01*
X247435714Y-85472380D02*
X247626190Y-85472380D01*
X247721428Y-85520000D01*
X247769047Y-85567619D01*
X247864285Y-85710476D01*
X247911904Y-85900952D01*
X247911904Y-86281904D01*
X247864285Y-86377142D01*
X247816666Y-86424761D01*
X247721428Y-86472380D01*
X247530952Y-86472380D01*
X247435714Y-86424761D01*
X247388095Y-86377142D01*
X247340476Y-86281904D01*
X247340476Y-86043809D01*
X247388095Y-85948571D01*
X247435714Y-85900952D01*
X247530952Y-85853333D01*
X247721428Y-85853333D01*
X247816666Y-85900952D01*
X247864285Y-85948571D01*
X247911904Y-86043809D01*
X246435714Y-85472380D02*
X246911904Y-85472380D01*
X246959523Y-85948571D01*
X246911904Y-85900952D01*
X246816666Y-85853333D01*
X246578571Y-85853333D01*
X246483333Y-85900952D01*
X246435714Y-85948571D01*
X246388095Y-86043809D01*
X246388095Y-86281904D01*
X246435714Y-86377142D01*
X246483333Y-86424761D01*
X246578571Y-86472380D01*
X246816666Y-86472380D01*
X246911904Y-86424761D01*
X246959523Y-86377142D01*
G04 #@! TO.C,D48*
X206001785Y-67422380D02*
X206001785Y-66422380D01*
X205763690Y-66422380D01*
X205620833Y-66470000D01*
X205525595Y-66565238D01*
X205477976Y-66660476D01*
X205430357Y-66850952D01*
X205430357Y-66993809D01*
X205477976Y-67184285D01*
X205525595Y-67279523D01*
X205620833Y-67374761D01*
X205763690Y-67422380D01*
X206001785Y-67422380D01*
X204573214Y-66755714D02*
X204573214Y-67422380D01*
X204811309Y-66374761D02*
X205049404Y-67089047D01*
X204430357Y-67089047D01*
X203906547Y-66850952D02*
X204001785Y-66803333D01*
X204049404Y-66755714D01*
X204097023Y-66660476D01*
X204097023Y-66612857D01*
X204049404Y-66517619D01*
X204001785Y-66470000D01*
X203906547Y-66422380D01*
X203716071Y-66422380D01*
X203620833Y-66470000D01*
X203573214Y-66517619D01*
X203525595Y-66612857D01*
X203525595Y-66660476D01*
X203573214Y-66755714D01*
X203620833Y-66803333D01*
X203716071Y-66850952D01*
X203906547Y-66850952D01*
X204001785Y-66898571D01*
X204049404Y-66946190D01*
X204097023Y-67041428D01*
X204097023Y-67231904D01*
X204049404Y-67327142D01*
X204001785Y-67374761D01*
X203906547Y-67422380D01*
X203716071Y-67422380D01*
X203620833Y-67374761D01*
X203573214Y-67327142D01*
X203525595Y-67231904D01*
X203525595Y-67041428D01*
X203573214Y-66946190D01*
X203620833Y-66898571D01*
X203716071Y-66850952D01*
G04 #@! TO.C,D61*
X101226785Y-105522380D02*
X101226785Y-104522380D01*
X100988690Y-104522380D01*
X100845833Y-104570000D01*
X100750595Y-104665238D01*
X100702976Y-104760476D01*
X100655357Y-104950952D01*
X100655357Y-105093809D01*
X100702976Y-105284285D01*
X100750595Y-105379523D01*
X100845833Y-105474761D01*
X100988690Y-105522380D01*
X101226785Y-105522380D01*
X99798214Y-104522380D02*
X99988690Y-104522380D01*
X100083928Y-104570000D01*
X100131547Y-104617619D01*
X100226785Y-104760476D01*
X100274404Y-104950952D01*
X100274404Y-105331904D01*
X100226785Y-105427142D01*
X100179166Y-105474761D01*
X100083928Y-105522380D01*
X99893452Y-105522380D01*
X99798214Y-105474761D01*
X99750595Y-105427142D01*
X99702976Y-105331904D01*
X99702976Y-105093809D01*
X99750595Y-104998571D01*
X99798214Y-104950952D01*
X99893452Y-104903333D01*
X100083928Y-104903333D01*
X100179166Y-104950952D01*
X100226785Y-104998571D01*
X100274404Y-105093809D01*
X98750595Y-105522380D02*
X99322023Y-105522380D01*
X99036309Y-105522380D02*
X99036309Y-104522380D01*
X99131547Y-104665238D01*
X99226785Y-104760476D01*
X99322023Y-104808095D01*
G04 #@! TO.C,D62*
X120276785Y-105522380D02*
X120276785Y-104522380D01*
X120038690Y-104522380D01*
X119895833Y-104570000D01*
X119800595Y-104665238D01*
X119752976Y-104760476D01*
X119705357Y-104950952D01*
X119705357Y-105093809D01*
X119752976Y-105284285D01*
X119800595Y-105379523D01*
X119895833Y-105474761D01*
X120038690Y-105522380D01*
X120276785Y-105522380D01*
X118848214Y-104522380D02*
X119038690Y-104522380D01*
X119133928Y-104570000D01*
X119181547Y-104617619D01*
X119276785Y-104760476D01*
X119324404Y-104950952D01*
X119324404Y-105331904D01*
X119276785Y-105427142D01*
X119229166Y-105474761D01*
X119133928Y-105522380D01*
X118943452Y-105522380D01*
X118848214Y-105474761D01*
X118800595Y-105427142D01*
X118752976Y-105331904D01*
X118752976Y-105093809D01*
X118800595Y-104998571D01*
X118848214Y-104950952D01*
X118943452Y-104903333D01*
X119133928Y-104903333D01*
X119229166Y-104950952D01*
X119276785Y-104998571D01*
X119324404Y-105093809D01*
X118372023Y-104617619D02*
X118324404Y-104570000D01*
X118229166Y-104522380D01*
X117991071Y-104522380D01*
X117895833Y-104570000D01*
X117848214Y-104617619D01*
X117800595Y-104712857D01*
X117800595Y-104808095D01*
X117848214Y-104950952D01*
X118419642Y-105522380D01*
X117800595Y-105522380D01*
G04 #@! TO.C,D66*
X229814285Y-105522380D02*
X229814285Y-104522380D01*
X229576190Y-104522380D01*
X229433333Y-104570000D01*
X229338095Y-104665238D01*
X229290476Y-104760476D01*
X229242857Y-104950952D01*
X229242857Y-105093809D01*
X229290476Y-105284285D01*
X229338095Y-105379523D01*
X229433333Y-105474761D01*
X229576190Y-105522380D01*
X229814285Y-105522380D01*
X228385714Y-104522380D02*
X228576190Y-104522380D01*
X228671428Y-104570000D01*
X228719047Y-104617619D01*
X228814285Y-104760476D01*
X228861904Y-104950952D01*
X228861904Y-105331904D01*
X228814285Y-105427142D01*
X228766666Y-105474761D01*
X228671428Y-105522380D01*
X228480952Y-105522380D01*
X228385714Y-105474761D01*
X228338095Y-105427142D01*
X228290476Y-105331904D01*
X228290476Y-105093809D01*
X228338095Y-104998571D01*
X228385714Y-104950952D01*
X228480952Y-104903333D01*
X228671428Y-104903333D01*
X228766666Y-104950952D01*
X228814285Y-104998571D01*
X228861904Y-105093809D01*
X227433333Y-104522380D02*
X227623809Y-104522380D01*
X227719047Y-104570000D01*
X227766666Y-104617619D01*
X227861904Y-104760476D01*
X227909523Y-104950952D01*
X227909523Y-105331904D01*
X227861904Y-105427142D01*
X227814285Y-105474761D01*
X227719047Y-105522380D01*
X227528571Y-105522380D01*
X227433333Y-105474761D01*
X227385714Y-105427142D01*
X227338095Y-105331904D01*
X227338095Y-105093809D01*
X227385714Y-104998571D01*
X227433333Y-104950952D01*
X227528571Y-104903333D01*
X227719047Y-104903333D01*
X227814285Y-104950952D01*
X227861904Y-104998571D01*
X227909523Y-105093809D01*
G04 #@! TO.C,D60*
X82176785Y-105522380D02*
X82176785Y-104522380D01*
X81938690Y-104522380D01*
X81795833Y-104570000D01*
X81700595Y-104665238D01*
X81652976Y-104760476D01*
X81605357Y-104950952D01*
X81605357Y-105093809D01*
X81652976Y-105284285D01*
X81700595Y-105379523D01*
X81795833Y-105474761D01*
X81938690Y-105522380D01*
X82176785Y-105522380D01*
X80748214Y-104522380D02*
X80938690Y-104522380D01*
X81033928Y-104570000D01*
X81081547Y-104617619D01*
X81176785Y-104760476D01*
X81224404Y-104950952D01*
X81224404Y-105331904D01*
X81176785Y-105427142D01*
X81129166Y-105474761D01*
X81033928Y-105522380D01*
X80843452Y-105522380D01*
X80748214Y-105474761D01*
X80700595Y-105427142D01*
X80652976Y-105331904D01*
X80652976Y-105093809D01*
X80700595Y-104998571D01*
X80748214Y-104950952D01*
X80843452Y-104903333D01*
X81033928Y-104903333D01*
X81129166Y-104950952D01*
X81176785Y-104998571D01*
X81224404Y-105093809D01*
X80033928Y-104522380D02*
X79938690Y-104522380D01*
X79843452Y-104570000D01*
X79795833Y-104617619D01*
X79748214Y-104712857D01*
X79700595Y-104903333D01*
X79700595Y-105141428D01*
X79748214Y-105331904D01*
X79795833Y-105427142D01*
X79843452Y-105474761D01*
X79938690Y-105522380D01*
X80033928Y-105522380D01*
X80129166Y-105474761D01*
X80176785Y-105427142D01*
X80224404Y-105331904D01*
X80272023Y-105141428D01*
X80272023Y-104903333D01*
X80224404Y-104712857D01*
X80176785Y-104617619D01*
X80129166Y-104570000D01*
X80033928Y-104522380D01*
G04 #@! TO.C,D67*
X248864285Y-105522380D02*
X248864285Y-104522380D01*
X248626190Y-104522380D01*
X248483333Y-104570000D01*
X248388095Y-104665238D01*
X248340476Y-104760476D01*
X248292857Y-104950952D01*
X248292857Y-105093809D01*
X248340476Y-105284285D01*
X248388095Y-105379523D01*
X248483333Y-105474761D01*
X248626190Y-105522380D01*
X248864285Y-105522380D01*
X247435714Y-104522380D02*
X247626190Y-104522380D01*
X247721428Y-104570000D01*
X247769047Y-104617619D01*
X247864285Y-104760476D01*
X247911904Y-104950952D01*
X247911904Y-105331904D01*
X247864285Y-105427142D01*
X247816666Y-105474761D01*
X247721428Y-105522380D01*
X247530952Y-105522380D01*
X247435714Y-105474761D01*
X247388095Y-105427142D01*
X247340476Y-105331904D01*
X247340476Y-105093809D01*
X247388095Y-104998571D01*
X247435714Y-104950952D01*
X247530952Y-104903333D01*
X247721428Y-104903333D01*
X247816666Y-104950952D01*
X247864285Y-104998571D01*
X247911904Y-105093809D01*
X247007142Y-104522380D02*
X246340476Y-104522380D01*
X246769047Y-105522380D01*
G04 #@! TO.C,D56*
X158376785Y-86472380D02*
X158376785Y-85472380D01*
X158138690Y-85472380D01*
X157995833Y-85520000D01*
X157900595Y-85615238D01*
X157852976Y-85710476D01*
X157805357Y-85900952D01*
X157805357Y-86043809D01*
X157852976Y-86234285D01*
X157900595Y-86329523D01*
X157995833Y-86424761D01*
X158138690Y-86472380D01*
X158376785Y-86472380D01*
X156900595Y-85472380D02*
X157376785Y-85472380D01*
X157424404Y-85948571D01*
X157376785Y-85900952D01*
X157281547Y-85853333D01*
X157043452Y-85853333D01*
X156948214Y-85900952D01*
X156900595Y-85948571D01*
X156852976Y-86043809D01*
X156852976Y-86281904D01*
X156900595Y-86377142D01*
X156948214Y-86424761D01*
X157043452Y-86472380D01*
X157281547Y-86472380D01*
X157376785Y-86424761D01*
X157424404Y-86377142D01*
X155995833Y-85472380D02*
X156186309Y-85472380D01*
X156281547Y-85520000D01*
X156329166Y-85567619D01*
X156424404Y-85710476D01*
X156472023Y-85900952D01*
X156472023Y-86281904D01*
X156424404Y-86377142D01*
X156376785Y-86424761D01*
X156281547Y-86472380D01*
X156091071Y-86472380D01*
X155995833Y-86424761D01*
X155948214Y-86377142D01*
X155900595Y-86281904D01*
X155900595Y-86043809D01*
X155948214Y-85948571D01*
X155995833Y-85900952D01*
X156091071Y-85853333D01*
X156281547Y-85853333D01*
X156376785Y-85900952D01*
X156424404Y-85948571D01*
X156472023Y-86043809D01*
G04 #@! TO.C,D45*
X148851785Y-67422380D02*
X148851785Y-66422380D01*
X148613690Y-66422380D01*
X148470833Y-66470000D01*
X148375595Y-66565238D01*
X148327976Y-66660476D01*
X148280357Y-66850952D01*
X148280357Y-66993809D01*
X148327976Y-67184285D01*
X148375595Y-67279523D01*
X148470833Y-67374761D01*
X148613690Y-67422380D01*
X148851785Y-67422380D01*
X147423214Y-66755714D02*
X147423214Y-67422380D01*
X147661309Y-66374761D02*
X147899404Y-67089047D01*
X147280357Y-67089047D01*
X146423214Y-66422380D02*
X146899404Y-66422380D01*
X146947023Y-66898571D01*
X146899404Y-66850952D01*
X146804166Y-66803333D01*
X146566071Y-66803333D01*
X146470833Y-66850952D01*
X146423214Y-66898571D01*
X146375595Y-66993809D01*
X146375595Y-67231904D01*
X146423214Y-67327142D01*
X146470833Y-67374761D01*
X146566071Y-67422380D01*
X146804166Y-67422380D01*
X146899404Y-67374761D01*
X146947023Y-67327142D01*
G04 #@! TO.C,D58*
X196476785Y-86472380D02*
X196476785Y-85472380D01*
X196238690Y-85472380D01*
X196095833Y-85520000D01*
X196000595Y-85615238D01*
X195952976Y-85710476D01*
X195905357Y-85900952D01*
X195905357Y-86043809D01*
X195952976Y-86234285D01*
X196000595Y-86329523D01*
X196095833Y-86424761D01*
X196238690Y-86472380D01*
X196476785Y-86472380D01*
X195000595Y-85472380D02*
X195476785Y-85472380D01*
X195524404Y-85948571D01*
X195476785Y-85900952D01*
X195381547Y-85853333D01*
X195143452Y-85853333D01*
X195048214Y-85900952D01*
X195000595Y-85948571D01*
X194952976Y-86043809D01*
X194952976Y-86281904D01*
X195000595Y-86377142D01*
X195048214Y-86424761D01*
X195143452Y-86472380D01*
X195381547Y-86472380D01*
X195476785Y-86424761D01*
X195524404Y-86377142D01*
X194381547Y-85900952D02*
X194476785Y-85853333D01*
X194524404Y-85805714D01*
X194572023Y-85710476D01*
X194572023Y-85662857D01*
X194524404Y-85567619D01*
X194476785Y-85520000D01*
X194381547Y-85472380D01*
X194191071Y-85472380D01*
X194095833Y-85520000D01*
X194048214Y-85567619D01*
X194000595Y-85662857D01*
X194000595Y-85710476D01*
X194048214Y-85805714D01*
X194095833Y-85853333D01*
X194191071Y-85900952D01*
X194381547Y-85900952D01*
X194476785Y-85948571D01*
X194524404Y-85996190D01*
X194572023Y-86091428D01*
X194572023Y-86281904D01*
X194524404Y-86377142D01*
X194476785Y-86424761D01*
X194381547Y-86472380D01*
X194191071Y-86472380D01*
X194095833Y-86424761D01*
X194048214Y-86377142D01*
X194000595Y-86281904D01*
X194000595Y-86091428D01*
X194048214Y-85996190D01*
X194095833Y-85948571D01*
X194191071Y-85900952D01*
G04 #@! TO.C,D46*
X167901785Y-67422380D02*
X167901785Y-66422380D01*
X167663690Y-66422380D01*
X167520833Y-66470000D01*
X167425595Y-66565238D01*
X167377976Y-66660476D01*
X167330357Y-66850952D01*
X167330357Y-66993809D01*
X167377976Y-67184285D01*
X167425595Y-67279523D01*
X167520833Y-67374761D01*
X167663690Y-67422380D01*
X167901785Y-67422380D01*
X166473214Y-66755714D02*
X166473214Y-67422380D01*
X166711309Y-66374761D02*
X166949404Y-67089047D01*
X166330357Y-67089047D01*
X165520833Y-66422380D02*
X165711309Y-66422380D01*
X165806547Y-66470000D01*
X165854166Y-66517619D01*
X165949404Y-66660476D01*
X165997023Y-66850952D01*
X165997023Y-67231904D01*
X165949404Y-67327142D01*
X165901785Y-67374761D01*
X165806547Y-67422380D01*
X165616071Y-67422380D01*
X165520833Y-67374761D01*
X165473214Y-67327142D01*
X165425595Y-67231904D01*
X165425595Y-66993809D01*
X165473214Y-66898571D01*
X165520833Y-66850952D01*
X165616071Y-66803333D01*
X165806547Y-66803333D01*
X165901785Y-66850952D01*
X165949404Y-66898571D01*
X165997023Y-66993809D01*
G04 #@! TO.C,D53*
X101226785Y-86472380D02*
X101226785Y-85472380D01*
X100988690Y-85472380D01*
X100845833Y-85520000D01*
X100750595Y-85615238D01*
X100702976Y-85710476D01*
X100655357Y-85900952D01*
X100655357Y-86043809D01*
X100702976Y-86234285D01*
X100750595Y-86329523D01*
X100845833Y-86424761D01*
X100988690Y-86472380D01*
X101226785Y-86472380D01*
X99750595Y-85472380D02*
X100226785Y-85472380D01*
X100274404Y-85948571D01*
X100226785Y-85900952D01*
X100131547Y-85853333D01*
X99893452Y-85853333D01*
X99798214Y-85900952D01*
X99750595Y-85948571D01*
X99702976Y-86043809D01*
X99702976Y-86281904D01*
X99750595Y-86377142D01*
X99798214Y-86424761D01*
X99893452Y-86472380D01*
X100131547Y-86472380D01*
X100226785Y-86424761D01*
X100274404Y-86377142D01*
X99369642Y-85472380D02*
X98750595Y-85472380D01*
X99083928Y-85853333D01*
X98941071Y-85853333D01*
X98845833Y-85900952D01*
X98798214Y-85948571D01*
X98750595Y-86043809D01*
X98750595Y-86281904D01*
X98798214Y-86377142D01*
X98845833Y-86424761D01*
X98941071Y-86472380D01*
X99226785Y-86472380D01*
X99322023Y-86424761D01*
X99369642Y-86377142D01*
G04 #@! TO.C,D55*
X139326785Y-86472380D02*
X139326785Y-85472380D01*
X139088690Y-85472380D01*
X138945833Y-85520000D01*
X138850595Y-85615238D01*
X138802976Y-85710476D01*
X138755357Y-85900952D01*
X138755357Y-86043809D01*
X138802976Y-86234285D01*
X138850595Y-86329523D01*
X138945833Y-86424761D01*
X139088690Y-86472380D01*
X139326785Y-86472380D01*
X137850595Y-85472380D02*
X138326785Y-85472380D01*
X138374404Y-85948571D01*
X138326785Y-85900952D01*
X138231547Y-85853333D01*
X137993452Y-85853333D01*
X137898214Y-85900952D01*
X137850595Y-85948571D01*
X137802976Y-86043809D01*
X137802976Y-86281904D01*
X137850595Y-86377142D01*
X137898214Y-86424761D01*
X137993452Y-86472380D01*
X138231547Y-86472380D01*
X138326785Y-86424761D01*
X138374404Y-86377142D01*
X136898214Y-85472380D02*
X137374404Y-85472380D01*
X137422023Y-85948571D01*
X137374404Y-85900952D01*
X137279166Y-85853333D01*
X137041071Y-85853333D01*
X136945833Y-85900952D01*
X136898214Y-85948571D01*
X136850595Y-86043809D01*
X136850595Y-86281904D01*
X136898214Y-86377142D01*
X136945833Y-86424761D01*
X137041071Y-86472380D01*
X137279166Y-86472380D01*
X137374404Y-86424761D01*
X137422023Y-86377142D01*
G04 #@! TO.C,D52*
X82176785Y-86472380D02*
X82176785Y-85472380D01*
X81938690Y-85472380D01*
X81795833Y-85520000D01*
X81700595Y-85615238D01*
X81652976Y-85710476D01*
X81605357Y-85900952D01*
X81605357Y-86043809D01*
X81652976Y-86234285D01*
X81700595Y-86329523D01*
X81795833Y-86424761D01*
X81938690Y-86472380D01*
X82176785Y-86472380D01*
X80700595Y-85472380D02*
X81176785Y-85472380D01*
X81224404Y-85948571D01*
X81176785Y-85900952D01*
X81081547Y-85853333D01*
X80843452Y-85853333D01*
X80748214Y-85900952D01*
X80700595Y-85948571D01*
X80652976Y-86043809D01*
X80652976Y-86281904D01*
X80700595Y-86377142D01*
X80748214Y-86424761D01*
X80843452Y-86472380D01*
X81081547Y-86472380D01*
X81176785Y-86424761D01*
X81224404Y-86377142D01*
X80272023Y-85567619D02*
X80224404Y-85520000D01*
X80129166Y-85472380D01*
X79891071Y-85472380D01*
X79795833Y-85520000D01*
X79748214Y-85567619D01*
X79700595Y-85662857D01*
X79700595Y-85758095D01*
X79748214Y-85900952D01*
X80319642Y-86472380D01*
X79700595Y-86472380D01*
G04 #@! TO.C,D47*
X186951785Y-67422380D02*
X186951785Y-66422380D01*
X186713690Y-66422380D01*
X186570833Y-66470000D01*
X186475595Y-66565238D01*
X186427976Y-66660476D01*
X186380357Y-66850952D01*
X186380357Y-66993809D01*
X186427976Y-67184285D01*
X186475595Y-67279523D01*
X186570833Y-67374761D01*
X186713690Y-67422380D01*
X186951785Y-67422380D01*
X185523214Y-66755714D02*
X185523214Y-67422380D01*
X185761309Y-66374761D02*
X185999404Y-67089047D01*
X185380357Y-67089047D01*
X185094642Y-66422380D02*
X184427976Y-66422380D01*
X184856547Y-67422380D01*
G04 #@! TO.C,D41*
X72651785Y-67422380D02*
X72651785Y-66422380D01*
X72413690Y-66422380D01*
X72270833Y-66470000D01*
X72175595Y-66565238D01*
X72127976Y-66660476D01*
X72080357Y-66850952D01*
X72080357Y-66993809D01*
X72127976Y-67184285D01*
X72175595Y-67279523D01*
X72270833Y-67374761D01*
X72413690Y-67422380D01*
X72651785Y-67422380D01*
X71223214Y-66755714D02*
X71223214Y-67422380D01*
X71461309Y-66374761D02*
X71699404Y-67089047D01*
X71080357Y-67089047D01*
X70175595Y-67422380D02*
X70747023Y-67422380D01*
X70461309Y-67422380D02*
X70461309Y-66422380D01*
X70556547Y-66565238D01*
X70651785Y-66660476D01*
X70747023Y-66708095D01*
G04 #@! TO.C,D54*
X120276785Y-86472380D02*
X120276785Y-85472380D01*
X120038690Y-85472380D01*
X119895833Y-85520000D01*
X119800595Y-85615238D01*
X119752976Y-85710476D01*
X119705357Y-85900952D01*
X119705357Y-86043809D01*
X119752976Y-86234285D01*
X119800595Y-86329523D01*
X119895833Y-86424761D01*
X120038690Y-86472380D01*
X120276785Y-86472380D01*
X118800595Y-85472380D02*
X119276785Y-85472380D01*
X119324404Y-85948571D01*
X119276785Y-85900952D01*
X119181547Y-85853333D01*
X118943452Y-85853333D01*
X118848214Y-85900952D01*
X118800595Y-85948571D01*
X118752976Y-86043809D01*
X118752976Y-86281904D01*
X118800595Y-86377142D01*
X118848214Y-86424761D01*
X118943452Y-86472380D01*
X119181547Y-86472380D01*
X119276785Y-86424761D01*
X119324404Y-86377142D01*
X117895833Y-85805714D02*
X117895833Y-86472380D01*
X118133928Y-85424761D02*
X118372023Y-86139047D01*
X117752976Y-86139047D01*
G04 #@! TO.C,D57*
X177426785Y-86472380D02*
X177426785Y-85472380D01*
X177188690Y-85472380D01*
X177045833Y-85520000D01*
X176950595Y-85615238D01*
X176902976Y-85710476D01*
X176855357Y-85900952D01*
X176855357Y-86043809D01*
X176902976Y-86234285D01*
X176950595Y-86329523D01*
X177045833Y-86424761D01*
X177188690Y-86472380D01*
X177426785Y-86472380D01*
X175950595Y-85472380D02*
X176426785Y-85472380D01*
X176474404Y-85948571D01*
X176426785Y-85900952D01*
X176331547Y-85853333D01*
X176093452Y-85853333D01*
X175998214Y-85900952D01*
X175950595Y-85948571D01*
X175902976Y-86043809D01*
X175902976Y-86281904D01*
X175950595Y-86377142D01*
X175998214Y-86424761D01*
X176093452Y-86472380D01*
X176331547Y-86472380D01*
X176426785Y-86424761D01*
X176474404Y-86377142D01*
X175569642Y-85472380D02*
X174902976Y-85472380D01*
X175331547Y-86472380D01*
G04 #@! TO.C,D49*
X225051785Y-67422380D02*
X225051785Y-66422380D01*
X224813690Y-66422380D01*
X224670833Y-66470000D01*
X224575595Y-66565238D01*
X224527976Y-66660476D01*
X224480357Y-66850952D01*
X224480357Y-66993809D01*
X224527976Y-67184285D01*
X224575595Y-67279523D01*
X224670833Y-67374761D01*
X224813690Y-67422380D01*
X225051785Y-67422380D01*
X223623214Y-66755714D02*
X223623214Y-67422380D01*
X223861309Y-66374761D02*
X224099404Y-67089047D01*
X223480357Y-67089047D01*
X223051785Y-67422380D02*
X222861309Y-67422380D01*
X222766071Y-67374761D01*
X222718452Y-67327142D01*
X222623214Y-67184285D01*
X222575595Y-66993809D01*
X222575595Y-66612857D01*
X222623214Y-66517619D01*
X222670833Y-66470000D01*
X222766071Y-66422380D01*
X222956547Y-66422380D01*
X223051785Y-66470000D01*
X223099404Y-66517619D01*
X223147023Y-66612857D01*
X223147023Y-66850952D01*
X223099404Y-66946190D01*
X223051785Y-66993809D01*
X222956547Y-67041428D01*
X222766071Y-67041428D01*
X222670833Y-66993809D01*
X222623214Y-66946190D01*
X222575595Y-66850952D01*
G04 #@! TO.C,D602*
X13671076Y-86472380D02*
X13671076Y-85472380D01*
X13432980Y-85472380D01*
X13290123Y-85520000D01*
X13194885Y-85615238D01*
X13147266Y-85710476D01*
X13099647Y-85900952D01*
X13099647Y-86043809D01*
X13147266Y-86234285D01*
X13194885Y-86329523D01*
X13290123Y-86424761D01*
X13432980Y-86472380D01*
X13671076Y-86472380D01*
X12242504Y-85472380D02*
X12432980Y-85472380D01*
X12528219Y-85520000D01*
X12575838Y-85567619D01*
X12671076Y-85710476D01*
X12718695Y-85900952D01*
X12718695Y-86281904D01*
X12671076Y-86377142D01*
X12623457Y-86424761D01*
X12528219Y-86472380D01*
X12337742Y-86472380D01*
X12242504Y-86424761D01*
X12194885Y-86377142D01*
X12147266Y-86281904D01*
X12147266Y-86043809D01*
X12194885Y-85948571D01*
X12242504Y-85900952D01*
X12337742Y-85853333D01*
X12528219Y-85853333D01*
X12623457Y-85900952D01*
X12671076Y-85948571D01*
X12718695Y-86043809D01*
X11528219Y-85472380D02*
X11432980Y-85472380D01*
X11337742Y-85520000D01*
X11290123Y-85567619D01*
X11242504Y-85662857D01*
X11194885Y-85853333D01*
X11194885Y-86091428D01*
X11242504Y-86281904D01*
X11290123Y-86377142D01*
X11337742Y-86424761D01*
X11432980Y-86472380D01*
X11528219Y-86472380D01*
X11623457Y-86424761D01*
X11671076Y-86377142D01*
X11718695Y-86281904D01*
X11766314Y-86091428D01*
X11766314Y-85853333D01*
X11718695Y-85662857D01*
X11671076Y-85567619D01*
X11623457Y-85520000D01*
X11528219Y-85472380D01*
X10813933Y-85567619D02*
X10766314Y-85520000D01*
X10671076Y-85472380D01*
X10432980Y-85472380D01*
X10337742Y-85520000D01*
X10290123Y-85567619D01*
X10242504Y-85662857D01*
X10242504Y-85758095D01*
X10290123Y-85900952D01*
X10861552Y-86472380D01*
X10242504Y-86472380D01*
G04 #@! TO.C,D301*
X8834476Y-67422380D02*
X8834476Y-66422380D01*
X8596380Y-66422380D01*
X8453523Y-66470000D01*
X8358285Y-66565238D01*
X8310666Y-66660476D01*
X8263047Y-66850952D01*
X8263047Y-66993809D01*
X8310666Y-67184285D01*
X8358285Y-67279523D01*
X8453523Y-67374761D01*
X8596380Y-67422380D01*
X8834476Y-67422380D01*
X7929714Y-66422380D02*
X7310666Y-66422380D01*
X7644000Y-66803333D01*
X7501142Y-66803333D01*
X7405904Y-66850952D01*
X7358285Y-66898571D01*
X7310666Y-66993809D01*
X7310666Y-67231904D01*
X7358285Y-67327142D01*
X7405904Y-67374761D01*
X7501142Y-67422380D01*
X7786857Y-67422380D01*
X7882095Y-67374761D01*
X7929714Y-67327142D01*
X6691619Y-66422380D02*
X6596380Y-66422380D01*
X6501142Y-66470000D01*
X6453523Y-66517619D01*
X6405904Y-66612857D01*
X6358285Y-66803333D01*
X6358285Y-67041428D01*
X6405904Y-67231904D01*
X6453523Y-67327142D01*
X6501142Y-67374761D01*
X6596380Y-67422380D01*
X6691619Y-67422380D01*
X6786857Y-67374761D01*
X6834476Y-67327142D01*
X6882095Y-67231904D01*
X6929714Y-67041428D01*
X6929714Y-66803333D01*
X6882095Y-66612857D01*
X6834476Y-66517619D01*
X6786857Y-66470000D01*
X6691619Y-66422380D01*
X5405904Y-67422380D02*
X5977333Y-67422380D01*
X5691619Y-67422380D02*
X5691619Y-66422380D01*
X5786857Y-66565238D01*
X5882095Y-66660476D01*
X5977333Y-66708095D01*
G04 #@! TO.C,D202*
X263628476Y-48372380D02*
X263628476Y-47372380D01*
X263390380Y-47372380D01*
X263247523Y-47420000D01*
X263152285Y-47515238D01*
X263104666Y-47610476D01*
X263057047Y-47800952D01*
X263057047Y-47943809D01*
X263104666Y-48134285D01*
X263152285Y-48229523D01*
X263247523Y-48324761D01*
X263390380Y-48372380D01*
X263628476Y-48372380D01*
X262676095Y-47467619D02*
X262628476Y-47420000D01*
X262533238Y-47372380D01*
X262295142Y-47372380D01*
X262199904Y-47420000D01*
X262152285Y-47467619D01*
X262104666Y-47562857D01*
X262104666Y-47658095D01*
X262152285Y-47800952D01*
X262723714Y-48372380D01*
X262104666Y-48372380D01*
X261485619Y-47372380D02*
X261390380Y-47372380D01*
X261295142Y-47420000D01*
X261247523Y-47467619D01*
X261199904Y-47562857D01*
X261152285Y-47753333D01*
X261152285Y-47991428D01*
X261199904Y-48181904D01*
X261247523Y-48277142D01*
X261295142Y-48324761D01*
X261390380Y-48372380D01*
X261485619Y-48372380D01*
X261580857Y-48324761D01*
X261628476Y-48277142D01*
X261676095Y-48181904D01*
X261723714Y-47991428D01*
X261723714Y-47753333D01*
X261676095Y-47562857D01*
X261628476Y-47467619D01*
X261580857Y-47420000D01*
X261485619Y-47372380D01*
X260771333Y-47467619D02*
X260723714Y-47420000D01*
X260628476Y-47372380D01*
X260390380Y-47372380D01*
X260295142Y-47420000D01*
X260247523Y-47467619D01*
X260199904Y-47562857D01*
X260199904Y-47658095D01*
X260247523Y-47800952D01*
X260818952Y-48372380D01*
X260199904Y-48372380D01*
G04 #@! TO.C,D104*
X180283976Y-105522380D02*
X180283976Y-104522380D01*
X180045880Y-104522380D01*
X179903023Y-104570000D01*
X179807785Y-104665238D01*
X179760166Y-104760476D01*
X179712547Y-104950952D01*
X179712547Y-105093809D01*
X179760166Y-105284285D01*
X179807785Y-105379523D01*
X179903023Y-105474761D01*
X180045880Y-105522380D01*
X180283976Y-105522380D01*
X178760166Y-105522380D02*
X179331595Y-105522380D01*
X179045880Y-105522380D02*
X179045880Y-104522380D01*
X179141119Y-104665238D01*
X179236357Y-104760476D01*
X179331595Y-104808095D01*
X178141119Y-104522380D02*
X178045880Y-104522380D01*
X177950642Y-104570000D01*
X177903023Y-104617619D01*
X177855404Y-104712857D01*
X177807785Y-104903333D01*
X177807785Y-105141428D01*
X177855404Y-105331904D01*
X177903023Y-105427142D01*
X177950642Y-105474761D01*
X178045880Y-105522380D01*
X178141119Y-105522380D01*
X178236357Y-105474761D01*
X178283976Y-105427142D01*
X178331595Y-105331904D01*
X178379214Y-105141428D01*
X178379214Y-104903333D01*
X178331595Y-104712857D01*
X178283976Y-104617619D01*
X178236357Y-104570000D01*
X178141119Y-104522380D01*
X176950642Y-104855714D02*
X176950642Y-105522380D01*
X177188738Y-104474761D02*
X177426833Y-105189047D01*
X176807785Y-105189047D01*
G04 #@! TO.C,D201*
X6453476Y-48372380D02*
X6453476Y-47372380D01*
X6215380Y-47372380D01*
X6072523Y-47420000D01*
X5977285Y-47515238D01*
X5929666Y-47610476D01*
X5882047Y-47800952D01*
X5882047Y-47943809D01*
X5929666Y-48134285D01*
X5977285Y-48229523D01*
X6072523Y-48324761D01*
X6215380Y-48372380D01*
X6453476Y-48372380D01*
X5501095Y-47467619D02*
X5453476Y-47420000D01*
X5358238Y-47372380D01*
X5120142Y-47372380D01*
X5024904Y-47420000D01*
X4977285Y-47467619D01*
X4929666Y-47562857D01*
X4929666Y-47658095D01*
X4977285Y-47800952D01*
X5548714Y-48372380D01*
X4929666Y-48372380D01*
X4310619Y-47372380D02*
X4215380Y-47372380D01*
X4120142Y-47420000D01*
X4072523Y-47467619D01*
X4024904Y-47562857D01*
X3977285Y-47753333D01*
X3977285Y-47991428D01*
X4024904Y-48181904D01*
X4072523Y-48277142D01*
X4120142Y-48324761D01*
X4215380Y-48372380D01*
X4310619Y-48372380D01*
X4405857Y-48324761D01*
X4453476Y-48277142D01*
X4501095Y-48181904D01*
X4548714Y-47991428D01*
X4548714Y-47753333D01*
X4501095Y-47562857D01*
X4453476Y-47467619D01*
X4405857Y-47420000D01*
X4310619Y-47372380D01*
X3024904Y-48372380D02*
X3596333Y-48372380D01*
X3310619Y-48372380D02*
X3310619Y-47372380D01*
X3405857Y-47515238D01*
X3501095Y-47610476D01*
X3596333Y-47658095D01*
G04 #@! TO.C,D401*
X258865476Y-29322380D02*
X258865476Y-28322380D01*
X258627380Y-28322380D01*
X258484523Y-28370000D01*
X258389285Y-28465238D01*
X258341666Y-28560476D01*
X258294047Y-28750952D01*
X258294047Y-28893809D01*
X258341666Y-29084285D01*
X258389285Y-29179523D01*
X258484523Y-29274761D01*
X258627380Y-29322380D01*
X258865476Y-29322380D01*
X257436904Y-28655714D02*
X257436904Y-29322380D01*
X257675000Y-28274761D02*
X257913095Y-28989047D01*
X257294047Y-28989047D01*
X256722619Y-28322380D02*
X256627380Y-28322380D01*
X256532142Y-28370000D01*
X256484523Y-28417619D01*
X256436904Y-28512857D01*
X256389285Y-28703333D01*
X256389285Y-28941428D01*
X256436904Y-29131904D01*
X256484523Y-29227142D01*
X256532142Y-29274761D01*
X256627380Y-29322380D01*
X256722619Y-29322380D01*
X256817857Y-29274761D01*
X256865476Y-29227142D01*
X256913095Y-29131904D01*
X256960714Y-28941428D01*
X256960714Y-28703333D01*
X256913095Y-28512857D01*
X256865476Y-28417619D01*
X256817857Y-28370000D01*
X256722619Y-28322380D01*
X255436904Y-29322380D02*
X256008333Y-29322380D01*
X255722619Y-29322380D02*
X255722619Y-28322380D01*
X255817857Y-28465238D01*
X255913095Y-28560476D01*
X256008333Y-28608095D01*
G04 #@! TO.C,D601*
X256558576Y-67422380D02*
X256558576Y-66422380D01*
X256320480Y-66422380D01*
X256177623Y-66470000D01*
X256082385Y-66565238D01*
X256034766Y-66660476D01*
X255987147Y-66850952D01*
X255987147Y-66993809D01*
X256034766Y-67184285D01*
X256082385Y-67279523D01*
X256177623Y-67374761D01*
X256320480Y-67422380D01*
X256558576Y-67422380D01*
X255130004Y-66422380D02*
X255320480Y-66422380D01*
X255415719Y-66470000D01*
X255463338Y-66517619D01*
X255558576Y-66660476D01*
X255606195Y-66850952D01*
X255606195Y-67231904D01*
X255558576Y-67327142D01*
X255510957Y-67374761D01*
X255415719Y-67422380D01*
X255225242Y-67422380D01*
X255130004Y-67374761D01*
X255082385Y-67327142D01*
X255034766Y-67231904D01*
X255034766Y-66993809D01*
X255082385Y-66898571D01*
X255130004Y-66850952D01*
X255225242Y-66803333D01*
X255415719Y-66803333D01*
X255510957Y-66850952D01*
X255558576Y-66898571D01*
X255606195Y-66993809D01*
X254415719Y-66422380D02*
X254320480Y-66422380D01*
X254225242Y-66470000D01*
X254177623Y-66517619D01*
X254130004Y-66612857D01*
X254082385Y-66803333D01*
X254082385Y-67041428D01*
X254130004Y-67231904D01*
X254177623Y-67327142D01*
X254225242Y-67374761D01*
X254320480Y-67422380D01*
X254415719Y-67422380D01*
X254510957Y-67374761D01*
X254558576Y-67327142D01*
X254606195Y-67231904D01*
X254653814Y-67041428D01*
X254653814Y-66803333D01*
X254606195Y-66612857D01*
X254558576Y-66517619D01*
X254510957Y-66470000D01*
X254415719Y-66422380D01*
X253130004Y-67422380D02*
X253701433Y-67422380D01*
X253415719Y-67422380D02*
X253415719Y-66422380D01*
X253510957Y-66565238D01*
X253606195Y-66660476D01*
X253701433Y-66708095D01*
G04 #@! TO.C,D102*
X37408976Y-105522380D02*
X37408976Y-104522380D01*
X37170880Y-104522380D01*
X37028023Y-104570000D01*
X36932785Y-104665238D01*
X36885166Y-104760476D01*
X36837547Y-104950952D01*
X36837547Y-105093809D01*
X36885166Y-105284285D01*
X36932785Y-105379523D01*
X37028023Y-105474761D01*
X37170880Y-105522380D01*
X37408976Y-105522380D01*
X35885166Y-105522380D02*
X36456595Y-105522380D01*
X36170880Y-105522380D02*
X36170880Y-104522380D01*
X36266119Y-104665238D01*
X36361357Y-104760476D01*
X36456595Y-104808095D01*
X35266119Y-104522380D02*
X35170880Y-104522380D01*
X35075642Y-104570000D01*
X35028023Y-104617619D01*
X34980404Y-104712857D01*
X34932785Y-104903333D01*
X34932785Y-105141428D01*
X34980404Y-105331904D01*
X35028023Y-105427142D01*
X35075642Y-105474761D01*
X35170880Y-105522380D01*
X35266119Y-105522380D01*
X35361357Y-105474761D01*
X35408976Y-105427142D01*
X35456595Y-105331904D01*
X35504214Y-105141428D01*
X35504214Y-104903333D01*
X35456595Y-104712857D01*
X35408976Y-104617619D01*
X35361357Y-104570000D01*
X35266119Y-104522380D01*
X34551833Y-104617619D02*
X34504214Y-104570000D01*
X34408976Y-104522380D01*
X34170880Y-104522380D01*
X34075642Y-104570000D01*
X34028023Y-104617619D01*
X33980404Y-104712857D01*
X33980404Y-104808095D01*
X34028023Y-104950952D01*
X34599452Y-105522380D01*
X33980404Y-105522380D01*
G04 #@! TO.C,D68*
X267914285Y-105522380D02*
X267914285Y-104522380D01*
X267676190Y-104522380D01*
X267533333Y-104570000D01*
X267438095Y-104665238D01*
X267390476Y-104760476D01*
X267342857Y-104950952D01*
X267342857Y-105093809D01*
X267390476Y-105284285D01*
X267438095Y-105379523D01*
X267533333Y-105474761D01*
X267676190Y-105522380D01*
X267914285Y-105522380D01*
X266485714Y-104522380D02*
X266676190Y-104522380D01*
X266771428Y-104570000D01*
X266819047Y-104617619D01*
X266914285Y-104760476D01*
X266961904Y-104950952D01*
X266961904Y-105331904D01*
X266914285Y-105427142D01*
X266866666Y-105474761D01*
X266771428Y-105522380D01*
X266580952Y-105522380D01*
X266485714Y-105474761D01*
X266438095Y-105427142D01*
X266390476Y-105331904D01*
X266390476Y-105093809D01*
X266438095Y-104998571D01*
X266485714Y-104950952D01*
X266580952Y-104903333D01*
X266771428Y-104903333D01*
X266866666Y-104950952D01*
X266914285Y-104998571D01*
X266961904Y-105093809D01*
X265819047Y-104950952D02*
X265914285Y-104903333D01*
X265961904Y-104855714D01*
X266009523Y-104760476D01*
X266009523Y-104712857D01*
X265961904Y-104617619D01*
X265914285Y-104570000D01*
X265819047Y-104522380D01*
X265628571Y-104522380D01*
X265533333Y-104570000D01*
X265485714Y-104617619D01*
X265438095Y-104712857D01*
X265438095Y-104760476D01*
X265485714Y-104855714D01*
X265533333Y-104903333D01*
X265628571Y-104950952D01*
X265819047Y-104950952D01*
X265914285Y-104998571D01*
X265961904Y-105046190D01*
X266009523Y-105141428D01*
X266009523Y-105331904D01*
X265961904Y-105427142D01*
X265914285Y-105474761D01*
X265819047Y-105522380D01*
X265628571Y-105522380D01*
X265533333Y-105474761D01*
X265485714Y-105427142D01*
X265438095Y-105331904D01*
X265438095Y-105141428D01*
X265485714Y-105046190D01*
X265533333Y-104998571D01*
X265628571Y-104950952D01*
G04 #@! TO.C,D101*
X13596476Y-105522380D02*
X13596476Y-104522380D01*
X13358380Y-104522380D01*
X13215523Y-104570000D01*
X13120285Y-104665238D01*
X13072666Y-104760476D01*
X13025047Y-104950952D01*
X13025047Y-105093809D01*
X13072666Y-105284285D01*
X13120285Y-105379523D01*
X13215523Y-105474761D01*
X13358380Y-105522380D01*
X13596476Y-105522380D01*
X12072666Y-105522380D02*
X12644095Y-105522380D01*
X12358380Y-105522380D02*
X12358380Y-104522380D01*
X12453619Y-104665238D01*
X12548857Y-104760476D01*
X12644095Y-104808095D01*
X11453619Y-104522380D02*
X11358380Y-104522380D01*
X11263142Y-104570000D01*
X11215523Y-104617619D01*
X11167904Y-104712857D01*
X11120285Y-104903333D01*
X11120285Y-105141428D01*
X11167904Y-105331904D01*
X11215523Y-105427142D01*
X11263142Y-105474761D01*
X11358380Y-105522380D01*
X11453619Y-105522380D01*
X11548857Y-105474761D01*
X11596476Y-105427142D01*
X11644095Y-105331904D01*
X11691714Y-105141428D01*
X11691714Y-104903333D01*
X11644095Y-104712857D01*
X11596476Y-104617619D01*
X11548857Y-104570000D01*
X11453619Y-104522380D01*
X10167904Y-105522380D02*
X10739333Y-105522380D01*
X10453619Y-105522380D02*
X10453619Y-104522380D01*
X10548857Y-104665238D01*
X10644095Y-104760476D01*
X10739333Y-104808095D01*
G04 #@! TO.C,D105*
X204096476Y-105522380D02*
X204096476Y-104522380D01*
X203858380Y-104522380D01*
X203715523Y-104570000D01*
X203620285Y-104665238D01*
X203572666Y-104760476D01*
X203525047Y-104950952D01*
X203525047Y-105093809D01*
X203572666Y-105284285D01*
X203620285Y-105379523D01*
X203715523Y-105474761D01*
X203858380Y-105522380D01*
X204096476Y-105522380D01*
X202572666Y-105522380D02*
X203144095Y-105522380D01*
X202858380Y-105522380D02*
X202858380Y-104522380D01*
X202953619Y-104665238D01*
X203048857Y-104760476D01*
X203144095Y-104808095D01*
X201953619Y-104522380D02*
X201858380Y-104522380D01*
X201763142Y-104570000D01*
X201715523Y-104617619D01*
X201667904Y-104712857D01*
X201620285Y-104903333D01*
X201620285Y-105141428D01*
X201667904Y-105331904D01*
X201715523Y-105427142D01*
X201763142Y-105474761D01*
X201858380Y-105522380D01*
X201953619Y-105522380D01*
X202048857Y-105474761D01*
X202096476Y-105427142D01*
X202144095Y-105331904D01*
X202191714Y-105141428D01*
X202191714Y-104903333D01*
X202144095Y-104712857D01*
X202096476Y-104617619D01*
X202048857Y-104570000D01*
X201953619Y-104522380D01*
X200715523Y-104522380D02*
X201191714Y-104522380D01*
X201239333Y-104998571D01*
X201191714Y-104950952D01*
X201096476Y-104903333D01*
X200858380Y-104903333D01*
X200763142Y-104950952D01*
X200715523Y-104998571D01*
X200667904Y-105093809D01*
X200667904Y-105331904D01*
X200715523Y-105427142D01*
X200763142Y-105474761D01*
X200858380Y-105522380D01*
X201096476Y-105522380D01*
X201191714Y-105474761D01*
X201239333Y-105427142D01*
G04 #@! TO.C,D103*
X61221476Y-105522380D02*
X61221476Y-104522380D01*
X60983380Y-104522380D01*
X60840523Y-104570000D01*
X60745285Y-104665238D01*
X60697666Y-104760476D01*
X60650047Y-104950952D01*
X60650047Y-105093809D01*
X60697666Y-105284285D01*
X60745285Y-105379523D01*
X60840523Y-105474761D01*
X60983380Y-105522380D01*
X61221476Y-105522380D01*
X59697666Y-105522380D02*
X60269095Y-105522380D01*
X59983380Y-105522380D02*
X59983380Y-104522380D01*
X60078619Y-104665238D01*
X60173857Y-104760476D01*
X60269095Y-104808095D01*
X59078619Y-104522380D02*
X58983380Y-104522380D01*
X58888142Y-104570000D01*
X58840523Y-104617619D01*
X58792904Y-104712857D01*
X58745285Y-104903333D01*
X58745285Y-105141428D01*
X58792904Y-105331904D01*
X58840523Y-105427142D01*
X58888142Y-105474761D01*
X58983380Y-105522380D01*
X59078619Y-105522380D01*
X59173857Y-105474761D01*
X59221476Y-105427142D01*
X59269095Y-105331904D01*
X59316714Y-105141428D01*
X59316714Y-104903333D01*
X59269095Y-104712857D01*
X59221476Y-104617619D01*
X59173857Y-104570000D01*
X59078619Y-104522380D01*
X58411952Y-104522380D02*
X57792904Y-104522380D01*
X58126238Y-104903333D01*
X57983380Y-104903333D01*
X57888142Y-104950952D01*
X57840523Y-104998571D01*
X57792904Y-105093809D01*
X57792904Y-105331904D01*
X57840523Y-105427142D01*
X57888142Y-105474761D01*
X57983380Y-105522380D01*
X58269095Y-105522380D01*
X58364333Y-105474761D01*
X58411952Y-105427142D01*
G04 #@! TO.C,D6*
X95988095Y-10272380D02*
X95988095Y-9272380D01*
X95750000Y-9272380D01*
X95607142Y-9320000D01*
X95511904Y-9415238D01*
X95464285Y-9510476D01*
X95416666Y-9700952D01*
X95416666Y-9843809D01*
X95464285Y-10034285D01*
X95511904Y-10129523D01*
X95607142Y-10224761D01*
X95750000Y-10272380D01*
X95988095Y-10272380D01*
X94559523Y-9272380D02*
X94750000Y-9272380D01*
X94845238Y-9320000D01*
X94892857Y-9367619D01*
X94988095Y-9510476D01*
X95035714Y-9700952D01*
X95035714Y-10081904D01*
X94988095Y-10177142D01*
X94940476Y-10224761D01*
X94845238Y-10272380D01*
X94654761Y-10272380D01*
X94559523Y-10224761D01*
X94511904Y-10177142D01*
X94464285Y-10081904D01*
X94464285Y-9843809D01*
X94511904Y-9748571D01*
X94559523Y-9700952D01*
X94654761Y-9653333D01*
X94845238Y-9653333D01*
X94940476Y-9700952D01*
X94988095Y-9748571D01*
X95035714Y-9843809D01*
G04 #@! TO.C,D4*
X57888095Y-10272380D02*
X57888095Y-9272380D01*
X57650000Y-9272380D01*
X57507142Y-9320000D01*
X57411904Y-9415238D01*
X57364285Y-9510476D01*
X57316666Y-9700952D01*
X57316666Y-9843809D01*
X57364285Y-10034285D01*
X57411904Y-10129523D01*
X57507142Y-10224761D01*
X57650000Y-10272380D01*
X57888095Y-10272380D01*
X56459523Y-9605714D02*
X56459523Y-10272380D01*
X56697619Y-9224761D02*
X56935714Y-9939047D01*
X56316666Y-9939047D01*
G04 #@! TO.C,D8*
X134088095Y-10272380D02*
X134088095Y-9272380D01*
X133850000Y-9272380D01*
X133707142Y-9320000D01*
X133611904Y-9415238D01*
X133564285Y-9510476D01*
X133516666Y-9700952D01*
X133516666Y-9843809D01*
X133564285Y-10034285D01*
X133611904Y-10129523D01*
X133707142Y-10224761D01*
X133850000Y-10272380D01*
X134088095Y-10272380D01*
X132945238Y-9700952D02*
X133040476Y-9653333D01*
X133088095Y-9605714D01*
X133135714Y-9510476D01*
X133135714Y-9462857D01*
X133088095Y-9367619D01*
X133040476Y-9320000D01*
X132945238Y-9272380D01*
X132754761Y-9272380D01*
X132659523Y-9320000D01*
X132611904Y-9367619D01*
X132564285Y-9462857D01*
X132564285Y-9510476D01*
X132611904Y-9605714D01*
X132659523Y-9653333D01*
X132754761Y-9700952D01*
X132945238Y-9700952D01*
X133040476Y-9748571D01*
X133088095Y-9796190D01*
X133135714Y-9891428D01*
X133135714Y-10081904D01*
X133088095Y-10177142D01*
X133040476Y-10224761D01*
X132945238Y-10272380D01*
X132754761Y-10272380D01*
X132659523Y-10224761D01*
X132611904Y-10177142D01*
X132564285Y-10081904D01*
X132564285Y-9891428D01*
X132611904Y-9796190D01*
X132659523Y-9748571D01*
X132754761Y-9700952D01*
G04 #@! TO.C,D2*
X19788095Y-10272380D02*
X19788095Y-9272380D01*
X19550000Y-9272380D01*
X19407142Y-9320000D01*
X19311904Y-9415238D01*
X19264285Y-9510476D01*
X19216666Y-9700952D01*
X19216666Y-9843809D01*
X19264285Y-10034285D01*
X19311904Y-10129523D01*
X19407142Y-10224761D01*
X19550000Y-10272380D01*
X19788095Y-10272380D01*
X18835714Y-9367619D02*
X18788095Y-9320000D01*
X18692857Y-9272380D01*
X18454761Y-9272380D01*
X18359523Y-9320000D01*
X18311904Y-9367619D01*
X18264285Y-9462857D01*
X18264285Y-9558095D01*
X18311904Y-9700952D01*
X18883333Y-10272380D01*
X18264285Y-10272380D01*
G04 #@! TO.C,D3*
X38838095Y-10272380D02*
X38838095Y-9272380D01*
X38600000Y-9272380D01*
X38457142Y-9320000D01*
X38361904Y-9415238D01*
X38314285Y-9510476D01*
X38266666Y-9700952D01*
X38266666Y-9843809D01*
X38314285Y-10034285D01*
X38361904Y-10129523D01*
X38457142Y-10224761D01*
X38600000Y-10272380D01*
X38838095Y-10272380D01*
X37933333Y-9272380D02*
X37314285Y-9272380D01*
X37647619Y-9653333D01*
X37504761Y-9653333D01*
X37409523Y-9700952D01*
X37361904Y-9748571D01*
X37314285Y-9843809D01*
X37314285Y-10081904D01*
X37361904Y-10177142D01*
X37409523Y-10224761D01*
X37504761Y-10272380D01*
X37790476Y-10272380D01*
X37885714Y-10224761D01*
X37933333Y-10177142D01*
G04 #@! TO.C,D1*
X738095Y-10272380D02*
X738095Y-9272380D01*
X500000Y-9272380D01*
X357142Y-9320000D01*
X261904Y-9415238D01*
X214285Y-9510476D01*
X166666Y-9700952D01*
X166666Y-9843809D01*
X214285Y-10034285D01*
X261904Y-10129523D01*
X357142Y-10224761D01*
X500000Y-10272380D01*
X738095Y-10272380D01*
X-785714Y-10272380D02*
X-214285Y-10272380D01*
X-499999Y-10272380D02*
X-499999Y-9272380D01*
X-404761Y-9415238D01*
X-309523Y-9510476D01*
X-214285Y-9558095D01*
G04 #@! TO.C,D7*
X115038095Y-10272380D02*
X115038095Y-9272380D01*
X114800000Y-9272380D01*
X114657142Y-9320000D01*
X114561904Y-9415238D01*
X114514285Y-9510476D01*
X114466666Y-9700952D01*
X114466666Y-9843809D01*
X114514285Y-10034285D01*
X114561904Y-10129523D01*
X114657142Y-10224761D01*
X114800000Y-10272380D01*
X115038095Y-10272380D01*
X114133333Y-9272380D02*
X113466666Y-9272380D01*
X113895238Y-10272380D01*
G04 #@! TO.C,D9*
X153138095Y-10272380D02*
X153138095Y-9272380D01*
X152900000Y-9272380D01*
X152757142Y-9320000D01*
X152661904Y-9415238D01*
X152614285Y-9510476D01*
X152566666Y-9700952D01*
X152566666Y-9843809D01*
X152614285Y-10034285D01*
X152661904Y-10129523D01*
X152757142Y-10224761D01*
X152900000Y-10272380D01*
X153138095Y-10272380D01*
X152090476Y-10272380D02*
X151900000Y-10272380D01*
X151804761Y-10224761D01*
X151757142Y-10177142D01*
X151661904Y-10034285D01*
X151614285Y-9843809D01*
X151614285Y-9462857D01*
X151661904Y-9367619D01*
X151709523Y-9320000D01*
X151804761Y-9272380D01*
X151995238Y-9272380D01*
X152090476Y-9320000D01*
X152138095Y-9367619D01*
X152185714Y-9462857D01*
X152185714Y-9700952D01*
X152138095Y-9796190D01*
X152090476Y-9843809D01*
X151995238Y-9891428D01*
X151804761Y-9891428D01*
X151709523Y-9843809D01*
X151661904Y-9796190D01*
X151614285Y-9700952D01*
G04 #@! TO.C,D5*
X76938095Y-10272380D02*
X76938095Y-9272380D01*
X76700000Y-9272380D01*
X76557142Y-9320000D01*
X76461904Y-9415238D01*
X76414285Y-9510476D01*
X76366666Y-9700952D01*
X76366666Y-9843809D01*
X76414285Y-10034285D01*
X76461904Y-10129523D01*
X76557142Y-10224761D01*
X76700000Y-10272380D01*
X76938095Y-10272380D01*
X75461904Y-9272380D02*
X75938095Y-9272380D01*
X75985714Y-9748571D01*
X75938095Y-9700952D01*
X75842857Y-9653333D01*
X75604761Y-9653333D01*
X75509523Y-9700952D01*
X75461904Y-9748571D01*
X75414285Y-9843809D01*
X75414285Y-10081904D01*
X75461904Y-10177142D01*
X75509523Y-10224761D01*
X75604761Y-10272380D01*
X75842857Y-10272380D01*
X75938095Y-10224761D01*
X75985714Y-10177142D01*
G04 #@! TO.C,D10*
X172664285Y-10272380D02*
X172664285Y-9272380D01*
X172426190Y-9272380D01*
X172283333Y-9320000D01*
X172188095Y-9415238D01*
X172140476Y-9510476D01*
X172092857Y-9700952D01*
X172092857Y-9843809D01*
X172140476Y-10034285D01*
X172188095Y-10129523D01*
X172283333Y-10224761D01*
X172426190Y-10272380D01*
X172664285Y-10272380D01*
X171140476Y-10272380D02*
X171711904Y-10272380D01*
X171426190Y-10272380D02*
X171426190Y-9272380D01*
X171521428Y-9415238D01*
X171616666Y-9510476D01*
X171711904Y-9558095D01*
X170521428Y-9272380D02*
X170426190Y-9272380D01*
X170330952Y-9320000D01*
X170283333Y-9367619D01*
X170235714Y-9462857D01*
X170188095Y-9653333D01*
X170188095Y-9891428D01*
X170235714Y-10081904D01*
X170283333Y-10177142D01*
X170330952Y-10224761D01*
X170426190Y-10272380D01*
X170521428Y-10272380D01*
X170616666Y-10224761D01*
X170664285Y-10177142D01*
X170711904Y-10081904D01*
X170759523Y-9891428D01*
X170759523Y-9653333D01*
X170711904Y-9462857D01*
X170664285Y-9367619D01*
X170616666Y-9320000D01*
X170521428Y-9272380D01*
G04 #@! TO.C,D11*
X191714285Y-10272380D02*
X191714285Y-9272380D01*
X191476190Y-9272380D01*
X191333333Y-9320000D01*
X191238095Y-9415238D01*
X191190476Y-9510476D01*
X191142857Y-9700952D01*
X191142857Y-9843809D01*
X191190476Y-10034285D01*
X191238095Y-10129523D01*
X191333333Y-10224761D01*
X191476190Y-10272380D01*
X191714285Y-10272380D01*
X190190476Y-10272380D02*
X190761904Y-10272380D01*
X190476190Y-10272380D02*
X190476190Y-9272380D01*
X190571428Y-9415238D01*
X190666666Y-9510476D01*
X190761904Y-9558095D01*
X189238095Y-10272380D02*
X189809523Y-10272380D01*
X189523809Y-10272380D02*
X189523809Y-9272380D01*
X189619047Y-9415238D01*
X189714285Y-9510476D01*
X189809523Y-9558095D01*
G04 #@! TO.C,U1*
X254661904Y3130476D02*
X253861904Y3130476D01*
X253861904Y2940000D01*
X253900000Y2825714D01*
X253976190Y2749523D01*
X254052380Y2711428D01*
X254204761Y2673333D01*
X254319047Y2673333D01*
X254471428Y2711428D01*
X254547619Y2749523D01*
X254623809Y2825714D01*
X254661904Y2940000D01*
X254661904Y3130476D01*
X253861904Y1949523D02*
X253861904Y2330476D01*
X254242857Y2368571D01*
X254204761Y2330476D01*
X254166666Y2254285D01*
X254166666Y2063809D01*
X254204761Y1987619D01*
X254242857Y1949523D01*
X254319047Y1911428D01*
X254509523Y1911428D01*
X254585714Y1949523D01*
X254623809Y1987619D01*
X254661904Y2063809D01*
X254661904Y2254285D01*
X254623809Y2330476D01*
X254585714Y2368571D01*
X254242857Y-2273333D02*
X254242857Y-2006666D01*
X254661904Y-2006666D02*
X253861904Y-2006666D01*
X253861904Y-2387619D01*
X254661904Y-3111428D02*
X254661904Y-2654285D01*
X254661904Y-2882857D02*
X253861904Y-2882857D01*
X253976190Y-2806666D01*
X254052380Y-2730476D01*
X254090476Y-2654285D01*
X254585714Y133333D02*
X254623809Y171428D01*
X254661904Y285714D01*
X254661904Y361904D01*
X254623809Y476190D01*
X254547619Y552380D01*
X254471428Y590476D01*
X254319047Y628571D01*
X254204761Y628571D01*
X254052380Y590476D01*
X253976190Y552380D01*
X253900000Y476190D01*
X253861904Y361904D01*
X253861904Y285714D01*
X253900000Y171428D01*
X253938095Y133333D01*
X253861904Y-133333D02*
X253861904Y-666666D01*
X254661904Y-323809D01*
X254235702Y-6564991D02*
X254141421Y-6517851D01*
X254094280Y-6517851D01*
X254023570Y-6541421D01*
X253952859Y-6612132D01*
X253929289Y-6682842D01*
X253929289Y-6729983D01*
X253952859Y-6800693D01*
X254141421Y-6989255D01*
X254636396Y-6494280D01*
X254471404Y-6329289D01*
X254400693Y-6305719D01*
X254353553Y-6305719D01*
X254282842Y-6329289D01*
X254235702Y-6376429D01*
X254212132Y-6447140D01*
X254212132Y-6494280D01*
X254235702Y-6564991D01*
X254400693Y-6729983D01*
X253929289Y-5787174D02*
X254023570Y-5881455D01*
X254047140Y-5952165D01*
X254047140Y-5999306D01*
X254023570Y-6117157D01*
X253952859Y-6235008D01*
X253764297Y-6423570D01*
X253693587Y-6447140D01*
X253646446Y-6447140D01*
X253575735Y-6423570D01*
X253481455Y-6329289D01*
X253457884Y-6258578D01*
X253457884Y-6211438D01*
X253481455Y-6140727D01*
X253599306Y-6022876D01*
X253670016Y-5999306D01*
X253717157Y-5999306D01*
X253787867Y-6022876D01*
X253882148Y-6117157D01*
X253905719Y-6187867D01*
X253905719Y-6235008D01*
X253882148Y-6305719D01*
X254050000Y-4266666D02*
X254050000Y-4033333D01*
X254416666Y-4033333D02*
X253716666Y-4033333D01*
X253716666Y-4366666D01*
X253716666Y-4766666D02*
X253716666Y-4833333D01*
X253750000Y-4900000D01*
X253783333Y-4933333D01*
X253850000Y-4966666D01*
X253983333Y-5000000D01*
X254150000Y-5000000D01*
X254283333Y-4966666D01*
X254350000Y-4933333D01*
X254383333Y-4900000D01*
X254416666Y-4833333D01*
X254416666Y-4766666D01*
X254383333Y-4700000D01*
X254350000Y-4666666D01*
X254283333Y-4633333D01*
X254150000Y-4600000D01*
X253983333Y-4600000D01*
X253850000Y-4633333D01*
X253783333Y-4666666D01*
X253750000Y-4700000D01*
X253716666Y-4766666D01*
X254050000Y4783333D02*
X254083333Y4683333D01*
X254116666Y4650000D01*
X254183333Y4616666D01*
X254283333Y4616666D01*
X254350000Y4650000D01*
X254383333Y4683333D01*
X254416666Y4750000D01*
X254416666Y5016666D01*
X253716666Y5016666D01*
X253716666Y4783333D01*
X253750000Y4716666D01*
X253783333Y4683333D01*
X253850000Y4650000D01*
X253916666Y4650000D01*
X253983333Y4683333D01*
X254016666Y4716666D01*
X254050000Y4783333D01*
X254050000Y5016666D01*
X253716666Y4383333D02*
X253716666Y3916666D01*
X254416666Y4216666D01*
X275933809Y-4506666D02*
X275971904Y-4620952D01*
X275971904Y-4811428D01*
X275933809Y-4887619D01*
X275895714Y-4925714D01*
X275819523Y-4963809D01*
X275743333Y-4963809D01*
X275667142Y-4925714D01*
X275629047Y-4887619D01*
X275590952Y-4811428D01*
X275552857Y-4659047D01*
X275514761Y-4582857D01*
X275476666Y-4544761D01*
X275400476Y-4506666D01*
X275324285Y-4506666D01*
X275248095Y-4544761D01*
X275210000Y-4582857D01*
X275171904Y-4659047D01*
X275171904Y-4849523D01*
X275210000Y-4963809D01*
X275171904Y-5192380D02*
X275171904Y-5649523D01*
X275971904Y-5420952D02*
X275171904Y-5420952D01*
X280231904Y5762348D02*
X280231904Y5305205D01*
X281031904Y5533776D02*
X280231904Y5533776D01*
X280231904Y5114729D02*
X281031904Y4581395D01*
X280231904Y4581395D02*
X281031904Y5114729D01*
X280231904Y4124252D02*
X280231904Y4048062D01*
X280270000Y3971872D01*
X280308095Y3933776D01*
X280384285Y3895681D01*
X280536666Y3857586D01*
X280727142Y3857586D01*
X280879523Y3895681D01*
X280955714Y3933776D01*
X280993809Y3971872D01*
X281031904Y4048062D01*
X281031904Y4124252D01*
X280993809Y4200443D01*
X280955714Y4238538D01*
X280879523Y4276633D01*
X280727142Y4314729D01*
X280536666Y4314729D01*
X280384285Y4276633D01*
X280308095Y4238538D01*
X280270000Y4200443D01*
X280231904Y4124252D01*
X280193809Y2943300D02*
X281222380Y3629014D01*
X281031904Y2676633D02*
X280231904Y2676633D01*
X280231904Y2486157D01*
X280270000Y2371872D01*
X280346190Y2295681D01*
X280422380Y2257586D01*
X280574761Y2219491D01*
X280689047Y2219491D01*
X280841428Y2257586D01*
X280917619Y2295681D01*
X280993809Y2371872D01*
X281031904Y2486157D01*
X281031904Y2676633D01*
X280231904Y1952824D02*
X280231904Y1457586D01*
X280536666Y1724252D01*
X280536666Y1609967D01*
X280574761Y1533776D01*
X280612857Y1495681D01*
X280689047Y1457586D01*
X280879523Y1457586D01*
X280955714Y1495681D01*
X280993809Y1533776D01*
X281031904Y1609967D01*
X281031904Y1838538D01*
X280993809Y1914729D01*
X280955714Y1952824D01*
X255212857Y-5137190D02*
X255250952Y-5251476D01*
X255289047Y-5289571D01*
X255365238Y-5327666D01*
X255479523Y-5327666D01*
X255555714Y-5289571D01*
X255593809Y-5251476D01*
X255631904Y-5175285D01*
X255631904Y-4870523D01*
X254831904Y-4870523D01*
X254831904Y-5137190D01*
X254870000Y-5213380D01*
X254908095Y-5251476D01*
X254984285Y-5289571D01*
X255060476Y-5289571D01*
X255136666Y-5251476D01*
X255174761Y-5213380D01*
X255212857Y-5137190D01*
X255212857Y-4870523D01*
X254908095Y-5632428D02*
X254870000Y-5670523D01*
X254831904Y-5746714D01*
X254831904Y-5937190D01*
X254870000Y-6013380D01*
X254908095Y-6051476D01*
X254984285Y-6089571D01*
X255060476Y-6089571D01*
X255174761Y-6051476D01*
X255631904Y-5594333D01*
X255631904Y-6089571D01*
X262832857Y-5194333D02*
X262832857Y-4927666D01*
X263251904Y-4927666D02*
X262451904Y-4927666D01*
X262451904Y-5308619D01*
X262451904Y-5537190D02*
X262451904Y-6070523D01*
X263251904Y-5727666D01*
X265372857Y-5194333D02*
X265372857Y-4927666D01*
X265791904Y-4927666D02*
X264991904Y-4927666D01*
X264991904Y-5308619D01*
X264991904Y-5956238D02*
X264991904Y-5803857D01*
X265030000Y-5727666D01*
X265068095Y-5689571D01*
X265182380Y-5613380D01*
X265334761Y-5575285D01*
X265639523Y-5575285D01*
X265715714Y-5613380D01*
X265753809Y-5651476D01*
X265791904Y-5727666D01*
X265791904Y-5880047D01*
X265753809Y-5956238D01*
X265715714Y-5994333D01*
X265639523Y-6032428D01*
X265449047Y-6032428D01*
X265372857Y-5994333D01*
X265334761Y-5956238D01*
X265296666Y-5880047D01*
X265296666Y-5727666D01*
X265334761Y-5651476D01*
X265372857Y-5613380D01*
X265449047Y-5575285D01*
X267912857Y-5194333D02*
X267912857Y-4927666D01*
X268331904Y-4927666D02*
X267531904Y-4927666D01*
X267531904Y-5308619D01*
X267531904Y-5994333D02*
X267531904Y-5613380D01*
X267912857Y-5575285D01*
X267874761Y-5613380D01*
X267836666Y-5689571D01*
X267836666Y-5880047D01*
X267874761Y-5956238D01*
X267912857Y-5994333D01*
X267989047Y-6032428D01*
X268179523Y-6032428D01*
X268255714Y-5994333D01*
X268293809Y-5956238D01*
X268331904Y-5880047D01*
X268331904Y-5689571D01*
X268293809Y-5613380D01*
X268255714Y-5575285D01*
X280612857Y-5137190D02*
X280650952Y-5251476D01*
X280689047Y-5289571D01*
X280765238Y-5327666D01*
X280879523Y-5327666D01*
X280955714Y-5289571D01*
X280993809Y-5251476D01*
X281031904Y-5175285D01*
X281031904Y-4870523D01*
X280231904Y-4870523D01*
X280231904Y-5137190D01*
X280270000Y-5213380D01*
X280308095Y-5251476D01*
X280384285Y-5289571D01*
X280460476Y-5289571D01*
X280536666Y-5251476D01*
X280574761Y-5213380D01*
X280612857Y-5137190D01*
X280612857Y-4870523D01*
X280231904Y-5822904D02*
X280231904Y-5899095D01*
X280270000Y-5975285D01*
X280308095Y-6013380D01*
X280384285Y-6051476D01*
X280536666Y-6089571D01*
X280727142Y-6089571D01*
X280879523Y-6051476D01*
X280955714Y-6013380D01*
X280993809Y-5975285D01*
X281031904Y-5899095D01*
X281031904Y-5822904D01*
X280993809Y-5746714D01*
X280955714Y-5708619D01*
X280879523Y-5670523D01*
X280727142Y-5632428D01*
X280536666Y-5632428D01*
X280384285Y-5670523D01*
X280308095Y-5708619D01*
X280270000Y-5746714D01*
X280231904Y-5822904D01*
X277730000Y-4851476D02*
X277691904Y-4775285D01*
X277691904Y-4661000D01*
X277730000Y-4546714D01*
X277806190Y-4470523D01*
X277882380Y-4432428D01*
X278034761Y-4394333D01*
X278149047Y-4394333D01*
X278301428Y-4432428D01*
X278377619Y-4470523D01*
X278453809Y-4546714D01*
X278491904Y-4661000D01*
X278491904Y-4737190D01*
X278453809Y-4851476D01*
X278415714Y-4889571D01*
X278149047Y-4889571D01*
X278149047Y-4737190D01*
X278491904Y-5232428D02*
X277691904Y-5232428D01*
X278491904Y-5689571D01*
X277691904Y-5689571D01*
X278491904Y-6070523D02*
X277691904Y-6070523D01*
X277691904Y-6261000D01*
X277730000Y-6375285D01*
X277806190Y-6451476D01*
X277882380Y-6489571D01*
X278034761Y-6527666D01*
X278149047Y-6527666D01*
X278301428Y-6489571D01*
X278377619Y-6451476D01*
X278453809Y-6375285D01*
X278491904Y-6261000D01*
X278491904Y-6070523D01*
X272611904Y-4394333D02*
X273411904Y-4661000D01*
X272611904Y-4927666D01*
X273335714Y-5651476D02*
X273373809Y-5613380D01*
X273411904Y-5499095D01*
X273411904Y-5422904D01*
X273373809Y-5308619D01*
X273297619Y-5232428D01*
X273221428Y-5194333D01*
X273069047Y-5156238D01*
X272954761Y-5156238D01*
X272802380Y-5194333D01*
X272726190Y-5232428D01*
X272650000Y-5308619D01*
X272611904Y-5422904D01*
X272611904Y-5499095D01*
X272650000Y-5613380D01*
X272688095Y-5651476D01*
X273335714Y-6451476D02*
X273373809Y-6413380D01*
X273411904Y-6299095D01*
X273411904Y-6222904D01*
X273373809Y-6108619D01*
X273297619Y-6032428D01*
X273221428Y-5994333D01*
X273069047Y-5956238D01*
X272954761Y-5956238D01*
X272802380Y-5994333D01*
X272726190Y-6032428D01*
X272650000Y-6108619D01*
X272611904Y-6222904D01*
X272611904Y-6299095D01*
X272650000Y-6413380D01*
X272688095Y-6451476D01*
X270452857Y-5194333D02*
X270452857Y-4927666D01*
X270871904Y-4927666D02*
X270071904Y-4927666D01*
X270071904Y-5308619D01*
X270338571Y-5956238D02*
X270871904Y-5956238D01*
X270033809Y-5765761D02*
X270605238Y-5575285D01*
X270605238Y-6070523D01*
X260292857Y-5137190D02*
X260330952Y-5251476D01*
X260369047Y-5289571D01*
X260445238Y-5327666D01*
X260559523Y-5327666D01*
X260635714Y-5289571D01*
X260673809Y-5251476D01*
X260711904Y-5175285D01*
X260711904Y-4870523D01*
X259911904Y-4870523D01*
X259911904Y-5137190D01*
X259950000Y-5213380D01*
X259988095Y-5251476D01*
X260064285Y-5289571D01*
X260140476Y-5289571D01*
X260216666Y-5251476D01*
X260254761Y-5213380D01*
X260292857Y-5137190D01*
X260292857Y-4870523D01*
X260711904Y-6089571D02*
X260711904Y-5632428D01*
X260711904Y-5861000D02*
X259911904Y-5861000D01*
X260026190Y-5784809D01*
X260102380Y-5708619D01*
X260140476Y-5632428D01*
X257752857Y-5137190D02*
X257790952Y-5251476D01*
X257829047Y-5289571D01*
X257905238Y-5327666D01*
X258019523Y-5327666D01*
X258095714Y-5289571D01*
X258133809Y-5251476D01*
X258171904Y-5175285D01*
X258171904Y-4870523D01*
X257371904Y-4870523D01*
X257371904Y-5137190D01*
X257410000Y-5213380D01*
X257448095Y-5251476D01*
X257524285Y-5289571D01*
X257600476Y-5289571D01*
X257676666Y-5251476D01*
X257714761Y-5213380D01*
X257752857Y-5137190D01*
X257752857Y-4870523D01*
X257371904Y-5594333D02*
X257371904Y-6089571D01*
X257676666Y-5822904D01*
X257676666Y-5937190D01*
X257714761Y-6013380D01*
X257752857Y-6051476D01*
X257829047Y-6089571D01*
X258019523Y-6089571D01*
X258095714Y-6051476D01*
X258133809Y-6013380D01*
X258171904Y-5937190D01*
X258171904Y-5708619D01*
X258133809Y-5632428D01*
X258095714Y-5594333D01*
X254164991Y6635702D02*
X254117851Y6541421D01*
X254117851Y6494280D01*
X254141421Y6423570D01*
X254212132Y6352859D01*
X254282842Y6329289D01*
X254329983Y6329289D01*
X254400693Y6352859D01*
X254589255Y6541421D01*
X254094280Y7036396D01*
X253929289Y6871404D01*
X253905719Y6800693D01*
X253905719Y6753553D01*
X253929289Y6682842D01*
X253976429Y6635702D01*
X254047140Y6612132D01*
X254094280Y6612132D01*
X254164991Y6635702D01*
X254329983Y6800693D01*
X253363603Y6305719D02*
X253599306Y6541421D01*
X253858578Y6329289D01*
X253811438Y6329289D01*
X253740727Y6305719D01*
X253622876Y6187867D01*
X253599306Y6117157D01*
X253599306Y6070016D01*
X253622876Y5999306D01*
X253740727Y5881455D01*
X253811438Y5857884D01*
X253858578Y5857884D01*
X253929289Y5881455D01*
X254047140Y5999306D01*
X254070710Y6070016D01*
X254070710Y6117157D01*
X255212857Y5784809D02*
X255250952Y5670523D01*
X255289047Y5632428D01*
X255365238Y5594333D01*
X255479523Y5594333D01*
X255555714Y5632428D01*
X255593809Y5670523D01*
X255631904Y5746714D01*
X255631904Y6051476D01*
X254831904Y6051476D01*
X254831904Y5784809D01*
X254870000Y5708619D01*
X254908095Y5670523D01*
X254984285Y5632428D01*
X255060476Y5632428D01*
X255136666Y5670523D01*
X255174761Y5708619D01*
X255212857Y5784809D01*
X255212857Y6051476D01*
X255098571Y4908619D02*
X255631904Y4908619D01*
X254793809Y5099095D02*
X255365238Y5289571D01*
X255365238Y4794333D01*
X257752857Y6013380D02*
X257752857Y5746714D01*
X258171904Y5632428D02*
X258171904Y6013380D01*
X257371904Y6013380D01*
X257371904Y5632428D01*
X257371904Y4946714D02*
X257371904Y5099095D01*
X257410000Y5175285D01*
X257448095Y5213380D01*
X257562380Y5289571D01*
X257714761Y5327666D01*
X258019523Y5327666D01*
X258095714Y5289571D01*
X258133809Y5251476D01*
X258171904Y5175285D01*
X258171904Y5022904D01*
X258133809Y4946714D01*
X258095714Y4908619D01*
X258019523Y4870523D01*
X257829047Y4870523D01*
X257752857Y4908619D01*
X257714761Y4946714D01*
X257676666Y5022904D01*
X257676666Y5175285D01*
X257714761Y5251476D01*
X257752857Y5289571D01*
X257829047Y5327666D01*
X260711904Y6051476D02*
X259911904Y6051476D01*
X259911904Y5861000D01*
X259950000Y5746714D01*
X260026190Y5670523D01*
X260102380Y5632428D01*
X260254761Y5594333D01*
X260369047Y5594333D01*
X260521428Y5632428D01*
X260597619Y5670523D01*
X260673809Y5746714D01*
X260711904Y5861000D01*
X260711904Y6051476D01*
X259911904Y5327666D02*
X259911904Y4794333D01*
X260711904Y5137190D01*
X263175714Y5594333D02*
X263213809Y5632428D01*
X263251904Y5746714D01*
X263251904Y5822904D01*
X263213809Y5937190D01*
X263137619Y6013380D01*
X263061428Y6051476D01*
X262909047Y6089571D01*
X262794761Y6089571D01*
X262642380Y6051476D01*
X262566190Y6013380D01*
X262490000Y5937190D01*
X262451904Y5822904D01*
X262451904Y5746714D01*
X262490000Y5632428D01*
X262528095Y5594333D01*
X262451904Y4908619D02*
X262451904Y5061000D01*
X262490000Y5137190D01*
X262528095Y5175285D01*
X262642380Y5251476D01*
X262794761Y5289571D01*
X263099523Y5289571D01*
X263175714Y5251476D01*
X263213809Y5213380D01*
X263251904Y5137190D01*
X263251904Y4984809D01*
X263213809Y4908619D01*
X263175714Y4870523D01*
X263099523Y4832428D01*
X262909047Y4832428D01*
X262832857Y4870523D01*
X262794761Y4908619D01*
X262756666Y4984809D01*
X262756666Y5137190D01*
X262794761Y5213380D01*
X262832857Y5251476D01*
X262909047Y5289571D01*
X265791904Y6051476D02*
X264991904Y6051476D01*
X264991904Y5861000D01*
X265030000Y5746714D01*
X265106190Y5670523D01*
X265182380Y5632428D01*
X265334761Y5594333D01*
X265449047Y5594333D01*
X265601428Y5632428D01*
X265677619Y5670523D01*
X265753809Y5746714D01*
X265791904Y5861000D01*
X265791904Y6051476D01*
X265258571Y4908619D02*
X265791904Y4908619D01*
X264953809Y5099095D02*
X265525238Y5289571D01*
X265525238Y4794333D01*
X275190000Y6070523D02*
X275151904Y6146714D01*
X275151904Y6261000D01*
X275190000Y6375285D01*
X275266190Y6451476D01*
X275342380Y6489571D01*
X275494761Y6527666D01*
X275609047Y6527666D01*
X275761428Y6489571D01*
X275837619Y6451476D01*
X275913809Y6375285D01*
X275951904Y6261000D01*
X275951904Y6184809D01*
X275913809Y6070523D01*
X275875714Y6032428D01*
X275609047Y6032428D01*
X275609047Y6184809D01*
X275951904Y5689571D02*
X275151904Y5689571D01*
X275951904Y5232428D01*
X275151904Y5232428D01*
X275951904Y4851476D02*
X275151904Y4851476D01*
X275151904Y4661000D01*
X275190000Y4546714D01*
X275266190Y4470523D01*
X275342380Y4432428D01*
X275494761Y4394333D01*
X275609047Y4394333D01*
X275761428Y4432428D01*
X275837619Y4470523D01*
X275913809Y4546714D01*
X275951904Y4661000D01*
X275951904Y4851476D01*
X272650000Y6070523D02*
X272611904Y6146714D01*
X272611904Y6261000D01*
X272650000Y6375285D01*
X272726190Y6451476D01*
X272802380Y6489571D01*
X272954761Y6527666D01*
X273069047Y6527666D01*
X273221428Y6489571D01*
X273297619Y6451476D01*
X273373809Y6375285D01*
X273411904Y6261000D01*
X273411904Y6184809D01*
X273373809Y6070523D01*
X273335714Y6032428D01*
X273069047Y6032428D01*
X273069047Y6184809D01*
X273411904Y5689571D02*
X272611904Y5689571D01*
X273411904Y5232428D01*
X272611904Y5232428D01*
X273411904Y4851476D02*
X272611904Y4851476D01*
X272611904Y4661000D01*
X272650000Y4546714D01*
X272726190Y4470523D01*
X272802380Y4432428D01*
X272954761Y4394333D01*
X273069047Y4394333D01*
X273221428Y4432428D01*
X273297619Y4470523D01*
X273373809Y4546714D01*
X273411904Y4661000D01*
X273411904Y4851476D01*
X270871904Y6051476D02*
X270071904Y6051476D01*
X270071904Y5861000D01*
X270110000Y5746714D01*
X270186190Y5670523D01*
X270262380Y5632428D01*
X270414761Y5594333D01*
X270529047Y5594333D01*
X270681428Y5632428D01*
X270757619Y5670523D01*
X270833809Y5746714D01*
X270871904Y5861000D01*
X270871904Y6051476D01*
X270871904Y4832428D02*
X270871904Y5289571D01*
X270871904Y5061000D02*
X270071904Y5061000D01*
X270186190Y5137190D01*
X270262380Y5213380D01*
X270300476Y5289571D01*
X268331904Y6051476D02*
X267531904Y6051476D01*
X267531904Y5861000D01*
X267570000Y5746714D01*
X267646190Y5670523D01*
X267722380Y5632428D01*
X267874761Y5594333D01*
X267989047Y5594333D01*
X268141428Y5632428D01*
X268217619Y5670523D01*
X268293809Y5746714D01*
X268331904Y5861000D01*
X268331904Y6051476D01*
X267531904Y5099095D02*
X267531904Y5022904D01*
X267570000Y4946714D01*
X267608095Y4908619D01*
X267684285Y4870523D01*
X267836666Y4832428D01*
X268027142Y4832428D01*
X268179523Y4870523D01*
X268255714Y4908619D01*
X268293809Y4946714D01*
X268331904Y5022904D01*
X268331904Y5099095D01*
X268293809Y5175285D01*
X268255714Y5213380D01*
X268179523Y5251476D01*
X268027142Y5289571D01*
X267836666Y5289571D01*
X267684285Y5251476D01*
X267608095Y5213380D01*
X267570000Y5175285D01*
X267531904Y5099095D01*
X278491904Y6051476D02*
X277691904Y6051476D01*
X277691904Y5861000D01*
X277730000Y5746714D01*
X277806190Y5670523D01*
X277882380Y5632428D01*
X278034761Y5594333D01*
X278149047Y5594333D01*
X278301428Y5632428D01*
X278377619Y5670523D01*
X278453809Y5746714D01*
X278491904Y5861000D01*
X278491904Y6051476D01*
X277768095Y5289571D02*
X277730000Y5251476D01*
X277691904Y5175285D01*
X277691904Y4984809D01*
X277730000Y4908619D01*
X277768095Y4870523D01*
X277844285Y4832428D01*
X277920476Y4832428D01*
X278034761Y4870523D01*
X278491904Y5327666D01*
X278491904Y4832428D01*
G04 #@! TD*
M02*
