<?xml version="1.0"?>
<!-- Generated by SVGo -->
<svg width="295.752mm" height="124.302mm"
     viewBox="0.000 0.000 295.752 124.302"
     xmlns="http://www.w3.org/2000/svg" 
     xmlns:xlink="http://www.w3.org/1999/xlink">
<polygon points="290.752,119.301 5.001,119.301 5.001,5.001 290.752,5.001" style="fill:none;stroke-width:0.050000mm;stroke:black"/>
<polygon points="274.226,102.775 274.226,103.775 273.426,103.775 273.426,106.875 274.226,106.875 274.226,112.676 273.426,112.676 273.426,115.775 274.226,115.775 274.226,116.775 288.226,116.775 288.226,115.775 289.026,115.775 289.026,112.676 288.226,112.676 288.226,106.875 289.026,106.875 289.026,103.775 288.226,103.775 288.226,102.775" style="fill:none;stroke-width:0.050000mm;stroke:black"/>
<polygon points="255.176,102.775 255.176,103.775 254.376,103.775 254.376,106.875 255.176,106.875 255.176,112.676 254.376,112.676 254.376,115.775 255.176,115.775 255.176,116.775 269.176,116.775 269.176,115.775 269.976,115.775 269.976,112.676 269.176,112.676 269.176,106.875 269.976,106.875 269.976,103.775 269.176,103.775 269.176,102.775" style="fill:none;stroke-width:0.050000mm;stroke:black"/>
<polygon points="236.126,102.775 236.126,103.775 235.326,103.775 235.326,106.875 236.126,106.875 236.126,112.676 235.326,112.676 235.326,115.775 236.126,115.775 236.126,116.775 250.126,116.775 250.126,115.775 250.926,115.775 250.926,112.676 250.126,112.676 250.126,106.875 250.926,106.875 250.926,103.775 250.126,103.775 250.126,102.775" style="fill:none;stroke-width:0.050000mm;stroke:black"/>
<polygon points="209.932,102.775 209.932,103.775 209.132,103.775 209.132,106.875 209.932,106.875 209.932,112.676 209.132,112.676 209.132,115.775 209.932,115.775 209.932,116.775 223.932,116.775 223.932,115.775 224.732,115.775 224.732,112.676 223.932,112.676 223.932,106.875 224.732,106.875 224.732,103.775 223.932,103.775 223.932,102.775" style="fill:none;stroke-width:0.050000mm;stroke:black"/>
<polygon points="186.119,102.775 186.119,103.775 185.319,103.775 185.319,106.875 186.119,106.875 186.119,112.676 185.319,112.676 185.319,115.775 186.119,115.775 186.119,116.775 200.119,116.775 200.119,115.775 200.919,115.775 200.919,112.676 200.119,112.676 200.119,106.875 200.919,106.875 200.919,103.775 200.119,103.775 200.119,102.775" style="fill:none;stroke-width:0.050000mm;stroke:black"/>
<polygon points="164.688,102.775 164.688,103.775 163.888,103.775 163.888,106.875 164.688,106.875 164.688,112.676 163.888,112.676 163.888,115.775 164.688,115.775 164.688,116.775 178.688,116.775 178.688,115.775 179.488,115.775 179.488,112.676 178.688,112.676 178.688,106.875 179.488,106.875 179.488,103.775 178.688,103.775 178.688,102.775" style="fill:none;stroke-width:0.050000mm;stroke:black"/>
<polygon points="145.638,102.775 145.638,103.775 144.838,103.775 144.838,106.875 145.638,106.875 145.638,112.676 144.838,112.676 144.838,115.775 145.638,115.775 145.638,116.775 159.638,116.775 159.638,115.775 160.438,115.775 160.438,112.676 159.638,112.676 159.638,106.875 160.438,106.875 160.438,103.775 159.638,103.775 159.638,102.775" style="fill:none;stroke-width:0.050000mm;stroke:black"/>
<polygon points="126.588,102.775 126.588,103.775 125.788,103.775 125.788,106.875 126.588,106.875 126.588,112.676 125.788,112.676 125.788,115.775 126.588,115.775 126.588,116.775 140.588,116.775 140.588,115.775 141.388,115.775 141.388,112.676 140.588,112.676 140.588,106.875 141.388,106.875 141.388,103.775 140.588,103.775 140.588,102.775" style="fill:none;stroke-width:0.050000mm;stroke:black"/>
<polygon points="107.538,102.775 107.538,103.775 106.738,103.775 106.738,106.875 107.538,106.875 107.538,112.676 106.738,112.676 106.738,115.775 107.538,115.775 107.538,116.775 121.538,116.775 121.538,115.775 122.338,115.775 122.338,112.676 121.538,112.676 121.538,106.875 122.338,106.875 122.338,103.775 121.538,103.775 121.538,102.775" style="fill:none;stroke-width:0.050000mm;stroke:black"/>
<polygon points="88.488,102.775 88.488,103.775 87.688,103.775 87.688,106.875 88.488,106.875 88.488,112.676 87.688,112.676 87.688,115.775 88.488,115.775 88.488,116.775 102.488,116.775 102.488,115.775 103.288,115.775 103.288,112.676 102.488,112.676 102.488,106.875 103.288,106.875 103.288,103.775 102.488,103.775 102.488,102.775" style="fill:none;stroke-width:0.050000mm;stroke:black"/>
<polygon points="67.057,102.775 67.057,103.775 66.257,103.775 66.257,106.875 67.057,106.875 67.057,112.676 66.257,112.676 66.257,115.775 67.057,115.775 67.057,116.775 81.057,116.775 81.057,115.775 81.857,115.775 81.857,112.676 81.057,112.676 81.057,106.875 81.857,106.875 81.857,103.775 81.057,103.775 81.057,102.775" style="fill:none;stroke-width:0.050000mm;stroke:black"/>
<polygon points="43.244,102.775 43.244,103.775 42.444,103.775 42.444,106.875 43.244,106.875 43.244,112.676 42.444,112.676 42.444,115.775 43.244,115.775 43.244,116.775 57.244,116.775 57.244,115.775 58.044,115.775 58.044,112.676 57.244,112.676 57.244,106.875 58.044,106.875 58.044,103.775 57.244,103.775 57.244,102.775" style="fill:none;stroke-width:0.050000mm;stroke:black"/>
<polygon points="19.432,102.775 19.432,103.775 18.632,103.775 18.632,106.875 19.432,106.875 19.432,112.676 18.632,112.676 18.632,115.775 19.432,115.775 19.432,116.775 33.432,116.775 33.432,115.775 34.232,115.775 34.232,112.676 33.432,112.676 33.432,106.875 34.232,106.875 34.232,103.775 33.432,103.775 33.432,102.775" style="fill:none;stroke-width:0.050000mm;stroke:black"/>
<polygon points="19.432,83.726 19.432,84.726 18.632,84.726 18.632,87.825 19.432,87.825 19.432,88.426 17.907,88.426 17.907,85.196 16.182,85.196 16.182,84.275 12.882,84.275 12.882,85.196 11.157,85.196 11.157,88.426 10.332,88.426 10.332,91.226 11.157,91.226 11.157,97.495 12.882,97.495 12.882,98.476 16.182,98.476 16.182,97.495 17.907,97.495 17.907,93.025 19.432,93.025 19.432,93.626 18.632,93.626 18.632,96.726 19.432,96.726 19.432,97.726 33.432,97.726 33.432,96.726 34.232,96.726 34.232,93.626 33.432,93.626 33.432,93.025 34.957,93.025 34.957,97.495 36.682,97.495 36.682,98.476 39.982,98.476 39.982,97.495 41.707,97.495 41.707,91.226 42.532,91.226 42.532,88.426 41.707,88.426 41.707,85.196 39.982,85.196 39.982,84.275 36.682,84.275 36.682,85.196 34.957,85.196 34.957,88.426 33.432,88.426 33.432,87.825 34.232,87.825 34.232,84.726 33.432,84.726 33.432,83.726" style="fill:none;stroke-width:0.050000mm;stroke:black"/>
<polygon points="274.226,83.726 274.226,84.726 273.426,84.726 273.426,87.825 274.226,87.825 274.226,93.626 273.426,93.626 273.426,96.726 274.226,96.726 274.226,97.726 288.226,97.726 288.226,96.726 289.026,96.726 289.026,93.626 288.226,93.626 288.226,87.825 289.026,87.825 289.026,84.726 288.226,84.726 288.226,83.726" style="fill:none;stroke-width:0.050000mm;stroke:black"/>
<polygon points="255.176,83.726 255.176,84.726 254.376,84.726 254.376,87.825 255.176,87.825 255.176,93.626 254.376,93.626 254.376,96.726 255.176,96.726 255.176,97.726 269.176,97.726 269.176,96.726 269.976,96.726 269.976,93.626 269.176,93.626 269.176,87.825 269.976,87.825 269.976,84.726 269.176,84.726 269.176,83.726" style="fill:none;stroke-width:0.050000mm;stroke:black"/>
<polygon points="221.838,83.726 221.838,84.726 221.038,84.726 221.038,87.825 221.838,87.825 221.838,93.626 221.038,93.626 221.038,96.726 221.838,96.726 221.838,97.726 235.838,97.726 235.838,96.726 236.638,96.726 236.638,93.626 235.838,93.626 235.838,87.825 236.638,87.825 236.638,84.726 235.838,84.726 235.838,83.726" style="fill:none;stroke-width:0.050000mm;stroke:black"/>
<polygon points="202.788,83.726 202.788,84.726 201.988,84.726 201.988,87.825 202.788,87.825 202.788,93.626 201.988,93.626 201.988,96.726 202.788,96.726 202.788,97.726 216.788,97.726 216.788,96.726 217.588,96.726 217.588,93.626 216.788,93.626 216.788,87.825 217.588,87.825 217.588,84.726 216.788,84.726 216.788,83.726" style="fill:none;stroke-width:0.050000mm;stroke:black"/>
<polygon points="183.738,83.726 183.738,84.726 182.938,84.726 182.938,87.825 183.738,87.825 183.738,93.626 182.938,93.626 182.938,96.726 183.738,96.726 183.738,97.726 197.738,97.726 197.738,96.726 198.538,96.726 198.538,93.626 197.738,93.626 197.738,87.825 198.538,87.825 198.538,84.726 197.738,84.726 197.738,83.726" style="fill:none;stroke-width:0.050000mm;stroke:black"/>
<polygon points="164.688,83.726 164.688,84.726 163.888,84.726 163.888,87.825 164.688,87.825 164.688,93.626 163.888,93.626 163.888,96.726 164.688,96.726 164.688,97.726 178.688,97.726 178.688,96.726 179.488,96.726 179.488,93.626 178.688,93.626 178.688,87.825 179.488,87.825 179.488,84.726 178.688,84.726 178.688,83.726" style="fill:none;stroke-width:0.050000mm;stroke:black"/>
<polygon points="145.638,83.726 145.638,84.726 144.838,84.726 144.838,87.825 145.638,87.825 145.638,93.626 144.838,93.626 144.838,96.726 145.638,96.726 145.638,97.726 159.638,97.726 159.638,96.726 160.438,96.726 160.438,93.626 159.638,93.626 159.638,87.825 160.438,87.825 160.438,84.726 159.638,84.726 159.638,83.726" style="fill:none;stroke-width:0.050000mm;stroke:black"/>
<polygon points="126.588,83.726 126.588,84.726 125.788,84.726 125.788,87.825 126.588,87.825 126.588,93.626 125.788,93.626 125.788,96.726 126.588,96.726 126.588,97.726 140.588,97.726 140.588,96.726 141.388,96.726 141.388,93.626 140.588,93.626 140.588,87.825 141.388,87.825 141.388,84.726 140.588,84.726 140.588,83.726" style="fill:none;stroke-width:0.050000mm;stroke:black"/>
<polygon points="107.538,83.726 107.538,84.726 106.738,84.726 106.738,87.825 107.538,87.825 107.538,93.626 106.738,93.626 106.738,96.726 107.538,96.726 107.538,97.726 121.538,97.726 121.538,96.726 122.338,96.726 122.338,93.626 121.538,93.626 121.538,87.825 122.338,87.825 122.338,84.726 121.538,84.726 121.538,83.726" style="fill:none;stroke-width:0.050000mm;stroke:black"/>
<polygon points="88.488,83.726 88.488,84.726 87.688,84.726 87.688,87.825 88.488,87.825 88.488,93.626 87.688,93.626 87.688,96.726 88.488,96.726 88.488,97.726 102.488,97.726 102.488,96.726 103.288,96.726 103.288,93.626 102.488,93.626 102.488,87.825 103.288,87.825 103.288,84.726 102.488,84.726 102.488,83.726" style="fill:none;stroke-width:0.050000mm;stroke:black"/>
<polygon points="69.438,83.726 69.438,84.726 68.638,84.726 68.638,87.825 69.438,87.825 69.438,93.626 68.638,93.626 68.638,96.726 69.438,96.726 69.438,97.726 83.438,97.726 83.438,96.726 84.238,96.726 84.238,93.626 83.438,93.626 83.438,87.825 84.238,87.825 84.238,84.726 83.438,84.726 83.438,83.726" style="fill:none;stroke-width:0.050000mm;stroke:black"/>
<polygon points="50.388,83.726 50.388,84.726 49.588,84.726 49.588,87.825 50.388,87.825 50.388,93.626 49.588,93.626 49.588,96.726 50.388,96.726 50.388,97.726 64.388,97.726 64.388,96.726 65.188,96.726 65.188,93.626 64.388,93.626 64.388,87.825 65.188,87.825 65.188,84.726 64.388,84.726 64.388,83.726" style="fill:none;stroke-width:0.050000mm;stroke:black"/>
<polygon points="262.319,64.676 262.319,65.676 261.518,65.676 261.518,68.775 262.319,68.775 262.319,69.376 260.794,69.376 260.794,66.146 259.068,66.146 259.068,65.225 255.769,65.225 255.769,66.146 254.044,66.146 254.044,69.376 253.219,69.376 253.219,72.176 254.044,72.176 254.044,78.446 255.769,78.446 255.769,79.426 259.068,79.426 259.068,78.446 260.794,78.446 260.794,73.976 262.319,73.976 262.319,74.576 261.518,74.576 261.518,77.676 262.319,77.676 262.319,78.676 276.319,78.676 276.319,77.676 277.119,77.676 277.119,74.576 276.319,74.576 276.319,73.976 277.844,73.976 277.844,78.446 279.569,78.446 279.569,79.426 282.869,79.426 282.869,78.446 284.594,78.446 284.594,72.176 285.419,72.176 285.419,69.376 284.594,69.376 284.594,66.146 282.869,66.146 282.869,65.225 279.569,65.225 279.569,66.146 277.844,66.146 277.844,69.376 276.319,69.376 276.319,68.775 277.119,68.775 277.119,65.676 276.319,65.676 276.319,64.676" style="fill:none;stroke-width:0.050000mm;stroke:black"/>
<polygon points="231.363,64.676 231.363,65.676 230.563,65.676 230.563,68.775 231.363,68.775 231.363,74.576 230.563,74.576 230.563,77.676 231.363,77.676 231.363,78.676 245.363,78.676 245.363,77.676 246.163,77.676 246.163,74.576 245.363,74.576 245.363,68.775 246.163,68.775 246.163,65.676 245.363,65.676 245.363,64.676" style="fill:none;stroke-width:0.050000mm;stroke:black"/>
<polygon points="212.313,64.676 212.313,65.676 211.513,65.676 211.513,68.775 212.313,68.775 212.313,74.576 211.513,74.576 211.513,77.676 212.313,77.676 212.313,78.676 226.313,78.676 226.313,77.676 227.113,77.676 227.113,74.576 226.313,74.576 226.313,68.775 227.113,68.775 227.113,65.676 226.313,65.676 226.313,64.676" style="fill:none;stroke-width:0.050000mm;stroke:black"/>
<polygon points="193.263,64.676 193.263,65.676 192.463,65.676 192.463,68.775 193.263,68.775 193.263,74.576 192.463,74.576 192.463,77.676 193.263,77.676 193.263,78.676 207.263,78.676 207.263,77.676 208.063,77.676 208.063,74.576 207.263,74.576 207.263,68.775 208.063,68.775 208.063,65.676 207.263,65.676 207.263,64.676" style="fill:none;stroke-width:0.050000mm;stroke:black"/>
<polygon points="174.213,64.676 174.213,65.676 173.413,65.676 173.413,68.775 174.213,68.775 174.213,74.576 173.413,74.576 173.413,77.676 174.213,77.676 174.213,78.676 188.213,78.676 188.213,77.676 189.013,77.676 189.013,74.576 188.213,74.576 188.213,68.775 189.013,68.775 189.013,65.676 188.213,65.676 188.213,64.676" style="fill:none;stroke-width:0.050000mm;stroke:black"/>
<polygon points="155.163,64.676 155.163,65.676 154.363,65.676 154.363,68.775 155.163,68.775 155.163,74.576 154.363,74.576 154.363,77.676 155.163,77.676 155.163,78.676 169.163,78.676 169.163,77.676 169.963,77.676 169.963,74.576 169.163,74.576 169.163,68.775 169.963,68.775 169.963,65.676 169.163,65.676 169.163,64.676" style="fill:none;stroke-width:0.050000mm;stroke:black"/>
<polygon points="136.113,64.676 136.113,65.676 135.313,65.676 135.313,68.775 136.113,68.775 136.113,74.576 135.313,74.576 135.313,77.676 136.113,77.676 136.113,78.676 150.113,78.676 150.113,77.676 150.913,77.676 150.913,74.576 150.113,74.576 150.113,68.775 150.913,68.775 150.913,65.676 150.113,65.676 150.113,64.676" style="fill:none;stroke-width:0.050000mm;stroke:black"/>
<polygon points="117.063,64.676 117.063,65.676 116.263,65.676 116.263,68.775 117.063,68.775 117.063,74.576 116.263,74.576 116.263,77.676 117.063,77.676 117.063,78.676 131.063,78.676 131.063,77.676 131.863,77.676 131.863,74.576 131.063,74.576 131.063,68.775 131.863,68.775 131.863,65.676 131.063,65.676 131.063,64.676" style="fill:none;stroke-width:0.050000mm;stroke:black"/>
<polygon points="98.013,64.676 98.013,65.676 97.213,65.676 97.213,68.775 98.013,68.775 98.013,74.576 97.213,74.576 97.213,77.676 98.013,77.676 98.013,78.676 112.013,78.676 112.013,77.676 112.813,77.676 112.813,74.576 112.013,74.576 112.013,68.775 112.813,68.775 112.813,65.676 112.013,65.676 112.013,64.676" style="fill:none;stroke-width:0.050000mm;stroke:black"/>
<polygon points="78.963,64.676 78.963,65.676 78.163,65.676 78.163,68.775 78.963,68.775 78.963,74.576 78.163,74.576 78.163,77.676 78.963,77.676 78.963,78.676 92.963,78.676 92.963,77.676 93.763,77.676 93.763,74.576 92.963,74.576 92.963,68.775 93.763,68.775 93.763,65.676 92.963,65.676 92.963,64.676" style="fill:none;stroke-width:0.050000mm;stroke:black"/>
<polygon points="59.913,64.676 59.913,65.676 59.113,65.676 59.113,68.775 59.913,68.775 59.913,74.576 59.113,74.576 59.113,77.676 59.913,77.676 59.913,78.676 73.913,78.676 73.913,77.676 74.713,77.676 74.713,74.576 73.913,74.576 73.913,68.775 74.713,68.775 74.713,65.676 73.913,65.676 73.913,64.676" style="fill:none;stroke-width:0.050000mm;stroke:black"/>
<polygon points="40.863,64.676 40.863,65.676 40.063,65.676 40.063,68.775 40.863,68.775 40.863,74.576 40.063,74.576 40.063,77.676 40.863,77.676 40.863,78.676 54.863,78.676 54.863,77.676 55.663,77.676 55.663,74.576 54.863,74.576 54.863,68.775 55.663,68.775 55.663,65.676 54.863,65.676 54.863,64.676" style="fill:none;stroke-width:0.050000mm;stroke:black"/>
<polygon points="14.669,64.676 14.669,65.676 13.869,65.676 13.869,68.775 14.669,68.775 14.669,74.576 13.869,74.576 13.869,77.676 14.669,77.676 14.669,78.676 28.669,78.676 28.669,77.676 29.469,77.676 29.469,74.576 28.669,74.576 28.669,68.775 29.469,68.775 29.469,65.676 28.669,65.676 28.669,64.676" style="fill:none;stroke-width:0.050000mm;stroke:black"/>
<polygon points="269.463,45.626 269.463,46.626 268.663,46.626 268.663,49.726 269.463,49.726 269.463,55.526 268.663,55.526 268.663,58.626 269.463,58.626 269.463,59.626 283.463,59.626 283.463,58.626 284.263,58.626 284.263,55.526 283.463,55.526 283.463,49.726 284.263,49.726 284.263,46.626 283.463,46.626 283.463,45.626" style="fill:none;stroke-width:0.050000mm;stroke:black"/>
<polygon points="245.651,45.626 245.651,46.626 244.851,46.626 244.851,49.726 245.651,49.726 245.651,55.526 244.851,55.526 244.851,58.626 245.651,58.626 245.651,59.626 259.650,59.626 259.650,58.626 260.451,58.626 260.451,55.526 259.650,55.526 259.650,49.726 260.451,49.726 260.451,46.626 259.650,46.626 259.650,45.626" style="fill:none;stroke-width:0.050000mm;stroke:black"/>
<polygon points="226.601,45.626 226.601,46.626 225.801,46.626 225.801,49.726 226.601,49.726 226.601,55.526 225.801,55.526 225.801,58.626 226.601,58.626 226.601,59.626 240.601,59.626 240.601,58.626 241.401,58.626 241.401,55.526 240.601,55.526 240.601,49.726 241.401,49.726 241.401,46.626 240.601,46.626 240.601,45.626" style="fill:none;stroke-width:0.050000mm;stroke:black"/>
<polygon points="207.551,45.626 207.551,46.626 206.751,46.626 206.751,49.726 207.551,49.726 207.551,55.526 206.751,55.526 206.751,58.626 207.551,58.626 207.551,59.626 221.551,59.626 221.551,58.626 222.351,58.626 222.351,55.526 221.551,55.526 221.551,49.726 222.351,49.726 222.351,46.626 221.551,46.626 221.551,45.626" style="fill:none;stroke-width:0.050000mm;stroke:black"/>
<polygon points="188.501,45.626 188.501,46.626 187.701,46.626 187.701,49.726 188.501,49.726 188.501,55.526 187.701,55.526 187.701,58.626 188.501,58.626 188.501,59.626 202.501,59.626 202.501,58.626 203.301,58.626 203.301,55.526 202.501,55.526 202.501,49.726 203.301,49.726 203.301,46.626 202.501,46.626 202.501,45.626" style="fill:none;stroke-width:0.050000mm;stroke:black"/>
<polygon points="169.451,45.626 169.451,46.626 168.651,46.626 168.651,49.726 169.451,49.726 169.451,55.526 168.651,55.526 168.651,58.626 169.451,58.626 169.451,59.626 183.451,59.626 183.451,58.626 184.251,58.626 184.251,55.526 183.451,55.526 183.451,49.726 184.251,49.726 184.251,46.626 183.451,46.626 183.451,45.626" style="fill:none;stroke-width:0.050000mm;stroke:black"/>
<polygon points="150.401,45.626 150.401,46.626 149.601,46.626 149.601,49.726 150.401,49.726 150.401,55.526 149.601,55.526 149.601,58.626 150.401,58.626 150.401,59.626 164.401,59.626 164.401,58.626 165.201,58.626 165.201,55.526 164.401,55.526 164.401,49.726 165.201,49.726 165.201,46.626 164.401,46.626 164.401,45.626" style="fill:none;stroke-width:0.050000mm;stroke:black"/>
<polygon points="131.351,45.626 131.351,46.626 130.550,46.626 130.550,49.726 131.351,49.726 131.351,55.526 130.550,55.526 130.550,58.626 131.351,58.626 131.351,59.626 145.351,59.626 145.351,58.626 146.151,58.626 146.151,55.526 145.351,55.526 145.351,49.726 146.151,49.726 146.151,46.626 145.351,46.626 145.351,45.626" style="fill:none;stroke-width:0.050000mm;stroke:black"/>
<polygon points="112.301,45.626 112.301,46.626 111.501,46.626 111.501,49.726 112.301,49.726 112.301,55.526 111.501,55.526 111.501,58.626 112.301,58.626 112.301,59.626 126.301,59.626 126.301,58.626 127.101,58.626 127.101,55.526 126.301,55.526 126.301,49.726 127.101,49.726 127.101,46.626 126.301,46.626 126.301,45.626" style="fill:none;stroke-width:0.050000mm;stroke:black"/>
<polygon points="93.251,45.626 93.251,46.626 92.451,46.626 92.451,49.726 93.251,49.726 93.251,55.526 92.451,55.526 92.451,58.626 93.251,58.626 93.251,59.626 107.251,59.626 107.251,58.626 108.051,58.626 108.051,55.526 107.251,55.526 107.251,49.726 108.051,49.726 108.051,46.626 107.251,46.626 107.251,45.626" style="fill:none;stroke-width:0.050000mm;stroke:black"/>
<polygon points="74.201,45.626 74.201,46.626 73.401,46.626 73.401,49.726 74.201,49.726 74.201,55.526 73.401,55.526 73.401,58.626 74.201,58.626 74.201,59.626 88.201,59.626 88.201,58.626 89.001,58.626 89.001,55.526 88.201,55.526 88.201,49.726 89.001,49.726 89.001,46.626 88.201,46.626 88.201,45.626" style="fill:none;stroke-width:0.050000mm;stroke:black"/>
<polygon points="55.151,45.626 55.151,46.626 54.351,46.626 54.351,49.726 55.151,49.726 55.151,55.526 54.351,55.526 54.351,58.626 55.151,58.626 55.151,59.626 69.151,59.626 69.151,58.626 69.951,58.626 69.951,55.526 69.151,55.526 69.151,49.726 69.951,49.726 69.951,46.626 69.151,46.626 69.151,45.626" style="fill:none;stroke-width:0.050000mm;stroke:black"/>
<polygon points="36.101,45.626 36.101,46.626 35.301,46.626 35.301,49.726 36.101,49.726 36.101,55.526 35.301,55.526 35.301,58.626 36.101,58.626 36.101,59.626 50.101,59.626 50.101,58.626 50.901,58.626 50.901,55.526 50.101,55.526 50.101,49.726 50.901,49.726 50.901,46.626 50.101,46.626 50.101,45.626" style="fill:none;stroke-width:0.050000mm;stroke:black"/>
<polygon points="12.288,45.626 12.288,46.626 11.488,46.626 11.488,49.726 12.288,49.726 12.288,55.526 11.488,55.526 11.488,58.626 12.288,58.626 12.288,59.626 26.288,59.626 26.288,58.626 27.088,58.626 27.088,55.526 26.288,55.526 26.288,49.726 27.088,49.726 27.088,46.626 26.288,46.626 26.288,45.626" style="fill:none;stroke-width:0.050000mm;stroke:black"/>
<polygon points="264.701,26.576 264.701,27.576 263.901,27.576 263.901,30.676 264.701,30.676 264.701,31.276 263.176,31.276 263.176,28.046 261.451,28.046 261.451,27.126 258.150,27.126 258.150,28.046 256.426,28.046 256.426,31.276 255.601,31.276 255.601,34.076 256.426,34.076 256.426,40.346 258.150,40.346 258.150,41.326 261.451,41.326 261.451,40.346 263.176,40.346 263.176,35.876 264.701,35.876 264.701,36.476 263.901,36.476 263.901,39.576 264.701,39.576 264.701,40.576 278.701,40.576 278.701,39.576 279.501,39.576 279.501,36.476 278.701,36.476 278.701,35.876 280.226,35.876 280.226,40.346 281.951,40.346 281.951,41.326 285.251,41.326 285.251,40.346 286.976,40.346 286.976,34.076 287.801,34.076 287.801,31.276 286.976,31.276 286.976,28.046 285.251,28.046 285.251,27.126 281.951,27.126 281.951,28.046 280.226,28.046 280.226,31.276 278.701,31.276 278.701,30.676 279.501,30.676 279.501,27.576 278.701,27.576 278.701,26.576" style="fill:none;stroke-width:0.050000mm;stroke:black"/>
<polygon points="236.126,26.576 236.126,27.576 235.326,27.576 235.326,30.676 236.126,30.676 236.126,36.476 235.326,36.476 235.326,39.576 236.126,39.576 236.126,40.576 250.126,40.576 250.126,39.576 250.926,39.576 250.926,36.476 250.126,36.476 250.126,30.676 250.926,30.676 250.926,27.576 250.126,27.576 250.126,26.576" style="fill:none;stroke-width:0.050000mm;stroke:black"/>
<polygon points="217.076,26.576 217.076,27.576 216.276,27.576 216.276,30.676 217.076,30.676 217.076,36.476 216.276,36.476 216.276,39.576 217.076,39.576 217.076,40.576 231.076,40.576 231.076,39.576 231.876,39.576 231.876,36.476 231.076,36.476 231.076,30.676 231.876,30.676 231.876,27.576 231.076,27.576 231.076,26.576" style="fill:none;stroke-width:0.050000mm;stroke:black"/>
<polygon points="198.026,26.576 198.026,27.576 197.226,27.576 197.226,30.676 198.026,30.676 198.026,36.476 197.226,36.476 197.226,39.576 198.026,39.576 198.026,40.576 212.026,40.576 212.026,39.576 212.826,39.576 212.826,36.476 212.026,36.476 212.026,30.676 212.826,30.676 212.826,27.576 212.026,27.576 212.026,26.576" style="fill:none;stroke-width:0.050000mm;stroke:black"/>
<polygon points="178.976,26.576 178.976,27.576 178.176,27.576 178.176,30.676 178.976,30.676 178.976,36.476 178.176,36.476 178.176,39.576 178.976,39.576 178.976,40.576 192.976,40.576 192.976,39.576 193.776,39.576 193.776,36.476 192.976,36.476 192.976,30.676 193.776,30.676 193.776,27.576 192.976,27.576 192.976,26.576" style="fill:none;stroke-width:0.050000mm;stroke:black"/>
<polygon points="159.926,26.576 159.926,27.576 159.126,27.576 159.126,30.676 159.926,30.676 159.926,36.476 159.126,36.476 159.126,39.576 159.926,39.576 159.926,40.576 173.926,40.576 173.926,39.576 174.726,39.576 174.726,36.476 173.926,36.476 173.926,30.676 174.726,30.676 174.726,27.576 173.926,27.576 173.926,26.576" style="fill:none;stroke-width:0.050000mm;stroke:black"/>
<polygon points="140.876,26.576 140.876,27.576 140.076,27.576 140.076,30.676 140.876,30.676 140.876,36.476 140.076,36.476 140.076,39.576 140.876,39.576 140.876,40.576 154.876,40.576 154.876,39.576 155.676,39.576 155.676,36.476 154.876,36.476 154.876,30.676 155.676,30.676 155.676,27.576 154.876,27.576 154.876,26.576" style="fill:none;stroke-width:0.050000mm;stroke:black"/>
<polygon points="121.825,26.576 121.825,27.576 121.025,27.576 121.025,30.676 121.825,30.676 121.825,36.476 121.025,36.476 121.025,39.576 121.825,39.576 121.825,40.576 135.826,40.576 135.826,39.576 136.626,39.576 136.626,36.476 135.826,36.476 135.826,30.676 136.626,30.676 136.626,27.576 135.826,27.576 135.826,26.576" style="fill:none;stroke-width:0.050000mm;stroke:black"/>
<polygon points="102.775,26.576 102.775,27.576 101.976,27.576 101.976,30.676 102.775,30.676 102.775,36.476 101.976,36.476 101.976,39.576 102.775,39.576 102.775,40.576 116.775,40.576 116.775,39.576 117.575,39.576 117.575,36.476 116.775,36.476 116.775,30.676 117.575,30.676 117.575,27.576 116.775,27.576 116.775,26.576" style="fill:none;stroke-width:0.050000mm;stroke:black"/>
<polygon points="83.726,26.576 83.726,27.576 82.926,27.576 82.926,30.676 83.726,30.676 83.726,36.476 82.926,36.476 82.926,39.576 83.726,39.576 83.726,40.576 97.726,40.576 97.726,39.576 98.525,39.576 98.525,36.476 97.726,36.476 97.726,30.676 98.525,30.676 98.525,27.576 97.726,27.576 97.726,26.576" style="fill:none;stroke-width:0.050000mm;stroke:black"/>
<polygon points="64.676,26.576 64.676,27.576 63.876,27.576 63.876,30.676 64.676,30.676 64.676,36.476 63.876,36.476 63.876,39.576 64.676,39.576 64.676,40.576 78.676,40.576 78.676,39.576 79.476,39.576 79.476,36.476 78.676,36.476 78.676,30.676 79.476,30.676 79.476,27.576 78.676,27.576 78.676,26.576" style="fill:none;stroke-width:0.050000mm;stroke:black"/>
<polygon points="45.626,26.576 45.626,27.576 44.826,27.576 44.826,30.676 45.626,30.676 45.626,36.476 44.826,36.476 44.826,39.576 45.626,39.576 45.626,40.576 59.626,40.576 59.626,39.576 60.426,39.576 60.426,36.476 59.626,36.476 59.626,30.676 60.426,30.676 60.426,27.576 59.626,27.576 59.626,26.576" style="fill:none;stroke-width:0.050000mm;stroke:black"/>
<polygon points="26.576,26.576 26.576,27.576 25.776,27.576 25.776,30.676 26.576,30.676 26.576,36.476 25.776,36.476 25.776,39.576 26.576,39.576 26.576,40.576 40.576,40.576 40.576,39.576 41.376,39.576 41.376,36.476 40.576,36.476 40.576,30.676 41.376,30.676 41.376,27.576 40.576,27.576 40.576,26.576" style="fill:none;stroke-width:0.050000mm;stroke:black"/>
<polygon points="7.526,26.576 7.526,27.576 6.726,27.576 6.726,30.676 7.526,30.676 7.526,36.476 6.726,36.476 6.726,39.576 7.526,39.576 7.526,40.576 21.526,40.576 21.526,39.576 22.326,39.576 22.326,36.476 21.526,36.476 21.526,30.676 22.326,30.676 22.326,27.576 21.526,27.576 21.526,26.576" style="fill:none;stroke-width:0.050000mm;stroke:black"/>
<polygon points="236.126,7.526 236.126,8.526 235.326,8.526 235.326,11.626 236.126,11.626 236.126,17.426 235.326,17.426 235.326,20.526 236.126,20.526 236.126,21.526 250.126,21.526 250.126,20.526 250.926,20.526 250.926,17.426 250.126,17.426 250.126,11.626 250.926,11.626 250.926,8.526 250.126,8.526 250.126,7.526" style="fill:none;stroke-width:0.050000mm;stroke:black"/>
<polygon points="217.076,7.526 217.076,8.526 216.276,8.526 216.276,11.626 217.076,11.626 217.076,17.426 216.276,17.426 216.276,20.526 217.076,20.526 217.076,21.526 231.076,21.526 231.076,20.526 231.876,20.526 231.876,17.426 231.076,17.426 231.076,11.626 231.876,11.626 231.876,8.526 231.076,8.526 231.076,7.526" style="fill:none;stroke-width:0.050000mm;stroke:black"/>
<polygon points="198.026,7.526 198.026,8.526 197.226,8.526 197.226,11.626 198.026,11.626 198.026,17.426 197.226,17.426 197.226,20.526 198.026,20.526 198.026,21.526 212.026,21.526 212.026,20.526 212.826,20.526 212.826,17.426 212.026,17.426 212.026,11.626 212.826,11.626 212.826,8.526 212.026,8.526 212.026,7.526" style="fill:none;stroke-width:0.050000mm;stroke:black"/>
<polygon points="178.976,7.526 178.976,8.526 178.176,8.526 178.176,11.626 178.976,11.626 178.976,17.426 178.176,17.426 178.176,20.526 178.976,20.526 178.976,21.526 192.976,21.526 192.976,20.526 193.776,20.526 193.776,17.426 192.976,17.426 192.976,11.626 193.776,11.626 193.776,8.526 192.976,8.526 192.976,7.526" style="fill:none;stroke-width:0.050000mm;stroke:black"/>
<polygon points="159.926,7.526 159.926,8.526 159.126,8.526 159.126,11.626 159.926,11.626 159.926,17.426 159.126,17.426 159.126,20.526 159.926,20.526 159.926,21.526 173.926,21.526 173.926,20.526 174.726,20.526 174.726,17.426 173.926,17.426 173.926,11.626 174.726,11.626 174.726,8.526 173.926,8.526 173.926,7.526" style="fill:none;stroke-width:0.050000mm;stroke:black"/>
<polygon points="140.876,7.526 140.876,8.526 140.076,8.526 140.076,11.626 140.876,11.626 140.876,17.426 140.076,17.426 140.076,20.526 140.876,20.526 140.876,21.526 154.876,21.526 154.876,20.526 155.676,20.526 155.676,17.426 154.876,17.426 154.876,11.626 155.676,11.626 155.676,8.526 154.876,8.526 154.876,7.526" style="fill:none;stroke-width:0.050000mm;stroke:black"/>
<polygon points="121.825,7.526 121.825,8.526 121.025,8.526 121.025,11.626 121.825,11.626 121.825,17.426 121.025,17.426 121.025,20.526 121.825,20.526 121.825,21.526 135.826,21.526 135.826,20.526 136.626,20.526 136.626,17.426 135.826,17.426 135.826,11.626 136.626,11.626 136.626,8.526 135.826,8.526 135.826,7.526" style="fill:none;stroke-width:0.050000mm;stroke:black"/>
<polygon points="102.775,7.526 102.775,8.526 101.976,8.526 101.976,11.626 102.775,11.626 102.775,17.426 101.976,17.426 101.976,20.526 102.775,20.526 102.775,21.526 116.775,21.526 116.775,20.526 117.575,20.526 117.575,17.426 116.775,17.426 116.775,11.626 117.575,11.626 117.575,8.526 116.775,8.526 116.775,7.526" style="fill:none;stroke-width:0.050000mm;stroke:black"/>
<polygon points="83.726,7.526 83.726,8.526 82.926,8.526 82.926,11.626 83.726,11.626 83.726,17.426 82.926,17.426 82.926,20.526 83.726,20.526 83.726,21.526 97.726,21.526 97.726,20.526 98.525,20.526 98.525,17.426 97.726,17.426 97.726,11.626 98.525,11.626 98.525,8.526 97.726,8.526 97.726,7.526" style="fill:none;stroke-width:0.050000mm;stroke:black"/>
<polygon points="64.676,7.526 64.676,8.526 63.876,8.526 63.876,11.626 64.676,11.626 64.676,17.426 63.876,17.426 63.876,20.526 64.676,20.526 64.676,21.526 78.676,21.526 78.676,20.526 79.476,20.526 79.476,17.426 78.676,17.426 78.676,11.626 79.476,11.626 79.476,8.526 78.676,8.526 78.676,7.526" style="fill:none;stroke-width:0.050000mm;stroke:black"/>
<polygon points="45.626,7.526 45.626,8.526 44.826,8.526 44.826,11.626 45.626,11.626 45.626,17.426 44.826,17.426 44.826,20.526 45.626,20.526 45.626,21.526 59.626,21.526 59.626,20.526 60.426,20.526 60.426,17.426 59.626,17.426 59.626,11.626 60.426,11.626 60.426,8.526 59.626,8.526 59.626,7.526" style="fill:none;stroke-width:0.050000mm;stroke:black"/>
<polygon points="26.576,7.526 26.576,8.526 25.776,8.526 25.776,11.626 26.576,11.626 26.576,17.426 25.776,17.426 25.776,20.526 26.576,20.526 26.576,21.526 40.576,21.526 40.576,20.526 41.376,20.526 41.376,17.426 40.576,17.426 40.576,11.626 41.376,11.626 41.376,8.526 40.576,8.526 40.576,7.526" style="fill:none;stroke-width:0.050000mm;stroke:black"/>
<polygon points="7.526,7.526 7.526,8.526 6.726,8.526 6.726,11.626 7.526,11.626 7.526,17.426 6.726,17.426 6.726,20.526 7.526,20.526 7.526,21.526 21.526,21.526 21.526,20.526 22.326,20.526 22.326,17.426 21.526,17.426 21.526,11.626 22.326,11.626 22.326,8.526 21.526,8.526 21.526,7.526" style="fill:none;stroke-width:0.050000mm;stroke:black"/>
</svg>
